<svg width="24" height="24" viewBox="0 0 24 24" fill="none" xmlns="http://www.w3.org/2000/svg">
<path d="M3.6 2.9C4 2.9 4.2 3.2 4.2 3.5C4.2 3.8 3.9 4.1 3.6 4.1C3.3 4.1 2.9 3.9 2.9 3.5C2.9 3.2 3.2 2.9 3.6 2.9ZM5 3.5C5 3.8 5.3 4.1 5.6 4.1C6 4.1 6.2 3.8 6.2 3.5C6.2 3.2 5.9 2.9 5.6 2.9C5.3 2.9 5 3.2 5 3.5ZM7.8 2.9C7.4 2.9 7.2 3.2 7.2 3.5C7.2 3.8 7.5 4.1 7.8 4.1C8.1 4.1 8.4 3.8 8.4 3.5C8.4 3.2 8.1 2.9 7.8 2.9ZM24 17.3C24 17.8 23.9 18.2 23.8 18.6L23.7 19H23.3C22.6 18.9 21.9 19.3 21.5 19.9C21.1 20.5 21.1 21.3 21.6 21.9L21.9 22.3L21.6 22.6C20.9 23.2 20.1 23.6 19.2 23.9L18.8 24L18.6 23.6C18.3 22.9 17.6 22.5 16.9 22.5C16.2 22.5 15.5 22.9 15.2 23.6L15.1 24L14.7 23.8C13.8 23.5 13 23 12.3 22.5L12 22.2L12.3 21.8C12.7 21.2 12.8 20.5 12.4 19.8C12 19.2 11.3 18.8 10.6 18.9L10.1 19L10 18.6C9.9 18.1 9.8 17.7 9.8 17.3C9.8 16.8 9.9 16.4 10 16L10.1 15.6L10.5 15.7C11.2 15.8 11.9 15.4 12.3 14.8C12.7 14.2 12.7 13.4 12.2 12.8L12 12.4L12.3 12.1C13 11.5 13.8 11.1 14.7 10.8L15.1 10.6L15.3 11C15.6 11.7 16.3 12.1 17 12.1C17.7 12.1 18.4 11.7 18.7 11L18.9 10.6L19.3 10.8C19.8 11 20.2 11.2 20.6 11.4V1.5C20.6 1.2 20.3 0.9 20 0.9H6.4H5.2H1.5C1.2 0.9 1 1.2 1 1.5V17.5C1 17.8 1.3 18.1 1.6 18.1H4.3H5.9H8.1V19H5.8H4.3H1.5C0.7 19 0 18.3 0 17.5V1.5C0 0.7 0.7 0 1.5 0H5.1H6.4H20C20.8 0 21.5 0.7 21.5 1.5V12L21.6 12.1L21.9 12.4L21.6 12.8C21.2 13.4 21.1 14.1 21.5 14.8C21.9 15.4 22.6 15.8 23.3 15.7L23.7 15.6L23.8 16C23.9 16.4 24 16.8 24 17.3ZM23 17.2C23 16.9 23 16.7 22.9 16.4C21.9 16.4 21.1 15.9 20.6 15.1C20.1 14.3 20.1 13.3 20.5 12.5C20.1 12.2 19.7 11.9 19.2 11.7C18.7 12.5 17.8 13 16.8 13C15.8 13 15 12.5 14.4 11.7C13.9 11.9 13.5 12.2 13.1 12.5C13.5 13.3 13.5 14.3 13 15.1C12.5 15.9 11.9 16.5 11 16.5C10.9 16.8 10.7 16.8825 10.7 17.1825C10.7 17.4825 10.6 17.7 10.7 18C11.7 18 12.5 18.5 13 19.3C13.5 20.1 13.5 21.1 13.1 21.9C13.5 22.2 13.9 22.5 14.4 22.7C14.9 21.9 15.8 21.4 16.8 21.4C17.8 21.4 18.6 21.9 19.2 22.7C19.7 22.5 20.1 22.2 20.5 21.9C20.1 21.1 20.1 20.1 20.6 19.3C21.1 18.5 22 18 22.9 18C23 17.7 23 17.5 23 17.2ZM19.8 17.3C19.8 18.9 18.5 20.1 16.9 20.1C15.3 20.1 14 18.9 14 17.3C14 15.7 15.3 14.5 16.9 14.5C18.5 14.5 19.8 15.7 19.8 17.3ZM18.8 17.3C18.8 16.3 18 15.4 16.9 15.4C15.8 15.4 15 16.2 15 17.3C15 18.3 15.8 19.2 16.9 19.2C18 19.1 18.8 18.3 18.8 17.3Z" fill="#1750B6"/>
</svg>
