<svg width="44" height="44" viewBox="0 0 44 44" fill="none" xmlns="http://www.w3.org/2000/svg">
<path d="M37.5179 6.48214C33.3929 2.25893 27.8929 0 22 0C16.1071 0 10.6071 2.25893 6.48214 6.48214C2.25893 10.6071 0 16.1071 0 22C0 27.8929 2.25893 33.3929 6.48214 37.5179C10.6071 41.6429 16.2054 44 22 44C27.7946 44 33.3929 41.7411 37.5179 37.5179C41.6429 33.2946 44 27.7946 44 22C44 16.2054 41.7411 10.6071 37.5179 6.48214ZM15.2232 28.2857V41.0536C13.3571 40.3661 11.5893 39.4821 10.0179 38.3036V28.2857H15.2232ZM33.9821 28.2857V38.3036C32.4107 39.4821 30.6429 40.4643 28.7768 41.0536V28.2857H33.9821ZM27.0089 41.5446C26.0268 41.7411 25.0446 41.9375 24.0625 42.0357V34.375C24.0625 33.2946 23.1786 32.3125 22 32.3125C20.9196 32.3125 19.9375 33.1964 19.9375 34.375V42.0357C18.8571 41.9375 17.7768 41.7411 16.6964 41.4464H16.9911V28.2857H26.9107V41.5446H27.0089ZM21.7054 42.2321V34.4732C21.7054 34.1786 22.1964 34.1786 22.1964 34.4732V42.2321C22.0982 42.2321 22 42.2321 21.9018 42.2321C21.9018 42.2321 21.8036 42.2321 21.7054 42.2321ZM36.3393 36.3393C36.1429 36.5357 35.9464 36.6339 35.8482 36.8304V28.2857H37.8125V26.5179H6.28571V28.2857H8.25V36.8304C8.05357 36.6339 7.85714 36.4375 7.66071 36.3393C3.83036 32.5089 1.76786 27.4018 1.76786 22C1.76786 16.5982 3.83036 11.4911 7.66071 7.66071C11.2946 4.02679 16.0089 1.96429 21.1161 1.76786V18.2679L18.2679 15.3214L16.9911 16.5982L22 21.7054L27.0089 16.5982L25.7321 15.3214L22.8839 18.2679V1.76786C27.9911 1.96429 32.7054 4.02679 36.3393 7.66071C40.1696 11.4911 42.2321 16.5982 42.2321 22C42.2321 27.4018 40.1696 32.5089 36.3393 36.3393Z" fill="#1A5BD1"/>
<path d="M26.616 11.5894L25.4374 12.9644L36.6338 22.7858H7.36597L18.5624 12.9644L17.3838 11.5894L4.61597 22.884L4.22311 23.2769L4.61597 24.5536H38.6963L39.3838 24.3572L39.8749 23.2769L26.616 11.5894Z" fill="#1A5BD1"/>
</svg>
