<svg width="96" height="96" viewBox="0 0 96 96" fill="none" xmlns="http://www.w3.org/2000/svg">
<path d="M10.4716 47.9935C10.4716 27.2702 27.2712 10.4707 47.9944 10.4707C68.7177 10.4707 85.5172 27.2702 85.5172 47.9935C85.5172 68.7167 68.7177 85.5162 47.9944 85.5162C40.567 85.5162 33.6436 83.3582 27.8171 79.635" stroke="#157BFA" stroke-width="12" stroke-linecap="round"/>
<path opacity="0.4" d="M48 90C24.804 90 6.00001 71.196 6.00001 48C6.00001 24.804 24.8041 6 48 6C71.196 6.00001 90 24.804 90 48C90 56.3137 87.5845 64.0631 83.417 70.5849" stroke="#157BFA" stroke-width="12" stroke-linecap="round"/>
<circle cx="47.9951" cy="47.9937" r="26.5247" transform="rotate(-90 47.9951 47.9937)" fill="#157BFA"/>
<path d="M54.1398 39.7785V35.0558H42.2361V39.7785H33.1141V60.5454H63.3264V39.7785H54.1398ZM43.4005 36.2203H52.9753V39.7785H43.4005V36.2203ZM62.1619 40.943V46.5067H34.2786V40.943H62.1619ZM44.8238 47.6712L45.1473 47.8653C45.6002 48.1888 45.8589 48.7063 45.8589 49.2239V49.8061H50.5816V49.2239C50.5816 48.7063 50.8404 48.1888 51.2933 47.8653L51.6167 47.6712H57.4392V59.3809H39.0013V47.6712H44.8238ZM46.5059 47.6712H49.87C49.6759 47.9947 49.5465 48.3181 49.4818 48.6416H46.894C46.8294 48.3181 46.7 47.93 46.5059 47.6712ZM34.2786 47.6712H37.8368V59.3809H34.2786V47.6712ZM58.6037 59.3809V47.6712H62.1619V59.3809H58.6037Z" fill="white"/>
</svg>
