<svg width="44" height="44" viewBox="0 0 44 44" fill="none" xmlns="http://www.w3.org/2000/svg">
<circle cx="22" cy="22" r="22" fill="#E7E7E7"/>
<path d="M32.5804 11.4196C29.7679 8.60715 25.9509 7 22 7C18.0491 7 14.2321 8.54018 11.4196 11.4196C8.60713 14.2321 7 18.0491 7 22C7 26.0179 8.54016 29.7679 11.4196 32.5804C14.2321 35.3929 18.0491 37 22 37C25.9509 37 29.7679 35.4598 32.5804 32.5804C35.3929 29.7679 37 25.9509 37 22C37 18.0491 35.4598 14.2321 32.5804 11.4196ZM31.7768 31.7768C29.2321 34.3214 25.8839 35.7277 22.2679 35.7947C22.7366 35.4598 23.1384 35.125 23.5402 34.7232L27.8929 30.3705C29.2991 28.9643 30.2366 27.2232 30.5714 25.2812L29.3661 25.0804C29.0982 26.7545 28.2946 28.2947 27.0223 29.567L22.6696 33.9197C22 34.5893 21.1964 35.192 20.3259 35.5938L20.3929 35.7947C19.3214 35.6607 18.317 35.4598 17.3125 35.058C19.2545 34.9911 21.1295 34.2545 22.4687 32.8482L23.2053 32.1116L22.3348 31.2411L21.5982 31.9777C20.3929 33.183 18.7857 33.8527 17.1116 33.8527C15.4375 33.8527 13.8304 33.183 12.625 31.9777L12.0223 31.375C9.54464 28.8973 9.54464 24.8125 12.0223 22.3348L15.3705 18.9866C16.442 17.9152 17.9152 17.2455 19.4553 17.1116L19.3884 15.9062C17.5804 16.0402 15.8393 16.8438 14.5 18.1161L11.1518 21.4643C9.74552 22.8705 9.00892 24.7455 8.94196 26.6205C8.60714 25.683 8.40625 24.6786 8.27232 23.7411L8.40623 23.808C8.80802 22.8705 9.4107 22.067 10.0803 21.3304L14.433 16.9777C17.7143 13.6964 23.0045 13.6964 26.2187 16.9777L26.9554 17.7143C28.2946 19.0536 29.1652 20.9286 29.3661 22.8036L30.5714 22.6696C30.3705 20.4598 29.3661 18.3839 27.8259 16.8438L27.0893 16.1071C23.3393 12.3571 17.3125 12.3571 13.5625 16.1071L9.20981 20.4598C8.80803 20.8616 8.4732 21.2634 8.13838 21.7321C8.20535 18.317 9.54463 14.8348 12.1562 12.2232C14.7678 9.6116 18.25 8.20535 21.933 8.20535C25.6161 8.20535 29.0982 9.6116 31.7098 12.2232C37.1339 17.6473 37.1339 26.4196 31.7768 31.7768Z" fill="#87949E"/>
<path d="M25.348 18.1161C24.3435 17.1116 23.0712 16.442 21.7319 16.1072L21.464 17.3125C22.6024 17.5804 23.6739 18.1831 24.5444 18.9866L25.1471 19.5893C26.3524 20.7947 27.0221 22.4018 27.0221 24.0759C27.0221 25.75 26.3524 27.3572 25.1471 28.5625L24.0757 29.634L24.9462 30.5045L26.0176 29.4331C27.4239 28.0268 28.2274 26.0849 28.2274 24.0759C28.2274 22.067 27.4239 20.125 26.0176 18.7188L25.348 18.1161Z" fill="#87949E"/>
<path d="M24.0089 20.4598L23.6071 20.058C21.3973 17.8482 17.8482 17.8482 15.6384 20.058L13.2277 22.4687C12.4241 23.2723 11.8884 24.2767 11.6875 25.3482L12.8928 25.5491C13.0937 24.6785 13.4955 23.875 14.0982 23.2723L16.5089 20.8616C18.25 19.1205 21.0625 19.1205 22.8036 20.8616L23.2053 21.2634C24.9464 23.0044 24.9464 25.8169 23.2053 27.558L20.7946 29.9687C19.0536 31.7098 16.2411 31.7098 14.5 29.9687L14.0982 29.5669C13.4955 28.9643 13.0937 28.2276 12.8928 27.4241L11.6875 27.6919C11.9554 28.6964 12.4241 29.6339 13.1607 30.3705L13.5625 30.7723C14.6339 31.8437 16.1071 32.4464 17.5804 32.4464C19.0536 32.4464 20.4598 31.9107 21.5982 30.7723L24.0089 28.3616C26.1518 26.2187 26.1518 22.6696 24.0089 20.4598Z" fill="#87949E"/>
<path d="M15.3708 28.8973C16.0405 29.5669 16.9779 29.9687 17.9824 29.9687C18.9869 29.9687 19.9244 29.5669 20.594 28.8973L22.0672 27.4241C22.7369 26.7544 23.1387 25.8169 23.1387 24.8125C23.1387 23.808 22.7369 22.9375 22.0672 22.2009L21.7994 21.933C21.1297 21.2633 20.1922 20.8616 19.1878 20.8616C18.1833 20.8616 17.2458 21.2633 16.5762 21.933L15.1029 23.4062C13.6967 24.8125 13.6967 27.1562 15.1029 28.6294L15.3708 28.8973ZM15.9735 24.3437L17.4467 22.8705C17.9154 22.4018 18.5181 22.1339 19.1878 22.1339C19.8574 22.1339 20.4601 22.4018 20.9288 22.8705L21.1967 23.1384C21.6654 23.6071 21.9333 24.2098 21.9333 24.8794C21.9333 25.5491 21.6654 26.1517 21.1967 26.6205L19.7235 28.0937C18.786 29.0312 17.1788 29.0312 16.2413 28.0937L15.9735 27.8259C14.969 26.8884 14.969 25.2812 15.9735 24.3437Z" fill="#87949E"/>
<path d="M17.1116 27.0223C17.4464 27.3572 17.8482 27.5581 18.317 27.5581C18.7857 27.5581 19.1875 27.3572 19.5223 27.0223L20.058 26.4866C20.7277 25.817 20.7277 24.7456 20.058 24.0759L19.9911 24.0089C19.3214 23.3393 18.25 23.3393 17.5804 24.0089L17.0446 24.5447C16.375 25.2143 16.375 26.2857 17.0446 26.9554L17.1116 27.0223ZM17.9152 25.2813L18.4509 24.7456C18.5848 24.6116 18.7187 24.6116 18.8527 24.6116C18.9866 24.6116 19.1205 24.6786 19.1875 24.7456L19.2545 24.8125C19.4554 25.0134 19.4554 25.3482 19.2545 25.5491L18.7188 26.0848C18.6518 26.1518 18.5179 26.2188 18.3839 26.2188C18.25 26.2188 18.1161 26.1518 18.0491 26.0848L17.9821 26.0179C17.7143 25.817 17.7143 25.5491 17.9152 25.2813Z" fill="#87949E"/>
</svg>
