<svg width="44" height="44" viewBox="0 0 44 44" fill="none" xmlns="http://www.w3.org/2000/svg">
<circle cx="22" cy="22" r="22" fill="white"/>
<path d="M22 7C13.7 7 7 13.7 7 22C7 30.3 13.7 37 22 37C30.3 37 37 30.3 37 22C37 13.7 30.3 7 22 7ZM8.1 22C8.1 14.4 14.4 8.1 22 8.1C29.6 8.1 35.9 14.4 35.9 22C35.9 24.4 35.3 26.6 34.2 28.6C33.6 25.7 31.1 23.6 28.1 23.6C27 23.6 25.9 23.9 25 24.5C25.2 23.8 25.3 23 25.3 22.3C25.3 18.1 21.9 14.6 17.6 14.6C13.3 14.6 9.9 18 9.9 22.2C9.9 26.4 13.3 29.9 17.6 29.9C19.2 29.9 20.7 29.4 22 28.5C21.9 28.9 21.9 29.4 21.9 29.8C21.9 32.3 23.3 34.4 25.4 35.4C24.3 35.7 23.2 35.8 22 35.8C14.4 35.9 8.1 29.6 8.1 22ZM17.6 28.7C14 28.7 11.1 25.8 11.1 22.2C11.1 18.6 14 15.7 17.6 15.7C21.2 15.7 24.1 18.6 24.1 22.2C24.1 25.8 21.2 28.7 17.6 28.7ZM27.1 34.9C24.7 34.5 22.9 32.4 22.9 29.9C22.9 27.1 25.2 24.8 28 24.8C30.8 24.8 33.1 27.1 33.1 29.9C33.1 30 33.1 30.1 33.1 30.2C31.6 32.3 29.6 33.9 27.1 34.9Z" fill="#1A5BD1"/>
<path d="M18.1 21.5C17.1 21.1 16.4 20.9 16.4 20.1C16.4 19.3 16.9 18.8 17.8 18.8C18.4 18.8 18.8 19 19.1 19.1C19.3 19.2 19.4 19.3 19.5 19.4L19.7 19.6L20.4 18.4L20.3 18.3C20.2 18.2 20 18 19.8 17.9C19.4 17.6 18.9 17.5 18.5 17.4V16.4H17.1V17.5C16.7 17.6 16.4 17.7 16.1 17.9C15.7 18.2 14.9 18.8 14.9 20.1C14.9 21.9 16.3 22.4 17.5 22.8C18.5 23.1 19.1 23.4 19.1 24.1C19.1 25 18.4 25.6 17.4 25.6C16.7 25.6 16.3 25.4 16 25.2C15.8 25.1 15.7 25 15.5 24.8L15.3 24.6L14.6 25.8L14.7 25.9C14.9 26.1 15.1 26.3 15.3 26.4C15.8 26.7 16.4 26.9 17 27V28H18.4V26.9C18.8 26.8 19.1 26.6 19.4 26.4C20.2 25.8 20.6 25 20.6 24.1C20.6 22.4 19.2 21.9 18.1 21.5Z" fill="#1A5BD1"/>
<path d="M29.7 31.6C29.6 31.7 29.5 31.8 29.3 31.9C28.7 32.2 28 32.2 27.4 31.9C27.2 31.8 27 31.6 26.9 31.3C26.8 31.1 26.7 30.9001 26.6 30.7001H29V29.6H26.4V29.4H29V28.3H26.6C26.7 28.1 26.8 27.9001 26.9 27.7001C27.1 27.4001 27.5 26.9 28.4 26.9C28.8 26.9 29.1 27 29.3 27.1C29.4 27.2 29.5 27.2 29.6 27.3L29.8 27.4L30.4 26.5L30.3 26.4C30.1 26.3 30 26.2 29.8 26.1C29.5 26 29 25.8 28.4 25.8C27.8 25.8 27.3 25.9001 26.9 26.2001C26.5 26.4001 26.2 26.7 26 27.1C25.8 27.5 25.6 27.8 25.5 28.3H24.7V29.4H25.4V29.6H24.7V30.7001H25.5C25.6 31.1001 25.8 31.5 26 31.9C26.6 32.8 27.4 33.2001 28.5 33.2001C29.1 33.2001 29.6 33.1 30 32.8C30.2 32.7 30.4 32.5 30.5 32.4L30.6 32.3L30 31.4L29.7 31.6Z" fill="#1A5BD1"/>
</svg>
