<svg width="44" height="44" viewBox="0 0 44 44" fill="none" xmlns="http://www.w3.org/2000/svg">
<path d="M22 44C9.89262 44 0 34.1074 0 22C0 9.89262 9.89262 0 22 0C34.1074 0 44 9.89262 44 22C44 34.1074 34.1074 44 22 44ZM22 1.84564C10.9262 1.84564 1.84564 10.8523 1.84564 22C1.84564 33.1477 10.8523 42.1544 22 42.1544C33.1477 42.1544 42.1544 33.1477 42.1544 22C42.1544 10.8523 33.0738 1.84564 22 1.84564Z" fill="#0652D7"/>
<path d="M22.0001 8.26868C14.6914 8.26868 8.7115 14.0271 8.34238 21.1881L10.2618 20.5975C10.9263 14.6915 15.9464 10.1143 22.0001 10.1143C28.4967 10.1143 33.8122 15.4298 33.8122 21.9264C33.8122 28.423 28.4967 33.7385 22.0001 33.7385C20.0806 33.7385 18.235 33.2955 16.537 32.4096L15.6511 34.0338C17.5706 35.0673 19.7853 35.5841 21.9263 35.5841C29.4565 35.5841 35.584 29.4566 35.584 21.9264C35.6578 14.47 29.5303 8.26868 22.0001 8.26868Z" fill="#0652D7"/>
<path d="M21.9996 35.6578C19.7848 35.6578 17.6439 35.141 15.7244 34.1074L16.6103 32.4833C18.3083 33.3692 20.154 33.8121 22.0734 33.8121V35.6578H21.9996Z" fill="#0652D7"/>
<path d="M34.6975 21.0404H22.5901V22.886H34.6975V21.0404Z" fill="#0652D7"/>
<path d="M22.886 23.1072H21.0404V34.7716H22.886V23.1072Z" fill="#0652D7"/>
<path d="M22.3695 35.5839L21.5574 33.9598C25.544 32.0403 28.0541 27.3155 28.0541 22C28.0541 16.6846 25.4702 12.0336 21.5574 10.0403L22.3695 8.41614C26.9467 10.6309 29.8997 16.0202 29.8997 22C29.9735 27.9799 26.9467 33.3692 22.3695 35.5839Z" fill="#0652D7"/>
<path d="M21.5572 35.5841C19.7115 34.6982 18.0135 33.2217 16.7585 31.3022L18.3088 30.2687C19.4162 31.8928 20.8189 33.1479 22.3693 33.8861L21.5572 35.5841Z" fill="#0652D7"/>
<path d="M15.5039 36.322L6.64486 31.1542L9.30258 29.0133L5.75895 30.6374L1.03412 27.9059L1.62472 26.9462L1.18177 25.6173L26.2086 17.5703L15.5039 36.322ZM9.89318 30.9327L14.7657 33.7381L22.222 20.8186L3.02741 26.9462L5.83278 28.5703L13.5106 25.1005L15.5039 26.4294L9.89318 30.9327Z" fill="#0652D7"/>
<path d="M10.2618 20.5973C10.7786 15.9463 14.0269 12.1074 18.3826 10.7047C16.3155 12.8457 14.839 15.7249 14.2484 19.047L14.7652 19.1947L16.2417 18.7517C16.98 15.4296 18.6779 12.6242 21.0404 10.9262V17.2014L22.886 16.6108V9.30204H22.0001V8.41614C14.6914 8.41614 8.7115 14.1745 8.34238 21.3356L10.2618 20.5973Z" fill="#0652D7"/>
<path d="M6.71759 29.604H4.87195V35.4362H6.71759V29.604Z" fill="#0652D7"/>
<path d="M9.58023 31.5389L5.57306 35.2516L6.82735 36.6054L10.8345 32.8926L9.58023 31.5389Z" fill="#0652D7"/>
</svg>
