<svg width="44" height="44" viewBox="0 0 44 44" fill="none" xmlns="http://www.w3.org/2000/svg">
<circle cx="22" cy="22" r="22" fill="#E7E7E7"/>
<path d="M28.6 21.0122H21.1V22.0122H28.6V21.0122Z" fill="#87949E"/>
<path d="M22 6.51221C13.7 6.51221 7 13.2122 7 21.5122C7 29.8122 13.7 36.5122 22 36.5122C30.3 36.5122 37 29.8122 37 21.5122C37 13.2122 30.3 6.51221 22 6.51221ZM22 35.4122C20.4 35.4122 18.8 35.1122 17.4 34.6122V28.6122L18 29.5122L20.2 30.8122C20.3 30.9122 20.4 30.9122 20.5 30.9122C20.6 30.9122 20.7 30.8122 20.8 30.8122C21 30.7122 21.1 30.4122 21.1 30.2122L20.9 27.5122L12.8 15.2122L9.9 17.1122L11.2 19.1122L10.5 19.6122L10.3 19.8122L10.2 20.0122C10.2 20.2122 10.3 20.3122 10.4 20.5122L13.7 24.1122C13.8 24.2122 13.9 24.4122 13.8 24.4122C13.8 24.4122 13.8 24.5122 13.7 24.5122L14.3 25.4122C14.5 25.3122 14.8 25.0122 14.8 24.7122C14.8 24.6122 14.8 24.6122 14.8 24.6122L16.4 27.1122V34.3122C11.5 32.1122 8.1 27.3122 8.1 21.6122C8.1 13.9122 14.4 7.61221 22 7.61221C29.6 7.61221 35.9 13.9122 35.9 21.5122C35.9 24.4122 35 27.1122 33.4 29.4122V17.0122L29 12.6122V12.5122H16.4V18.9122H17.4V13.6122H28.3C28.5 14.2122 28.9 15.6122 28.5 16.8122L28.4 17.1122L28.9 17.6122L29.2 17.5122C30.3 17.2122 31.7 17.6122 32.4 17.7122V30.8122C29.8 33.6122 26.1 35.4122 22 35.4122ZM11.3 17.4122L12.4 16.7122L19.8 27.8122L20 29.3122L18.7 28.6122L11.3 17.4122ZM13 21.8122L11.5 20.1122L11.8 19.9122L13 21.8122ZM29.6 14.6122L31.3 16.3122C30.8 16.2122 30.3 16.2122 29.7 16.2122C29.7 15.7122 29.7 15.1122 29.6 14.6122Z" fill="#87949E"/>
</svg>
