<svg width="44" height="44" viewBox="0 0 44 44" fill="none" xmlns="http://www.w3.org/2000/svg">
<circle cx="22" cy="22" r="22" fill="#E7E7E7"/>
<path d="M32.5804 11.4196C29.7679 8.60715 25.9509 7 22 7C18.0491 7 14.2321 8.54018 11.4196 11.4196C8.60713 14.2321 7 18.0491 7 22C7 25.9509 8.54016 29.7679 11.4196 32.5804C14.2321 35.3929 18.0491 37 22 37C25.9509 37 29.7679 35.4598 32.5804 32.5804C35.3929 29.7009 37 25.9509 37 22C37 18.0491 35.4598 14.2991 32.5804 11.4196ZM17.3795 26.3527V35.058C16.1071 34.5893 14.9018 33.9866 13.8304 33.183V26.3527H17.3795ZM30.1696 26.3527V33.1161C29.0982 33.9197 27.8929 34.5893 26.6205 34.9911V26.2857H30.1696V26.3527ZM25.4152 35.3929C24.7455 35.5268 24.0759 35.6607 23.4063 35.7277V30.5045C23.4063 29.7679 22.8036 29.0982 22 29.0982C21.2634 29.0982 20.5937 29.7009 20.5937 30.5045V35.7277C19.8571 35.6607 19.1205 35.5268 18.3839 35.3259H18.5848V26.3527H25.3482V35.3929H25.4152ZM21.7991 35.7947V30.5045C21.7991 30.3036 22.1339 30.3036 22.1339 30.5045V35.7947C22.067 35.7947 22 35.7947 21.933 35.7947C21.933 35.8616 21.8661 35.7947 21.7991 35.7947ZM31.7768 31.7768C31.6429 31.9107 31.5089 31.9777 31.442 32.1116V26.3527H32.7813V25.1473H11.2857V26.3527H12.625V32.1786C12.491 32.0447 12.3571 31.9777 12.2902 31.8438C9.67855 29.2322 8.2723 25.75 8.2723 22.067C8.2723 18.3839 9.67855 14.9018 12.2902 12.2902C14.9018 9.67857 18.3839 8.27232 22.067 8.27232C25.75 8.27232 29.2321 9.67857 31.8437 12.2902C34.4553 14.9018 35.8616 18.3839 35.8616 22.067C35.7946 25.75 34.3884 29.1652 31.7768 31.7768Z" fill="#87949E"/>
<path d="M21.9999 12.2233L10.1472 22.6027L9.87933 22.9376L10.2142 23.8081H33.8525L34.1874 22.9376L21.9999 12.2233ZM12.0222 22.6027L21.9999 13.8304L31.9776 22.6027H12.0222Z" fill="#87949E"/>
</svg>
