<svg width="96" height="96" viewBox="0 0 96 96" fill="none" xmlns="http://www.w3.org/2000/svg">
<path d="M48.9881 10.473C69.7114 10.473 86.5109 27.2725 86.5109 47.9958C86.5109 68.7191 69.7114 85.5186 48.9881 85.5186C28.2649 85.5186 11.4654 68.7191 11.4654 47.9958C11.4654 40.5684 13.6234 33.645 17.3466 27.8185" stroke="url(#paint0_linear)" stroke-width="12" stroke-linecap="round"/>
<path opacity="0.4" d="M6 48C6 24.804 24.804 6 48 6C71.196 6 90 24.804 90 48C90 71.196 71.196 90 48 90C39.6863 90 31.9369 87.5845 25.4151 83.417" stroke="#8BD8BD" stroke-width="12" stroke-linecap="round"/>
<circle cx="48.9889" cy="47.9955" r="26.5247" fill="#8BD8BD"/>
<path d="M34.4968 52.3318C34.5615 52.3318 34.6262 52.2671 34.6262 52.2024C34.6262 52.1377 34.5615 52.073 34.4968 52.073C34.4321 52.073 34.3674 52.1377 34.3674 52.2024C34.3674 52.2671 34.4321 52.3318 34.4968 52.3318Z" fill="white"/>
<path d="M33.2681 47.4157C33.3975 47.4157 33.5269 47.2864 33.5269 47.157C33.5269 47.0276 33.3975 46.8982 33.2681 46.8982C33.1387 46.8982 33.0093 47.0276 33.0093 47.157C33.0093 47.2864 33.1387 47.4157 33.2681 47.4157Z" fill="white"/>
<path d="M33.9152 42.3691C34.174 42.3691 34.3034 42.175 34.3034 41.9809C34.3034 41.7869 34.1093 41.5281 33.9152 41.5281C33.7211 41.5281 33.4623 41.7222 33.4623 41.9809C33.4623 42.2397 33.6564 42.3691 33.9152 42.3691Z" fill="white"/>
<path d="M36.3732 37.9042C36.6967 37.9042 36.9555 37.6455 36.9555 37.322C36.9555 36.9985 36.6967 36.8044 36.3732 36.8044C36.0498 36.8044 35.791 37.0632 35.791 37.322C35.791 37.5808 36.0498 37.9042 36.3732 37.9042Z" fill="white"/>
<path d="M40.3193 34.6054C40.7074 34.6054 41.0309 34.2819 41.0309 33.8938C41.0309 33.5056 40.7074 33.1821 40.3193 33.1821C39.9311 33.1821 39.6076 33.5056 39.6076 33.8938C39.6076 34.2819 39.9311 34.6054 40.3193 34.6054Z" fill="white"/>
<path d="M45.1714 32.9231C45.6242 32.9231 46.0124 32.535 46.0124 32.0821C46.0124 31.6293 45.6242 31.2411 45.1714 31.2411C44.7185 31.2411 44.3304 31.6293 44.3304 32.0821C44.3304 32.535 44.7185 32.9231 45.1714 32.9231Z" fill="white"/>
<path d="M50.4121 33.1175C50.948 33.1175 51.3825 32.683 51.3825 32.1471C51.3825 31.6111 50.948 31.1766 50.4121 31.1766C49.8761 31.1766 49.4417 31.6111 49.4417 32.1471C49.4417 32.683 49.8761 33.1175 50.4121 33.1175Z" fill="white"/>
<path d="M63.7392 43.4683C63.8107 43.4683 63.8686 43.4103 63.8686 43.3389C63.8686 43.2674 63.8107 43.2095 63.7392 43.2095C63.6677 43.2095 63.6098 43.2674 63.6098 43.3389C63.6098 43.4103 63.6677 43.4683 63.7392 43.4683Z" fill="white"/>
<path d="M64.968 48.1265C64.8386 48.1265 64.7092 48.2559 64.7092 48.3852C64.7092 48.5146 64.8386 48.644 64.968 48.644C65.0974 48.644 65.2268 48.5146 65.2268 48.3852C65.2268 48.2559 65.1621 48.1265 64.968 48.1265Z" fill="white"/>
<path d="M64.3856 53.1724C64.1268 53.1724 63.9974 53.3664 63.9974 53.5605C63.9974 53.7546 64.1915 53.9487 64.3856 53.9487C64.5797 53.9487 64.7738 53.7546 64.7738 53.5605C64.7738 53.3664 64.5797 53.1724 64.3856 53.1724Z" fill="white"/>
<path d="M61.9278 57.6364C61.6044 57.6364 61.3456 57.8951 61.3456 58.2186C61.3456 58.5421 61.6044 58.8009 61.9278 58.8009C62.2513 58.8009 62.5101 58.5421 62.5101 58.2186C62.5101 57.8951 62.1866 57.6364 61.9278 57.6364Z" fill="white"/>
<path d="M57.9809 62.3598C58.3739 62.3598 58.6925 62.0412 58.6925 61.6482C58.6925 61.2551 58.3739 60.9365 57.9809 60.9365C57.5879 60.9365 57.2693 61.2551 57.2693 61.6482C57.2693 62.0412 57.5879 62.3598 57.9809 62.3598Z" fill="white"/>
<path d="M53.0644 64.2999C53.5289 64.2999 53.9054 63.9233 53.9054 63.4588C53.9054 62.9943 53.5289 62.6178 53.0644 62.6178C52.5999 62.6178 52.2234 62.9943 52.2234 63.4588C52.2234 63.9233 52.5999 64.2999 53.0644 64.2999Z" fill="white"/>
<path d="M47.8237 64.3653C48.3597 64.3653 48.7941 63.9308 48.7941 63.3949C48.7941 62.8589 48.3597 62.4244 47.8237 62.4244C47.2878 62.4244 46.8533 62.8589 46.8533 63.3949C46.8533 63.9308 47.2878 64.3653 47.8237 64.3653Z" fill="white"/>
<path d="M63.0273 33.6994C60.763 31.4351 57.1401 31.4351 54.8758 33.6994C53.9054 34.6699 53.3231 35.9638 53.1938 37.3223C48.9239 35.4462 43.9424 36.4166 40.5783 39.7807C37.9259 42.4332 36.6967 46.2502 37.4083 50.0024L38.5728 49.8084C38.5081 49.4202 38.4434 48.9673 38.4434 48.5792H42.972C43.1014 52.5902 44.1365 56.019 45.8186 57.9599C45.3657 57.8305 44.9129 57.6364 44.46 57.4423L44.3953 57.5717C44.2659 56.3425 43.6837 55.1133 42.7779 54.1429C41.6781 53.0431 40.2549 52.4608 38.7022 52.4608C37.1495 52.4608 35.7263 53.0431 34.6264 54.1429C33.3973 55.178 32.815 56.6013 32.815 58.1539C32.815 59.6419 33.3973 61.1299 34.4971 62.2297C35.5969 63.3295 37.0201 63.9118 38.5728 63.9118C40.1255 63.9118 41.5488 63.3295 42.6486 62.2297C43.6837 61.1946 44.2012 59.9007 44.3306 58.6068C45.7539 59.1891 47.2419 59.5125 48.7298 59.5125H48.7945C48.8592 59.5125 48.8592 59.5125 48.9239 59.5125C51.8999 59.5125 54.8111 58.348 57.0107 56.1484C59.8573 53.3019 60.9571 49.2908 60.1161 45.4091L58.9516 45.6679C59.0809 46.2502 59.1456 46.8324 59.2103 47.4147H54.6817C54.5523 43.4036 53.5172 39.9748 51.8352 38.034C52.3527 38.1634 52.8056 38.3574 53.3231 38.6162C53.5172 39.8454 54.0348 40.9452 54.9405 41.8509C56.0403 42.9508 57.5283 43.533 59.0163 43.533C60.5042 43.533 61.9922 42.9508 63.092 41.8509C64.1918 40.7511 64.7741 39.3279 64.7741 37.7752C64.7094 36.2225 64.1271 34.7346 63.0273 33.6994ZM41.8075 61.3887C40.9665 62.2297 39.802 62.7473 38.5728 62.7473C37.3436 62.7473 36.1791 62.2944 35.3381 61.3887C34.4971 60.5476 33.9795 59.3831 33.9795 58.1539C33.9795 56.9248 34.4324 55.7603 35.3381 54.9192C36.1791 54.0782 37.3436 53.5606 38.5728 53.5606C39.802 53.5606 40.9665 54.0135 41.8075 54.9192C43.619 56.666 43.619 59.5772 41.8075 61.3887ZM41.4194 40.6218C42.6486 39.3926 44.1365 38.4868 45.7539 38.034C44.1365 39.9101 43.0367 43.3389 42.9073 47.4147H38.3787C38.5728 44.8269 39.6079 42.4332 41.4194 40.6218ZM44.0718 48.5145H53.4525C53.3231 53.8194 51.2529 58.2186 48.8592 58.2833C48.7945 58.2833 48.7298 58.2833 48.6651 58.2833C46.2714 58.2186 44.2012 53.8194 44.0718 48.5145ZM56.105 55.3074C54.8758 56.5366 53.3878 57.3776 51.7705 57.8952C53.3878 56.019 54.4876 52.5902 54.617 48.5792H59.1456C59.0163 51.0376 57.9811 53.4313 56.105 55.3074ZM44.0718 47.35C44.2012 41.9803 46.2714 37.5164 48.7298 37.5164C51.1882 37.5164 53.2584 41.9803 53.3878 47.35H44.0718ZM62.1863 41.0099C60.3748 42.8214 57.4636 42.8214 55.7168 41.0099C54.8758 40.1689 54.3582 39.0044 54.3582 37.7752C54.3582 36.546 54.8111 35.3815 55.7168 34.5405C56.6226 33.6348 57.7871 33.1819 58.9516 33.1819C60.1161 33.1819 61.2806 33.6348 62.1863 34.5405C63.0273 35.3815 63.5449 36.546 63.5449 37.7752C63.5449 38.9397 63.092 40.1042 62.1863 41.0099Z" fill="white"/>
<path d="M59.5333 35.8341C59.9215 35.8341 60.1803 35.9635 60.3744 36.3516L60.8919 36.0929C60.6331 35.5753 60.1803 35.3165 59.5333 35.3165C58.5629 35.3165 57.916 35.8988 57.7219 36.9986H57.3337L57.075 37.5161H57.7219V38.0337H57.3984L57.1396 38.5512H57.7866C57.9807 39.5864 58.6276 40.2333 59.598 40.2333C60.245 40.2333 60.6978 39.9745 60.9566 39.457L60.4391 39.1982C60.245 39.5217 59.9862 39.7158 59.598 39.7158C58.9511 39.7158 58.5629 39.3923 58.3688 38.6159H59.7274L59.9862 38.0984H58.3041V37.5161H59.7274L59.9862 36.9986H58.3688C58.4335 36.1576 58.8864 35.8341 59.5333 35.8341Z" fill="white"/>
<path d="M38.8961 57.7659C38.4433 57.5071 37.9904 57.313 37.9904 56.8602C37.9904 56.5367 38.2492 56.2779 38.5727 56.2779C38.8314 56.2779 39.0902 56.3426 39.349 56.7955L39.8665 56.472C39.6725 56.0838 39.4137 55.825 38.9608 55.7603V55.1134H38.3786V55.6957C37.861 55.825 37.4082 56.2779 37.4082 56.9248C37.4082 57.6365 37.9257 57.96 38.5727 58.2834C39.0255 58.4775 39.4784 58.7363 39.4784 59.1892C39.4784 59.3832 39.4137 59.642 39.2843 59.7714C39.1549 59.9655 38.8961 60.0302 38.6374 60.0302C37.9904 60.0302 37.7963 59.5773 37.6022 58.9951L37.0847 59.3185C37.2141 59.9655 37.7316 60.483 38.3786 60.6124V61.1947H38.8961V60.6124C39.2196 60.5477 39.4784 60.4183 39.6725 60.1596C39.9312 59.9008 40.0606 59.5773 40.0606 59.1892C40.0606 58.4128 39.4784 58.0247 38.8961 57.7659Z" fill="white"/>
<defs>
<linearGradient id="paint0_linear" x1="48.9881" y1="10.473" x2="48.9881" y2="85.5186" gradientUnits="userSpaceOnUse">
<stop stop-color="#8BD8BD"/>
<stop offset="1" stop-color="#8BD8BD"/>
</linearGradient>
</defs>
</svg>
