<svg width="44" height="44" viewBox="0 0 44 44" fill="none" xmlns="http://www.w3.org/2000/svg">
<circle cx="22" cy="22" r="22" fill="#E7E7E7"/>
<path d="M22 6.51221C13.7 6.51221 7 13.2122 7 21.5122C7 29.8122 13.7 36.5122 22 36.5122C30.3 36.5122 37 29.8122 37 21.5122C37 13.2122 30.3 6.51221 22 6.51221ZM22 35.4122C20.4 35.4122 18.9 35.1122 17.4 34.6122V31.1122H16.4V34.2122C15.3 33.7122 14.2 33.0122 13.2 32.3122L17 28.5122C18.1 29.5122 19.6 30.0122 21.1 30.0122C22.8 30.0122 24.4 29.3122 25.6 28.2122C26.8 27.0122 27.4 25.4122 27.4 23.7122C27.4 22.0122 26.7 20.4122 25.6 19.2122C24.5 18.0122 22.8 17.4122 21.1 17.4122C19.4 17.4122 17.8 18.1122 16.6 19.2122C15.4 20.3122 14.8 22.0122 14.8 23.7122C14.8 25.2122 15.3 26.7122 16.3 27.8122L12.5 31.6122C9.8 29.0122 8.1 25.5122 8.1 21.5122C8.1 13.9122 14.4 7.61221 22 7.61221C29.6 7.61221 35.9 13.9122 35.9 21.5122C35.9 24.4122 35 27.1122 33.4 29.4122V17.0122L29 12.6122V12.5122H16.4V16.7122H17.4V13.6122H28.3C28.5 14.2122 28.9 15.6122 28.5 16.8122L28.4 17.1122L28.9 17.6122L29.2 17.5122C30.3 17.2122 31.7 17.6122 32.4 17.7122V30.8122C29.8 33.6122 26.1 35.4122 22 35.4122ZM15.8 23.7122C15.8 22.3122 16.4 20.9122 17.4 19.9122C18.4 18.9122 19.7 18.3122 21.2 18.3122C22.6 18.3122 24 18.9122 25 19.9122C26 20.9122 26.6 22.2122 26.6 23.7122C26.6 25.1122 26 26.5122 25 27.5122C24 28.5122 22.7 29.1122 21.2 29.1122C19.8 29.1122 18.4 28.5122 17.4 27.5122C16.3 26.4122 15.8 25.1122 15.8 23.7122ZM29.6 14.6122L31.3 16.3122C30.8 16.2122 30.3 16.2122 29.7 16.2122C29.7 15.7122 29.7 15.1122 29.6 14.6122Z" fill="#87949E"/>
<path d="M20.7 25.8122C20.3 25.8122 20 25.7122 19.7 25.5122C19.6 25.4122 19.5 25.3122 19.4 25.2122L18.9 26.0122C19 26.1122 19.2 26.2122 19.3 26.3122C19.6 26.5122 20 26.7122 20.5 26.7122V27.4122H21.6V26.6122C22.5 26.4122 23.2 25.7122 23.2 24.7122C23.2 22.6122 20.4 23.2122 20.4 22.0122C20.4 21.6122 20.7 21.2122 21.3 21.2122C21.7 21.2122 22 21.3122 22.2 21.4122C22.3 21.5122 22.4 21.6122 22.5 21.6122L23 20.8122C22.9 20.7122 22.8 20.6122 22.7 20.5122C22.5 20.4122 22.1 20.2122 21.7 20.1122V19.4122H20.6V20.5122C19.8 20.7122 19.2 21.3122 19.2 22.2122C19.2 24.3122 21.9 23.8122 21.9 24.9122C21.9 25.4122 21.5 25.8122 20.7 25.8122Z" fill="#87949E"/>
</svg>
