<svg width="44" height="44" viewBox="0 0 44 44" fill="none" xmlns="http://www.w3.org/2000/svg">
<path d="M8.87878 27.509V28.3924V32.3188H35.2443V28.3924V27.509V12.5887H8.87878V27.509ZM10.6496 14.3556H33.4735V30.4591H10.6496V14.3556Z" fill="#0652D7"/>
<path d="M37.6054 6.40491C29.0464 -2.13497 15.0766 -2.13497 6.41923 6.40491C-2.13974 14.9448 -2.13974 28.8834 6.41923 37.5215C10.5511 41.6442 16.1587 44 21.9631 44C27.7675 44 33.3751 41.7423 37.507 37.5215C41.6389 33.3988 44 27.8037 44 22.0123C44 16.2209 41.8357 10.6258 37.6054 6.40491ZM36.4248 36.3436C28.5545 44.1963 15.6669 44.1963 7.79653 36.3436C-0.073784 28.4908 -0.073784 15.6319 7.79653 7.77914C11.7317 3.85276 16.9458 1.88957 22.1599 1.88957C27.374 1.88957 32.588 3.85276 36.5232 7.77914C40.36 11.6074 42.4259 16.7117 42.4259 22.1104C42.3276 27.411 40.1632 32.5153 36.4248 36.3436Z" fill="#0652D7"/>
<rect x="13.1814" y="17.8298" width="3.72286" height="3.71455" fill="#0652D7"/>
</svg>
