<svg width="24" height="24" viewBox="0 0 24 24" fill="none" xmlns="http://www.w3.org/2000/svg">
<path d="M12 4.93164C10.2927 4.93164 8.87805 6.34045 8.87805 8.15177V12.7304L10.1951 11.3719V8.15177C10.1951 7.14548 10.9756 6.29013 12 6.29013C12.9756 6.29013 13.8049 7.09516 13.8049 8.15177C13.8049 9.20837 13.0244 10.0134 12 10.0134H11.5122L10.2439 11.3216H12.0488C13.7561 11.3216 15.1707 9.91277 15.1707 8.10145C15.1707 6.29013 13.7073 4.93164 12 4.93164Z" fill="#1750B6"/>
<path d="M22.5854 0H1.41463C0.634146 0 0 0.654088 0 1.45912V16.1509C0 16.956 0.634146 17.6101 1.41463 17.6101H13.1707V16.7044H1.41463C1.12195 16.7044 0.878049 16.4528 0.878049 16.1509V1.45912C0.878049 1.15723 1.12195 0.90566 1.41463 0.90566H22.5854C22.878 0.90566 23.122 1.15723 23.122 1.45912V16.1509C23.122 16.4528 22.878 16.7044 22.5854 16.7044H18.9756L13.8049 13.8365L16.8293 23.6981L16.9756 24H17.6098L18.8293 20.0252L22.5366 19.5723L22.878 19.4717L23.0244 18.8176L20.5854 17.6101H22.5854C23.3659 17.6101 24 16.956 24 16.1509V1.45912C24 0.654088 23.3659 0 22.5854 0ZM21.0732 18.9182L18.1463 19.2704L17.2683 22.1887L15.3171 15.7484L18.7317 17.6604H18.7805L21.0732 18.9182Z" fill="#1750B6"/>
<path d="M2.53574 3.522C2.85903 3.522 3.12111 3.25168 3.12111 2.91823C3.12111 2.58477 2.85903 2.31445 2.53574 2.31445C2.21246 2.31445 1.95038 2.58477 1.95038 2.91823C1.95038 3.25168 2.21246 3.522 2.53574 3.522Z" fill="#1750B6"/>
<path d="M4.4871 3.522C4.81039 3.522 5.07246 3.25168 5.07246 2.91823C5.07246 2.58477 4.81039 2.31445 4.4871 2.31445C4.16381 2.31445 3.90173 2.58477 3.90173 2.91823C3.90173 3.25168 4.16381 3.522 4.4871 3.522Z" fill="#1750B6"/>
<path d="M6.43839 3.522C6.76168 3.522 7.02376 3.25168 7.02376 2.91823C7.02376 2.58477 6.76168 2.31445 6.43839 2.31445C6.1151 2.31445 5.85303 2.58477 5.85303 2.91823C5.85303 3.25168 6.1151 3.522 6.43839 3.522Z" fill="#1750B6"/>
</svg>
