<svg width="28" height="28" viewBox="0 0 28 28" fill="none" xmlns="http://www.w3.org/2000/svg">
<path d="M1.33375 17.1823C1.40559 17.1823 1.46383 17.1253 1.46383 17.055C1.46383 16.9847 1.40559 16.9277 1.33375 16.9277C1.26191 16.9277 1.20367 16.9847 1.20367 17.055C1.20367 17.1253 1.26191 17.1823 1.33375 17.1823Z" fill="white"/>
<path d="M0.552754 12.3454C0.732353 12.3454 0.877946 12.2029 0.877946 12.0272C0.877946 11.8514 0.732353 11.709 0.552754 11.709C0.373155 11.709 0.227562 11.8514 0.227562 12.0272C0.227562 12.2029 0.373155 12.3454 0.552754 12.3454Z" fill="white"/>
<path d="M1.98448 7.63538C2.27184 7.63538 2.50479 7.40745 2.50479 7.12628C2.50479 6.84512 2.27184 6.61719 1.98448 6.61719C1.69712 6.61719 1.46417 6.84512 1.46417 7.12628C1.46417 7.40745 1.69712 7.63538 1.98448 7.63538Z" fill="white"/>
<path d="M5.2994 3.88016C5.6586 3.88016 5.94979 3.59525 5.94979 3.24379C5.94979 2.89233 5.6586 2.60742 5.2994 2.60742C4.9402 2.60742 4.64902 2.89233 4.64902 3.24379C4.64902 3.59525 4.9402 3.88016 5.2994 3.88016Z" fill="white"/>
<path d="M10.0486 1.84369C10.4796 1.84369 10.829 1.5018 10.829 1.08005C10.829 0.6583 10.4796 0.316406 10.0486 0.316406C9.61752 0.316406 9.2681 0.6583 9.2681 1.08005C9.2681 1.5018 9.61752 1.84369 10.0486 1.84369Z" fill="white"/>
<path d="M15.1861 1.9091C15.7249 1.9091 16.1617 1.48174 16.1617 0.954552C16.1617 0.427368 15.7249 0 15.1861 0C14.6473 0 14.2105 0.427368 14.2105 0.954552C14.2105 1.48174 14.6473 1.9091 15.1861 1.9091Z" fill="white"/>
<path d="M26.8934 11.1374C26.9652 11.1374 27.0235 11.0804 27.0235 11.0101C27.0235 10.9398 26.9652 10.8828 26.8934 10.8828C26.8215 10.8828 26.7633 10.9398 26.7633 11.0101C26.7633 11.0804 26.8215 11.1374 26.8934 11.1374Z" fill="white"/>
<path d="M27.6744 16.3532C27.854 16.3532 27.9996 16.2107 27.9996 16.035C27.9996 15.8593 27.854 15.7168 27.6744 15.7168C27.4948 15.7168 27.3492 15.8593 27.3492 16.035C27.3492 16.2107 27.4948 16.3532 27.6744 16.3532Z" fill="white"/>
<path d="M26.2436 21.3815C26.531 21.3815 26.7639 21.1535 26.7639 20.8724C26.7639 20.5912 26.531 20.3633 26.2436 20.3633C25.9563 20.3633 25.7233 20.5912 25.7233 20.8724C25.7233 21.1535 25.9563 21.3815 26.2436 21.3815Z" fill="white"/>
<path d="M22.8615 25.3899C23.2207 25.3899 23.5119 25.105 23.5119 24.7536C23.5119 24.4021 23.2207 24.1172 22.8615 24.1172C22.5023 24.1172 22.2111 24.4021 22.2111 24.7536C22.2111 25.105 22.5023 25.3899 22.8615 25.3899Z" fill="white"/>
<path d="M18.1779 27.746C18.6089 27.746 18.9583 27.4041 18.9583 26.9824C18.9583 26.5606 18.6089 26.2188 18.1779 26.2188C17.7468 26.2188 17.3974 26.5606 17.3974 26.9824C17.3974 27.4041 17.7468 27.746 18.1779 27.746Z" fill="white"/>
<path d="M13.0393 28.0009C13.5781 28.0009 14.0148 27.5735 14.0148 27.0463C14.0148 26.5192 13.5781 26.0918 13.0393 26.0918C12.5005 26.0918 12.0637 26.5192 12.0637 27.0463C12.0637 27.5735 12.5005 28.0009 13.0393 28.0009Z" fill="white"/>
<path d="M22.3407 12.2195C22.4708 12.665 22.4708 13.1104 22.5358 13.5559H18.8937C18.8286 10.374 17.9181 7.63766 16.6173 5.98311C16.9425 6.11038 17.2677 6.23765 17.5279 6.36493C17.6579 7.38312 18.1782 8.33767 18.9587 9.03767C19.9343 9.99223 21.17 10.5013 22.4708 10.5013C23.8366 10.5013 25.0723 9.99223 25.9829 9.03767C27.934 7.12857 27.934 4.01037 25.9829 2.10126C24.0317 0.192158 20.8448 0.192158 18.8937 2.10126C18.0482 2.92854 17.5929 3.94673 17.4628 5.02856C13.7556 3.56491 9.59317 4.39219 6.73148 7.19221C4.45513 9.48313 3.41452 12.7286 3.99986 15.8468L5.17056 15.6559C5.10552 15.3377 5.10552 15.0195 5.04048 14.7014H8.68263C8.74767 17.8832 9.65821 20.6196 10.8939 22.2741C10.5687 22.1469 10.3086 22.0832 9.9834 21.9559V22.0196C9.85332 21.0014 9.39806 20.0468 8.55256 19.2196C6.6014 17.3105 3.41452 17.3105 1.46337 19.2196C-0.487788 21.1287 -0.487788 24.2469 1.46337 26.156C2.43894 27.1105 3.73971 27.556 4.97544 27.556C6.27621 27.556 7.51194 27.0469 8.48752 26.156C9.33302 25.3287 9.78829 24.2469 9.91836 23.165C11.0891 23.6105 12.3248 23.8651 13.5605 23.8651H13.6256H13.6906C16.2271 23.8651 18.7636 22.8469 20.6497 21.0014C23.0561 18.6468 24.0967 15.2104 23.3163 11.965L22.3407 12.2195ZM13.8207 5.53765C15.6417 5.53765 17.5929 8.71949 17.723 13.5559H9.91836C10.0484 8.78313 11.9996 5.53765 13.8207 5.53765ZM19.8042 2.99218C20.5196 2.22854 21.5602 1.91035 22.5358 1.91035C23.5114 1.91035 24.487 2.29217 25.2674 2.99218C26.7633 4.45582 26.7633 6.81039 25.2674 8.27403C24.552 8.97404 23.5764 9.35586 22.5358 9.35586C21.4952 9.35586 20.5196 8.97404 19.8042 8.27403C19.0888 7.57403 18.6986 6.61948 18.6986 5.60129C18.6986 4.64673 19.0888 3.69218 19.8042 2.99218ZM7.57698 8.08312C8.55256 7.12857 9.72325 6.42856 10.959 6.04674C9.65821 7.7013 8.81271 10.4377 8.68263 13.6195H5.04048C5.17056 11.5195 6.08109 9.54677 7.57698 8.08312ZM9.91836 14.7014H17.723C17.5929 19.4741 15.7068 22.656 13.8857 22.7196C13.8207 22.7196 13.8207 22.7196 13.7556 22.7196C11.9346 22.656 10.0484 19.4741 9.91836 14.7014ZM7.83713 25.3287C6.34125 26.7923 3.93483 26.7923 2.43894 25.3287C0.943058 23.8651 0.943058 21.5105 2.43894 20.0468C3.15436 19.3468 4.19498 18.965 5.17056 18.965C6.14613 18.965 7.12171 19.3468 7.90217 20.0468C9.33302 21.4469 9.33302 23.8651 7.83713 25.3287ZM19.9993 20.2378C19.0237 21.1923 17.8531 21.8923 16.6173 22.2741C17.9181 20.6196 18.7636 17.8832 18.8286 14.7014H22.4708C22.4057 16.8014 21.5602 18.7105 19.9993 20.2378Z" fill="white"/>
<path d="M21.1057 5.85538L20.9106 6.30084H21.4959C21.626 7.19175 22.2114 7.70085 22.9918 7.70085C23.5121 7.70085 23.9024 7.4463 24.1625 7.06448L23.7723 6.80993C23.5772 7.12812 23.3821 7.25539 23.0569 7.25539C22.5366 7.25539 22.1463 6.9372 22.0163 6.30084H23.1869L23.4471 5.85538H22.0163V5.40992H23.1869L23.4471 4.96446H22.0813C22.2114 4.3281 22.6016 4.00991 23.1219 4.00991C23.4471 4.00991 23.7073 4.13718 23.8373 4.45537L24.1625 4.20082C23.9024 3.75536 23.5772 3.56445 22.9918 3.56445C22.2114 3.56445 21.626 4.07355 21.4959 4.96446H21.1708L20.9106 5.40992H21.4309V5.85538H21.1057Z" fill="white"/>
<path d="M5.43061 22.3367C4.97534 22.1458 4.65015 21.9548 4.65015 21.573C4.65015 21.3185 4.84526 21.0639 5.17046 21.0639C5.43061 21.0639 5.62573 21.1276 5.82084 21.5094L6.21107 21.2548C6.01596 20.9367 5.82084 20.6821 5.43061 20.6185V20.1094H4.9103V20.6185C4.45503 20.6821 4.0648 21.1276 4.0648 21.6367C4.0648 22.273 4.52007 22.5276 5.04038 22.7821C5.49565 22.9094 5.88588 23.1639 5.88588 23.5458C5.88588 23.7367 5.82084 23.9276 5.7558 23.9912C5.62573 24.1185 5.43061 24.2458 5.17046 24.2458C4.65015 24.2458 4.45503 23.8639 4.25992 23.3549L3.80465 23.6094C3.93473 24.1821 4.32496 24.564 4.9103 24.6912V25.2003H5.36557V24.6912C5.62573 24.6276 5.88588 24.5003 6.01596 24.3094C6.21107 24.1185 6.34115 23.8003 6.34115 23.4821C6.40619 22.8458 5.88588 22.5912 5.43061 22.3367Z" fill="white"/>
</svg>
