<svg width="32" height="32" viewBox="0 0 32 32" fill="none" xmlns="http://www.w3.org/2000/svg">
<rect opacity="0.1" x="7.72339" y="10.502" width="19.2" height="21.4975" rx="3" fill="white"/>
<path d="M4.4724 9.2086H15.6189C15.922 9.2086 16.1914 8.93387 16.1914 8.62481C16.1914 8.31574 15.922 8.04102 15.6189 8.04102H4.4724C4.16932 8.04102 3.89992 8.31574 3.89992 8.62481C3.89992 8.93387 4.13565 9.2086 4.4724 9.2086Z" fill="white"/>
<path d="M4.4724 12.0875H15.6189C15.922 12.0875 16.1914 11.8128 16.1914 11.5037C16.1914 11.1946 15.922 10.9199 15.6189 10.9199H4.4724C4.16932 10.9199 3.89992 11.1946 3.89992 11.5037C3.89992 11.8128 4.13565 12.0875 4.4724 12.0875Z" fill="white"/>
<path d="M4.72171 15.0128H15.6417C15.9853 15.0128 16.2908 14.7336 16.2908 14.4195C16.2908 14.1054 15.9853 13.8262 15.6035 13.8262H4.72171C4.37807 13.8262 4.07262 14.1054 4.07262 14.4195C4.07262 14.7336 4.33989 15.0128 4.72171 15.0128Z" fill="white"/>
<path d="M31.6214 12.1909L30.106 10.6456C29.6346 10.1648 28.8263 10.1648 28.3549 10.6456L24.7853 14.2514V0.583792C24.7853 0.240385 24.5496 0 24.2128 0H0.572725C0.235972 0 0.000244141 0.240385 0.000244141 0.583792V27.6443C0.000244141 27.9533 0.235972 28.228 0.572725 28.228H24.2128C24.5496 28.228 24.7853 27.9533 24.7853 27.6443V20.9478L31.6214 13.9767C32.1265 13.4959 32.1265 12.6717 31.6214 12.1909ZM19.1615 21.6346L20.8453 23.3173L20.8116 23.3517L18.5554 23.9355L19.1615 21.6346ZM21.6535 22.5275L20.0034 20.8448L27.4457 13.1868L29.0957 14.8695L21.6535 22.5275ZM23.6403 27.0605H1.14521V1.16758H23.6403V15.419L18.3533 20.8105C18.1849 20.9822 18.0839 21.1539 18.0166 21.3599L17.4104 23.6264C17.3094 24.0385 17.4104 24.4849 17.7135 24.794C17.9492 25.0344 18.2186 25.1374 18.5217 25.1374C18.6227 25.1374 18.7237 25.1374 18.8248 25.103L21.0473 24.4849C21.2494 24.4162 21.4514 24.3132 21.5861 24.1415L23.6067 22.0811V27.0605H23.6403ZM30.8132 13.1525L29.904 14.0797L28.2539 12.397L29.1631 11.4698C29.1968 11.4355 29.1968 11.4355 29.2304 11.4355C29.2641 11.4355 29.2978 11.4355 29.2978 11.4698L30.8132 13.0151C30.8469 13.0495 30.8469 13.1181 30.8132 13.1525Z" fill="white"/>
</svg>
