<svg width="60" height="60" viewBox="0 0 60 60" fill="none" xmlns="http://www.w3.org/2000/svg">
<circle cx="30" cy="30" r="30" fill="#157BFA"/>
<path d="M29.9996 52.7707C42.5757 52.7707 52.7707 42.5757 52.7707 29.9996C52.7707 17.4235 42.5757 7.22852 29.9996 7.22852C17.4235 7.22852 7.22852 17.4235 7.22852 29.9996C7.22852 42.5757 17.4235 52.7707 29.9996 52.7707Z" stroke="white" stroke-width="1.8" stroke-miterlimit="10"/>
<path d="M11.8888 31.589L29.9997 15.7021L48.1107 31.589C48.1107 31.6949 48.1107 31.6949 48.0048 31.8008H11.9947C11.8888 31.6949 11.8888 31.6949 11.8888 31.589Z" stroke="white" stroke-width="1.8" stroke-miterlimit="10"/>
<path d="M43.8729 35.8257V47.7937" stroke="white" stroke-width="1.8" stroke-miterlimit="10"/>
<path d="M16.1261 47.7937V35.8257" stroke="white" stroke-width="1.8" stroke-miterlimit="10"/>
<path d="M23.645 51.077V35.8257" stroke="white" stroke-width="1.8" stroke-miterlimit="10"/>
<path d="M36.354 51.7125V35.8257" stroke="white" stroke-width="1.8" stroke-miterlimit="10"/>
<path d="M28.728 52.7714V43.4511C28.728 42.8156 29.2576 42.1802 29.999 42.1802C30.6344 42.1802 31.2699 42.7097 31.2699 43.4511V52.7714" stroke="white" stroke-width="1.8" stroke-miterlimit="10"/>
<path d="M13.0536 35.8257H46.9454" stroke="white" stroke-width="1.8" stroke-miterlimit="10"/>
</svg>
