<svg width="32" height="32" viewBox="0 0 32 32" fill="none" xmlns="http://www.w3.org/2000/svg">
<path d="M29.8037 17.0723C29.8037 16.9736 29.7056 16.9736 29.7056 16.8749L25.8821 13.0262C25.588 12.7302 25.1959 12.7302 24.9017 13.0262C24.6076 13.3223 24.6076 13.717 24.9017 14.0131L27.4508 16.5789H15.0979C14.7057 16.5789 14.4116 16.8749 14.4116 17.2697C14.4116 17.6644 14.7057 17.9605 15.0979 17.9605H27.4508L24.9017 20.5262C24.6076 20.8223 24.6076 21.217 24.9017 21.5131C24.9998 21.6118 25.1959 21.7105 25.3919 21.7105C25.588 21.7105 25.7841 21.6118 25.8821 21.5131L29.7056 17.6644C29.8037 17.5657 29.8037 17.5657 29.9017 17.467C29.9017 17.3683 29.9998 17.2697 29.9998 17.171C29.9017 17.2697 29.8037 17.171 29.8037 17.0723Z" fill="white"/>
<path d="M4.99972 8.38806C4.70561 8.092 4.31345 8.092 4.01934 8.38806L0.195833 12.2367C0.0977944 12.3354 0.0977944 12.3354 -0.000244141 12.4341C-0.000244141 12.6315 -0.000244141 12.8288 0.0977944 13.0262C0.0977944 13.1249 0.195833 13.2236 0.293872 13.2236L4.11738 17.0723C4.21542 17.1709 4.41149 17.2696 4.60757 17.2696C4.80365 17.2696 4.99972 17.1709 5.09776 17.0723C5.39188 16.7762 5.39188 16.3815 5.09776 16.0854L2.54876 13.5196H14.7055C15.0977 13.5196 15.3918 13.2236 15.3918 12.8288C15.3918 12.4341 15.0977 12.1381 14.7055 12.1381H2.45072L4.99972 9.57227C5.29384 9.07884 5.29384 8.68411 4.99972 8.38806Z" fill="white"/>
<path d="M25.3917 0H20.3918H4.50953C2.05857 0 -0.000244141 2.07237 -0.000244141 4.53947V8.88158C-0.000244141 9.27632 0.293872 9.57237 0.686026 9.57237C1.07818 9.57237 1.47033 9.27632 1.47033 8.88158V4.53947C1.47033 2.86184 2.84287 1.48026 4.50953 1.48026H20.2937H25.2937C26.9604 1.48026 28.3329 2.86184 28.3329 4.53947V13.5197C28.3329 13.9145 28.627 14.2105 29.0192 14.2105C29.4113 14.2105 29.7054 13.9145 29.7054 13.5197V4.53947C29.9015 2.07237 27.8427 0 25.3917 0Z" fill="white"/>
<path d="M29.1172 20.4277C28.7251 20.4277 28.4309 20.7237 28.4309 21.1184V25.4606C28.4309 27.1382 27.0584 28.5198 25.3917 28.5198H20.3918H4.50953C2.84287 28.5198 1.47033 27.1382 1.47033 25.4606V20.4277V16.579C1.47033 16.1842 1.17622 15.8882 0.784065 15.8882C0.39191 15.8882 -0.000244141 16.1842 -0.000244141 16.579V20.4277V25.4606C-0.000244141 27.9277 2.05857 30 4.50953 30H20.2937H25.2937C27.7447 30 29.8035 27.9277 29.8035 25.4606V21.1184C29.9015 20.7237 29.5094 20.4277 29.1172 20.4277Z" fill="white"/>
<path opacity="0.1" d="M6.99976 13L6.99976 28C6.99976 30.2091 8.79062 32 10.9998 32L27.9998 32C30.2089 32 31.9998 30.2091 31.9998 28L31.9998 13C31.9998 10.7909 30.2089 9 27.9998 9L10.9998 9C8.79062 9 6.99975 10.7909 6.99976 13Z" fill="white"/>
</svg>
