<svg width="32" height="32" viewBox="0 0 32 32" fill="none" xmlns="http://www.w3.org/2000/svg">
<path d="M8.57526 8.87664H20.92C21.2298 8.87664 21.4811 8.60119 21.4811 8.2618C21.4811 7.92242 21.2298 7.64697 20.92 7.64697H8.57526C8.26551 7.64697 8.01413 7.92242 8.01413 8.2618C8.01413 8.60119 8.26551 8.87664 8.57526 8.87664Z" fill="white"/>
<path d="M8.57526 13.1794H20.92C21.2298 13.1794 21.4811 12.9039 21.4811 12.5645C21.4811 12.2252 21.2298 11.9497 20.92 11.9497H8.57526C8.26551 11.9497 8.01413 12.2252 8.01413 12.5645C8.01413 12.9039 8.26551 13.1794 8.57526 13.1794Z" fill="white"/>
<path d="M0 19.5461C0 20.0365 0.396285 20.4345 0.884565 20.4345H7.07652V24.8768C7.07652 25.2238 7.27776 25.5392 7.59133 25.684C7.70987 25.7386 7.83547 25.7653 7.96108 25.7653C8.16851 25.7653 8.37373 25.692 8.53693 25.5516L14.4803 20.4345H27.4215C27.9098 20.4345 28.3061 20.0365 28.3061 19.5461V0.888458C28.3061 0.398029 27.9098 0 27.4215 0H0.884565C0.396285 0 0 0.398029 0 0.888458V19.5461ZM1.76913 1.77692H26.5369V18.6576H14.153C13.9416 18.6576 13.7377 18.7336 13.5772 18.8713L8.84565 22.9449V19.5461C8.84565 19.0557 8.44936 18.6576 7.96108 18.6576H1.76913V1.77692Z" fill="white"/>
<path opacity="0.1" d="M8 15L8 32L32 32L32 15L8 15Z" fill="white"/>
</svg>
