<svg width="32" height="32" viewBox="0 0 32 32" fill="none" xmlns="http://www.w3.org/2000/svg">
<path opacity="0.1" d="M31.8625 22.7289L31.7253 22.1773L31.1762 22.2463C30.49 22.3152 29.8723 22.0395 29.5292 21.4191C29.186 20.8676 29.2547 20.1093 29.6664 19.5578L30.0096 19.0753L29.5978 18.6617C28.9115 18.0413 28.088 17.5587 27.2645 17.283L26.7154 17.0762L26.5096 17.6276C26.235 18.2481 25.686 18.6617 24.9998 18.6617C24.3135 18.6617 23.7645 18.2481 23.49 17.6276L23.2841 17.0762L22.735 17.283C21.8429 17.5587 21.088 18.0413 20.4017 18.6617L19.9899 19.0753L20.3331 19.5578C20.7449 20.1093 20.8135 20.7987 20.4703 21.4191C20.1272 21.9706 19.5096 22.3152 18.8233 22.2463L18.2743 22.1773L18.137 22.7289C18.0684 23.2114 17.9998 23.625 17.9998 24.1076C17.9998 24.5901 18.0684 25.0037 18.137 25.4863L18.2743 26.0377L18.8233 25.9688C19.5096 25.8998 20.1272 26.1756 20.4703 26.796C20.8135 27.3475 20.7449 28.1058 20.3331 28.6573L19.9899 29.1398L20.4017 29.5534C21.088 30.1738 21.9115 30.6564 22.735 30.9321L23.2841 31.1389L23.49 30.5874C23.7645 29.967 24.3135 29.5534 24.9998 29.5534C25.686 29.5534 26.235 29.967 26.5096 30.5874L26.7154 31.1389L27.2645 30.9321C28.1566 30.6564 28.9115 30.1738 29.5978 29.5534L30.0096 29.1398L29.6664 28.6573C29.2547 28.1058 29.186 27.4164 29.5292 26.796C29.8723 26.2445 30.49 25.8998 31.1762 25.9688L31.7253 26.0377L31.8625 25.4863C31.9311 25.0037 31.9998 24.5901 31.9998 24.1076C31.9998 23.625 31.9998 23.1425 31.8625 22.7289ZM26.6468 24.1076C26.6468 25.0726 25.8919 25.8309 24.9311 25.8309C23.9703 25.8309 23.2154 25.0726 23.2154 24.1076C23.2154 23.1425 23.9703 22.3842 24.9311 22.3842C25.8919 22.3842 26.6468 23.1425 26.6468 24.1076Z" fill="white"/>
<path d="M30.2108 23.4285L30.0696 22.857L29.505 22.9284C28.7991 22.9999 28.1639 22.7141 27.811 22.0713C27.458 21.4998 27.5286 20.7141 27.9521 20.1427L28.305 19.6427L27.8815 19.2141C27.1757 18.5713 26.3287 18.0712 25.4817 17.7855L24.917 17.5712L24.7053 18.1427C24.4935 18.5713 24.2112 18.857 23.7877 19.0712V15.6427H25.2699V14.3569H1.5538V15.6427H3.03605V26.2856H0.706787V27.5713H18.2822C18.6351 28.1428 18.5645 28.9285 18.141 29.4285L17.7881 29.9285L18.2116 30.3571C18.9174 30.9999 19.7644 31.4999 20.6114 31.7856L21.1761 32L21.3878 31.4285C21.6702 30.7856 22.2348 30.3571 22.9407 30.3571C23.6465 30.3571 24.2112 30.7856 24.4935 31.4285L24.7053 32L25.2699 31.7856C26.1875 31.4999 26.9639 30.9999 27.6698 30.3571L28.0933 29.9285L27.7404 29.4285C27.3169 28.8571 27.2463 28.1428 27.5992 27.4999C27.9521 26.9285 28.5874 26.5713 29.2932 26.6428L29.8579 26.7142L29.9991 26.1428C30.0696 25.6428 30.1402 25.2142 30.1402 24.7142C30.352 24.357 30.352 23.857 30.2108 23.4285ZM22.4466 19.1427C22.0231 18.9998 21.6702 18.6427 21.529 18.2141L21.3172 17.6427L20.7526 17.8569C19.835 18.1427 19.0586 18.6427 18.3527 19.2855L17.9292 19.7141L18.2822 20.2141C18.7057 20.7856 18.7762 21.4998 18.4233 22.1427C18.0704 22.7141 17.4351 23.0713 16.7293 22.9999L16.1646 22.9284L16.0235 23.4999C15.9529 23.9999 15.8823 24.4284 15.8823 24.9285C15.8823 25.4285 15.9529 25.857 16.0235 26.357V26.4285H14.9647V20.4998C14.9647 19.6427 14.2589 18.9998 13.4825 18.9998C12.706 18.9998 12.0002 19.7141 12.0002 20.4998V26.4285H9.74151V15.7855H22.4466V19.1427ZM13.6236 26.357H13.2001V20.4284C13.2001 20.2856 13.2707 20.2141 13.4119 20.2141C13.553 20.2141 13.6236 20.2856 13.6236 20.4284V26.357ZM4.30656 15.7141H8.32984V26.357H4.30656V15.7141ZM29.0815 25.4999C28.0933 25.5713 27.2463 26.1428 26.7522 26.9999C26.2581 27.8571 26.2581 28.9285 26.611 29.7856C26.2581 30.0714 25.9052 30.2857 25.4817 30.4285C24.917 29.6428 23.9994 29.1428 23.0113 29.1428C22.0231 29.1428 21.1055 29.6428 20.5408 30.4285C20.1173 30.2857 19.7644 30.0714 19.4115 29.7856C19.835 28.9285 19.7644 27.8571 19.2703 26.9999C18.7762 26.1428 17.9292 25.5713 16.9411 25.4999C16.9411 25.2856 16.9411 25.0713 16.9411 24.857C16.9411 24.6428 16.9411 24.4284 16.9411 24.2142C17.9292 24.1427 18.7762 23.5713 19.2703 22.7142C19.7644 21.857 19.7644 20.7856 19.4115 19.9284C19.7644 19.6427 20.1173 19.4284 20.5408 19.2855C21.1055 20.0712 22.0231 20.5713 23.0113 20.5713C23.9994 20.5713 24.917 20.0712 25.4817 19.2855C25.9052 19.4284 26.2581 19.6427 26.611 19.9284C26.1875 20.7856 26.2581 21.857 26.7522 22.7142C27.2463 23.5713 28.0933 24.1427 29.0815 24.2142C29.0815 24.4284 29.0815 24.6428 29.0815 24.857C29.0815 25.0713 29.0815 25.2856 29.0815 25.4999Z" fill="white"/>
<path d="M23.0837 21.7139C21.3897 21.7139 20.0486 23.071 20.0486 24.7853C20.0486 26.4996 21.3897 27.8568 23.0837 27.8568C24.7777 27.8568 26.1188 26.4996 26.1188 24.7853C26.1188 23.071 24.7777 21.7139 23.0837 21.7139ZM23.0837 26.6425C22.0955 26.6425 21.3191 25.8568 21.3191 24.8568C21.3191 23.8568 22.0955 23.071 23.0837 23.071C24.0718 23.071 24.8483 23.8568 24.8483 24.8568C24.8483 25.8568 24.0718 26.6425 23.0837 26.6425Z" fill="white"/>
<path d="M26.751 11.8573L13.3401 0L-0.000244141 11.8573L0.352675 12.8573H26.3981L26.751 11.8573ZM2.25844 11.5715L13.3401 1.71432L24.4217 11.5715H2.25844Z" fill="white"/>
</svg>
