<svg width="40" height="32" viewBox="0 0 40 32" fill="none" xmlns="http://www.w3.org/2000/svg">
<path opacity="0.1" d="M27.1239 31.2607L37.5867 20.4844L23.8241 6.58203L3.13995 27.7235L6.43978 31.014L27.1239 31.2607Z" fill="white"/>
<path d="M22.7766 30.5193L35.2515 17.7687V11.27L24.2253 0L0 24.761L5.6338 30.5193H0.0804632V32H40V30.5193H22.7766ZM33.7223 12.5039V16.5348C33.4004 15.6299 32.9175 14.8895 32.5151 14.4782C32.9175 14.1492 33.4004 13.4088 33.7223 12.5039ZM2.01207 24.761L24.1449 2.1389L32.5956 10.7764C32.5956 12.6685 31.1469 13.9846 31.1469 13.9846L30.503 14.5605L31.1469 15.1363C31.1469 15.1363 32.5956 16.4525 32.5956 18.4267L20.7646 30.5193H7.64587L2.01207 24.761Z" fill="white"/>
<path d="M21.7299 22.3755C23.1786 20.8948 23.1786 18.5092 21.7299 17.0285C20.2812 15.5478 17.9472 15.5478 16.4985 17.0285C15.7741 17.7689 15.4522 18.6737 15.4522 19.7431C15.4522 20.8125 15.8546 21.7174 16.4985 22.4578C17.2228 23.1982 18.1886 23.5272 19.1544 23.5272C20.1202 23.445 21.0055 23.0336 21.7299 22.3755ZM16.9009 19.6609C16.9009 19.085 17.1423 18.4269 17.5447 18.0156C17.9472 17.6043 18.591 17.3576 19.1544 17.3576C19.7178 17.3576 20.2812 17.6043 20.7641 18.0156C21.6494 18.9205 21.6494 20.4012 20.7641 21.3061C19.8787 22.211 18.4301 22.211 17.5447 21.3061C17.1423 20.8125 16.9009 20.2367 16.9009 19.6609Z" fill="white"/>
<path d="M11.9122 24.2682C11.5902 24.5972 11.3488 25.0908 11.3488 25.6667C11.3488 26.1602 11.5097 26.6538 11.9122 27.0651C12.3146 27.4764 12.7975 27.641 13.2804 27.641C13.7633 27.641 14.2462 27.4764 14.6486 27.0651C14.9705 26.736 15.2119 26.2425 15.2119 25.6667C15.2119 25.1731 15.051 24.6795 14.6486 24.2682C13.8438 23.5278 12.6365 23.5278 11.9122 24.2682ZM13.6023 25.9957C13.4413 26.1603 13.1194 26.1603 12.9584 25.9957C12.8779 25.9135 12.7975 25.7489 12.7975 25.6667C12.7975 25.5022 12.8779 25.4199 12.9584 25.3376C13.0389 25.2553 13.1999 25.1731 13.2804 25.1731C13.3609 25.1731 13.5218 25.2553 13.6023 25.3376C13.6828 25.4199 13.7633 25.5844 13.7633 25.6667C13.6828 25.8312 13.6828 25.9135 13.6023 25.9957Z" fill="white"/>
<path d="M25.0293 15.6292C25.5122 15.6292 25.9951 15.4647 26.3976 15.0534C26.7195 14.7243 26.9609 14.2308 26.9609 13.655C26.9609 13.0791 26.8 12.6678 26.3976 12.2564C25.6732 11.5161 24.4659 11.5161 23.6611 12.2564C22.9368 12.9968 22.9368 14.2308 23.6611 15.0534C24.0635 15.3824 24.5464 15.6292 25.0293 15.6292ZM24.7074 13.3259C24.7879 13.2436 24.9489 13.1613 25.0293 13.1613C25.1098 13.1613 25.2708 13.2436 25.3513 13.3259C25.4318 13.4082 25.5123 13.5727 25.5123 13.655C25.5123 13.7372 25.4318 13.9017 25.3513 13.9839C25.1903 14.1485 24.8684 14.1485 24.7074 13.9839C24.5465 13.8194 24.5465 13.4904 24.7074 13.3259Z" fill="white"/>
</svg>
