<svg width="32" height="32" viewBox="0 0 32 32" fill="none" xmlns="http://www.w3.org/2000/svg">
<ellipse opacity="0.1" cx="21.1531" cy="12.0653" rx="10.8469" ry="10.9989" fill="white"/>
<path d="M23.7356 24.9758C23.571 24.9758 23.4091 24.9155 23.2763 24.7977C22.99 24.5396 22.9624 24.0964 23.2169 23.8088C26.6071 19.9377 28.2532 15.1099 27.7289 10.5529C27.2891 6.72797 25.3844 3.43466 22.3662 1.27185C22.0536 1.04884 21.9816 0.609822 22.2016 0.294236C22.4215 -0.0213489 22.8572 -0.0942841 23.1643 0.130132C26.5062 2.52437 28.6128 6.17254 29.0997 10.393C29.6668 15.3455 27.9032 20.5801 24.2501 24.7416C24.1146 24.8945 23.9237 24.9758 23.7356 24.9758Z" fill="white"/>
<path d="M11.2032 31.9996C10.9916 31.9996 10.7813 31.9014 10.6485 31.7149C10.4217 31.3993 10.4867 30.9645 10.7924 30.7345C14.6862 27.8198 16.9879 25.6612 20.641 21.4857C23.3784 18.3593 24.7118 14.5246 24.301 10.955C23.9773 8.12312 22.583 5.70082 20.3809 4.12711C15.8052 0.860448 9.4562 2.18591 4.9372 7.34467C4.67992 7.63501 4.24559 7.65886 3.95926 7.40358C3.6757 7.1427 3.64527 6.70228 3.90255 6.41335C8.90153 0.703356 16.0085 -0.709063 21.1763 2.97978C23.7062 4.78773 25.301 7.56488 25.6759 10.7937C26.1282 14.7602 24.6675 18.9961 21.6728 22.4184C17.9464 26.6753 15.5936 28.8802 11.6113 31.8607C11.4909 31.9561 11.3457 31.9996 11.2032 31.9996Z" fill="white"/>
<path d="M12.5165 26.5136C12.32 26.5136 12.1264 26.4281 11.9881 26.2668C11.7418 25.9708 11.7778 25.5304 12.0683 25.278C13.9702 23.6397 15.6508 21.9215 18.066 19.164C20.1532 16.7866 21.1782 13.9393 20.8808 11.3543C20.8379 10.9728 21.109 10.6236 21.4867 10.5759C21.8574 10.5268 22.2073 10.8073 22.2557 11.1916C22.5946 14.1722 21.4466 17.4164 19.1006 20.0953C16.6412 22.909 14.9205 24.6622 12.9632 26.3467C12.8346 26.4589 12.6741 26.5136 12.5165 26.5136Z" fill="white"/>
<path d="M0.69199 15.9767C0.484506 15.9767 0.278406 15.8856 0.14285 15.7046C-0.0895322 15.3932 -0.0300537 14.9556 0.274256 14.7214C2.52476 12.9794 4.0311 11.5263 6.47802 8.73369C10.3358 4.32391 15.4455 3.15975 19.1926 5.84012C19.5066 6.06313 19.5785 6.50215 19.36 6.81773C19.1401 7.13472 18.7085 7.20766 18.3973 6.98745C15.2574 4.73908 10.8808 5.81768 7.51267 9.66501C4.99935 12.5333 3.44322 14.0299 1.11249 15.8323C0.986617 15.9304 0.841378 15.9767 0.69199 15.9767Z" fill="white"/>
<path d="M5.6982 27.4196C5.4838 27.4196 5.26663 27.3214 5.13522 27.1265C4.91391 26.8109 4.98583 26.3733 5.29568 26.1489C9.75104 22.9215 11.8439 21.0097 15.4887 16.851C16.9009 15.238 17.6396 13.3333 17.4584 11.761C17.3906 11.1775 17.1554 10.3738 16.4127 9.84363C14.5246 8.49293 11.8743 9.94181 10.0858 11.9826C6.87532 15.649 5.02595 17.3363 1.09206 20.1822C0.779447 20.4038 0.349264 20.3323 0.127948 20.0181C-0.093368 19.7053 -0.0200572 19.2649 0.289785 19.0405C4.12132 16.2704 5.92228 14.6293 9.05252 11.0555C11.6903 8.0455 14.9672 7.10155 17.2094 8.6949C18.1251 9.35132 18.6867 10.3584 18.8305 11.6011C19.0574 13.5619 18.1929 15.8748 16.5233 17.7824C12.7997 22.0364 10.6557 23.9931 6.10071 27.2906C5.98037 27.3776 5.8379 27.4196 5.6982 27.4196Z" fill="white"/>
<path d="M3.0827 24.3741C2.8683 24.3741 2.65113 24.2703 2.51696 24.0753C2.29841 23.7597 2.3731 23.3221 2.68433 23.0977C7.62659 19.5688 9.90615 17.4354 13.7695 12.7213C14.0171 12.4225 14.4556 12.3847 14.7447 12.6301C15.0393 12.8798 15.0794 13.3202 14.8332 13.6175C10.8786 18.4467 8.54229 20.6319 3.48107 24.2493C3.35934 24.332 3.21964 24.3741 3.0827 24.3741Z" fill="white"/>
</svg>
