<svg width="36" height="32" viewBox="0 0 36 32" fill="none" xmlns="http://www.w3.org/2000/svg">
<path d="M36.0005 22.442C36.0005 22.442 33.7444 19.5069 34.8724 16.9505L35.1545 16.4771L33.7444 15.5303C32.0523 18.276 28.0102 17.3292 27.9162 17.3292L27.7282 18.1814L27.5402 19.0335C27.6342 19.0335 28.4802 19.2229 29.6082 19.2229C30.1723 19.2229 30.9243 19.1282 31.5823 19.0335L25.8481 27.7441L17.7638 26.0399L12.6876 30.0165L1.59522 25.9452L0.000488281 27.2577L1.11333 28.5928L1.97123 27.9336L12.8756 31.9101L18.0458 27.8388L26.5061 29.6378L32.8984 19.8857C33.2744 21.9687 34.4964 23.4835 34.5904 23.5782L36.0005 22.442Z" fill="white"/>
<path d="M8.73888 14.2026H2.81665V23.6707H8.73888V14.2026ZM7.04681 21.8718H4.50873V15.8122H7.04681V21.8718Z" fill="white"/>
<path d="M16.7292 6.5332H10.807V23.5758H16.7292V6.5332ZM15.0371 21.8716H12.499V8.23751H15.0371V21.8716Z" fill="white"/>
<path d="M24.7205 0H18.7983V23.6702H24.7205V0ZM23.0284 21.8713H20.4903V1.60953H23.0284V21.8713Z" fill="white"/>
<path opacity="0.1" d="M28.8878 3.55469H19.4039V31.9991H28.8878V3.55469Z" fill="white"/>
</svg>
