<svg width="36" height="32" viewBox="0 0 36 32" fill="none" xmlns="http://www.w3.org/2000/svg">
<path d="M33.3982 32H0.60177C0.300885 32 0 31.6928 0 31.2833C0 30.8737 0.300885 30.6689 0.60177 30.6689H33.3982C33.7994 30.6689 34 30.9761 34 31.2833C34 31.5904 33.7994 32 33.3982 32Z" fill="white"/>
<path d="M6.81977 31.8985H2.40679C2.00561 31.8985 1.80502 31.5913 1.80502 31.2841V21.8643C1.80502 21.4548 2.10591 21.25 2.40679 21.25H6.81977C7.22095 21.25 7.42154 21.5572 7.42154 21.8643V31.2841C7.42154 31.5913 7.22095 31.8985 6.81977 31.8985ZM3.10886 30.5674H6.218V22.4787H3.10886V30.5674Z" fill="white"/>
<path d="M15.0436 31.8968H10.6306C10.2294 31.8968 10.0288 31.5896 10.0288 31.2824V13.3643C10.0288 12.9548 10.3297 12.75 10.6306 12.75H15.0436C15.4448 12.75 15.6454 13.0572 15.6454 13.3643V31.2824C15.7457 31.5896 15.4448 31.8968 15.0436 31.8968ZM11.3327 30.5657H14.4418V14.0811H11.3327V30.5657Z" fill="white"/>
<path d="M23.3682 31.8981H18.9552C18.554 31.8981 18.3534 31.5909 18.3534 31.2838V20.9425C18.3534 20.5329 18.6543 20.3281 18.9552 20.3281H23.3682C23.7694 20.3281 23.9699 20.6353 23.9699 20.9425V31.2838C24.0702 31.5909 23.7694 31.8981 23.3682 31.8981ZM19.6573 30.567H22.7664V21.5568H19.6573V30.567Z" fill="white"/>
<path d="M31.6928 31.8971H27.2798C26.8786 31.8971 26.678 31.59 26.678 31.2828V16.9483C26.678 16.5388 26.9789 16.334 27.2798 16.334H31.6928C32.0939 16.334 32.2945 16.6412 32.2945 16.9483V31.1804C32.2945 31.59 31.9936 31.8971 31.6928 31.8971ZM27.8815 30.5661H30.9907V17.665H27.8815V30.5661Z" fill="white"/>
<path d="M4.61334 17.0509C2.90832 17.0509 1.4039 15.6175 1.4039 13.7745C1.4039 12.0339 2.80803 10.498 4.61334 10.498C6.41865 10.498 7.82278 11.9315 7.82278 13.7745C7.82278 15.6175 6.41865 17.0509 4.61334 17.0509ZM4.61334 11.9315C3.61039 11.9315 2.70774 12.7506 2.70774 13.8769C2.70774 14.9008 3.51009 15.8223 4.61334 15.8223C5.71658 15.8223 6.51894 15.0032 6.51894 13.8769C6.51894 12.7506 5.61629 11.9315 4.61334 11.9315Z" fill="white"/>
<path d="M12.9379 8.45051C11.2329 8.45051 9.72849 7.01707 9.72849 5.17406C9.72849 3.33106 11.1326 2 12.9379 2C14.7432 2 16.0471 3.43345 16.0471 5.27645C16.0471 7.11945 14.6429 8.45051 12.9379 8.45051ZM12.9379 3.33106C11.935 3.33106 11.0323 4.15017 11.0323 5.27645C11.0323 6.40273 11.8347 7.11945 12.9379 7.11945C14.0412 7.11945 14.8435 6.30034 14.8435 5.17406C14.8435 4.04778 13.9409 3.33106 12.9379 3.33106Z" fill="white"/>
<path d="M21.1627 16.1291C19.4577 16.1291 17.9533 14.6956 17.9533 12.8526C17.9533 11.0096 19.3574 9.57617 21.1627 9.57617C22.968 9.57617 24.3722 11.0096 24.3722 12.8526C24.3722 14.6956 22.968 16.1291 21.1627 16.1291ZM21.1627 11.0096C20.1598 11.0096 19.2571 11.8287 19.2571 12.955C19.2571 14.0813 20.0595 14.9004 21.1627 14.9004C22.266 14.9004 23.0683 14.0813 23.0683 12.955C23.0683 11.8287 22.1657 11.0096 21.1627 11.0096Z" fill="white"/>
<path d="M29.4863 12.2384C27.7813 12.2384 26.2769 10.805 26.2769 8.962C26.2769 7.22138 27.681 5.68555 29.4863 5.68555C31.2916 5.68555 32.6958 7.11899 32.6958 8.962C32.5955 10.805 31.1913 12.2384 29.4863 12.2384ZM29.4863 7.11899C28.4834 7.11899 27.5807 7.93811 27.5807 9.06439C27.5807 10.0883 28.3831 11.0098 29.4863 11.0098C30.5896 11.0098 31.3919 10.1907 31.3919 9.06439C31.2916 7.93811 30.4893 7.11899 29.4863 7.11899Z" fill="white"/>
<path d="M6.92038 12.1367C6.71979 12.1367 6.61949 12.0343 6.4189 11.9319C6.11802 11.6248 6.21831 11.2152 6.4189 11.0104L10.3304 7.11964C10.6313 6.81248 11.0325 6.91487 11.2331 7.11964C11.5339 7.42681 11.4337 7.83637 11.2331 8.04115L7.32156 11.9319C7.22126 12.1367 7.02067 12.1367 6.92038 12.1367Z" fill="white"/>
<path d="M19.1565 11.7263C18.9559 11.7263 18.8556 11.6239 18.7553 11.5215L14.8438 7.83547C14.5429 7.63069 14.5429 7.11875 14.8438 6.91397C15.0444 6.6068 15.5459 6.6068 15.7465 6.91397L19.658 10.6C19.9589 10.8048 19.9589 11.3167 19.658 11.5215C19.4574 11.6239 19.2568 11.7263 19.1565 11.7263Z" fill="white"/>
<path d="M23.6703 12.4446C23.4697 12.4446 23.1688 12.3422 23.0685 12.035C22.8679 11.7279 23.0685 11.3183 23.3694 11.1135L26.3782 9.68009C26.6791 9.47531 27.0803 9.68009 27.2809 9.98725C27.4815 10.2944 27.2809 10.704 26.98 10.9088L23.9712 12.3422C23.8709 12.4446 23.7706 12.4446 23.6703 12.4446Z" fill="white"/>
<rect opacity="0.1" x="14" width="22" height="24" rx="3" fill="white"/>
</svg>
