<svg width="32" height="32" viewBox="0 0 32 32" fill="none" xmlns="http://www.w3.org/2000/svg">
<path d="M26.6394 26.4093C26.5582 26.4093 24.8526 26.9764 23.6343 28.2726V22.9258H22.1724V28.1916C20.9541 26.8954 19.411 26.3283 19.2486 26.3283L18.7612 27.7055C18.7612 27.7055 22.1724 28.9207 22.1724 31.6751H22.9034H23.6343C23.6343 28.9207 27.0455 27.7865 27.1267 27.7865L26.8831 27.0575L26.6394 26.4093Z" fill="white"/>
<path d="M31.9998 14.1772L18.2739 0L17.2181 1.05315L17.8678 1.70125C17.5429 2.51137 17.0556 3.24052 16.4059 3.80761L15.6749 4.53669C14.0505 6.07593 13.1571 8.1823 13.0759 10.4507C13.0759 11.5848 13.2383 12.638 13.6444 13.6101C10.6393 12.4759 7.06576 13.043 4.62921 15.4734L3.89823 16.2025C3.24848 16.8506 2.5175 17.2557 1.70532 17.6607L1.05558 17.0127L-0.000244141 18.0658L13.9693 32L15.0252 30.9468L14.3754 30.2988C14.7003 29.4886 15.1876 28.7595 15.8373 28.1114L16.5683 27.3823C19.0048 24.9519 19.6546 21.3874 18.4363 18.3899C19.411 18.7949 20.4668 18.957 21.5226 18.957C23.6343 18.957 25.746 18.1468 27.3703 16.6076L28.1013 15.8785C28.751 15.3114 29.482 14.8253 30.2942 14.5013L30.9439 15.1494L31.9998 14.1772ZM13.2383 29.2456L10.5581 26.5721H15.2688L14.7003 27.1392C14.1317 27.7873 13.6444 28.5164 13.2383 29.2456ZM16.4871 25.1139H9.09622L2.76115 18.7949C3.49212 18.3899 4.22311 17.9038 4.87286 17.3367L5.60379 16.6076C8.36522 13.8532 12.751 13.8532 15.5124 16.6076C16.8119 17.9038 17.5429 19.6861 17.5429 21.5493C17.5429 22.7645 17.218 24.0608 16.4871 25.1139ZM16.8932 15.8785H26.0708C23.4718 18.1468 19.4921 18.1468 16.8932 15.8785ZM27.614 14.4202L15.5937 14.3393C14.8627 13.2051 14.4566 11.8279 14.4566 10.4507C14.4566 8.58736 15.2688 6.8861 16.5683 5.58989L17.2993 4.86076C17.949 4.29367 18.4363 3.56456 18.8424 2.83544L29.1571 13.4481C28.6698 13.6911 28.1013 14.0152 27.614 14.4202Z" fill="white"/>
<path opacity="0.1" d="M12.5879 15.2304C15.7727 15.2304 18.3544 12.6552 18.3544 9.47849C18.3544 6.30181 15.7727 3.72656 12.5879 3.72656C9.40318 3.72656 6.8214 6.30181 6.8214 9.47849C6.8214 12.6552 9.40318 15.2304 12.5879 15.2304Z" fill="white"/>
</svg>
