<svg width="32" height="33" viewBox="0 0 32 33" fill="none" xmlns="http://www.w3.org/2000/svg">
<path opacity="0.1" d="M25.2723 7.20703H8.10832V24.2795H25.2723V7.20703Z" fill="white"/>
<path d="M18.7169 0H0.000488281V18.6167H18.7169V0ZM17.1644 17.0724H1.55299V1.54423H17.1644V17.0724Z" fill="white"/>
<path d="M23.1153 13.3828H21.3903V14.927H23.1153V13.3828Z" fill="white"/>
<path d="M27.3398 13.3828H25.1835V14.927H27.3398V13.3828Z" fill="white"/>
<path d="M29.4951 13.3828V14.927H30.4439V15.8708H31.9964V13.3828H29.4951Z" fill="white"/>
<path d="M32.0002 18.6172H30.4476V21.3625H32.0002V18.6172Z" fill="white"/>
<path d="M32.0002 24.1074H30.4476V26.8528H32.0002V24.1074Z" fill="white"/>
<path d="M30.4439 30.4555H29.4951V31.9997H31.9964V29.5117H30.4439V30.4555Z" fill="white"/>
<path d="M26.7378 30.457H23.9778V32.0013H26.7378V30.457Z" fill="white"/>
<path d="M21.3026 30.457H18.5426V32.0013H21.3026V30.457Z" fill="white"/>
<path d="M14.8349 29.5117H13.2824V31.9997H15.7837V30.4555H14.8349V29.5117Z" fill="white"/>
<path d="M14.8349 25.1367H13.2824V27.2815H14.8349V25.1367Z" fill="white"/>
<path d="M14.8349 21.2773H13.2824V22.9932H14.8349V21.2773Z" fill="white"/>
</svg>