<svg width="78" height="16" viewBox="0 0 78 16" fill="none" xmlns="http://www.w3.org/2000/svg">
<path d="M24.3057 5.57439H23.8772L20.9354 8.91902H25.6195L25.5909 10.8776C25.5909 10.8776 24.3913 13.0772 21.1068 12.5348C20.05 12.3842 19.4788 11.9925 18.7933 11.209C17.9936 10.3051 17.5652 9.22034 17.5652 7.89454C17.5652 6.56874 17.9936 5.484 18.8219 4.61017C19.6502 3.70622 20.7069 3.28437 21.9922 3.28437C22.2778 3.28437 22.5634 3.3145 22.849 3.34463C23.6487 3.46516 24.3913 3.76648 25.0482 4.27872L27.2189 1.80791C26.2478 1.02448 25.0197 0.421846 23.6487 0.150659C23.1061 0.0602636 22.5634 0 22.0208 0C19.8215 0 17.965 0.753296 16.4799 2.25989C15.1089 3.64595 14.3663 5.39359 14.2806 7.50282V5.06215H11.1675V10.3051C10.939 8.94915 10.0821 7.92467 8.62551 7.23164C8.25421 7.05085 7.71155 6.80979 6.94039 6.50848L5.51233 5.90584C4.71261 5.54426 4.34131 5.06215 4.34131 4.54991C4.34131 3.79661 4.96967 3.28437 6.08356 3.28437C7.16888 3.28437 8.53983 3.79661 9.3681 4.67043L10.9104 2.22975C11.0247 3.19397 11.7673 3.91714 12.7383 3.91714C13.7665 3.91714 14.5663 3.07345 14.5663 1.9887C14.5663 0.873825 13.7665 0.0602673 12.7383 0.0602673C11.6816 0.0602673 10.8819 0.903957 10.8819 1.9887V2.01884C9.53947 0.723167 7.91148 0.0602673 6.02643 0.0602673C4.51269 0.0602673 3.25599 0.512243 2.2849 1.38607C1.31382 2.25989 0.856839 3.37477 0.856839 4.70057C0.856839 6.38795 1.65655 7.71375 3.19886 8.58757C3.62728 8.82862 4.25563 9.09982 5.08391 9.43127L6.39773 9.9435C7.25457 10.3352 7.65443 10.8173 7.65443 11.3898C7.65443 12.2335 6.85471 12.7759 5.74082 12.7759C4.16995 12.7759 2.85613 12.0829 1.7708 10.7269L0 13.1977C1.34238 15.0057 3.42735 16 5.71226 16C7.36881 16 8.71119 15.548 9.71084 14.6441C10.5106 13.951 10.9961 13.0471 11.1675 12.0226V15.7288H14.2806V8.46704C14.3663 10.516 15.0804 12.2637 16.4227 13.6497C17.8508 15.1262 19.7073 15.8795 21.9351 15.8795C24.477 15.8795 26.6762 14.9153 28.5898 12.9265V5.60452H24.3057V5.57439Z" fill="white"/>
<path d="M76.6578 1.75073C75.8009 0.756382 74.4586 0.244141 72.6878 0.244141H67.0897V4.40233C66.9184 3.37785 66.5185 2.50403 65.8331 1.75073C64.9762 0.756382 63.6338 0.244141 61.863 0.244141H56.265V14.9485L51.2097 0.244141H48.3535L43.2125 14.7677V15.6415H46.2971L47.2968 12.5379H52.1808L53.1518 15.6415H59.5781V10.5492H61.6631C63.5481 10.5492 64.9191 10.0671 65.8331 9.10289C66.5185 8.37973 66.9469 7.5059 67.1183 6.48142V15.6415H70.3743V10.5492H72.4593C74.3443 10.5492 75.7153 10.0671 76.6292 9.10289C77.5432 8.13868 78.0002 6.9334 78.0002 5.45694C77.9716 3.98048 77.5432 2.74508 76.6578 1.75073ZM48.1822 9.52474L49.753 4.64338L51.3239 9.52474H48.1822ZM61.7773 7.44564H59.5781V3.43811H61.9202C63.0912 3.43811 63.8623 4.34206 63.8623 5.42681C63.8623 6.51155 63.1197 7.44564 61.7773 7.44564ZM72.5735 7.44564H70.3743V3.43811H72.7163C73.8873 3.43811 74.6585 4.34206 74.6585 5.42681C74.6585 6.51155 73.9159 7.44564 72.5735 7.44564Z" fill="#62DA97"/>
<path d="M35.8728 8.56052L28.5326 0.244141V5.57747L31.76 9.25355L34.9874 12.8995H35.8728H36.7297L39.9857 9.25355V15.6415H43.1845V0.244141L35.8728 8.56052Z" fill="#62DA97"/>
<path d="M31.759 9.25391L28.5316 12.8999V15.6418H31.759V9.25391Z" fill="#62DA97"/>
</svg>
