<svg width="32" height="32" viewBox="0 0 32 32" fill="none" xmlns="http://www.w3.org/2000/svg">
<circle opacity="0.1" cx="23" cy="12.2397" r="9" fill="white"/>
<path d="M14.2342 13.0488C12.6228 13.0488 11.3135 14.3639 11.3135 15.9824C11.3135 17.601 12.6228 18.9161 14.2342 18.9161C15.8457 18.9161 17.155 17.601 17.155 15.9824C17.155 14.3639 15.8457 13.0488 14.2342 13.0488ZM14.2342 17.6684C13.3278 17.6684 12.5556 16.9266 12.5556 15.9824C12.5556 15.0383 13.2942 14.2965 14.2342 14.2965C15.1742 14.2965 15.9128 15.0383 15.9128 15.9824C15.9128 16.9266 15.1407 17.6684 14.2342 17.6684Z" fill="white"/>
<path d="M21.3181 14.0952L19.3709 13.8929C19.3709 13.8592 19.3374 13.8254 19.3374 13.7917L20.5795 12.2743C20.7809 12.0383 20.7474 11.6674 20.5459 11.4313L18.7666 9.6442C18.5316 9.40816 18.1959 9.40816 17.9273 9.61048L16.4166 10.8581C16.383 10.8581 16.3495 10.8244 16.3159 10.8244L16.1145 8.86864C16.0809 8.56517 15.8123 8.29541 15.5102 8.29541H13.0259C12.6901 8.29541 12.4551 8.53145 12.4216 8.86864L12.2201 10.8244C12.1866 10.8244 12.153 10.8581 12.1194 10.8581L10.5415 9.61048C10.3065 9.40816 9.93726 9.44188 9.70226 9.6442L7.92295 11.4313C7.68795 11.6674 7.68795 12.0046 7.88938 12.2743L9.13153 13.7917C9.13153 13.8254 9.09796 13.8592 9.09796 13.8929L7.1508 14.0952C6.84865 14.1289 6.58008 14.3987 6.58008 14.7022V17.1974C6.58008 17.5346 6.81508 17.7706 7.1508 17.8044L9.09796 18.0067C9.09796 18.0404 9.13153 18.0741 9.13153 18.1078L7.88938 19.6927C7.68795 19.9287 7.72152 20.2996 7.92295 20.5357L9.70226 22.3228C9.93726 22.5588 10.273 22.5588 10.5415 22.3565L12.0523 21.1089C12.0859 21.1089 12.1194 21.1426 12.153 21.1426L12.3544 23.0984C12.388 23.4018 12.6566 23.6716 12.9587 23.6716H15.443C15.7787 23.6716 16.0138 23.4356 16.0473 23.0984L16.2488 21.1426C16.2823 21.1426 16.3159 21.1089 16.3495 21.1089L17.8602 22.3565C18.0952 22.5588 18.4645 22.5251 18.6995 22.3228L20.4788 20.5357C20.7138 20.2996 20.7138 19.9624 20.5124 19.6927L19.2702 18.1753C19.2702 18.1416 19.3038 18.1078 19.3038 18.0741L21.251 17.8718C21.5531 17.8381 21.8217 17.5683 21.8217 17.2649V14.7696C21.8888 14.3987 21.6202 14.1289 21.3181 14.0952ZM20.6467 16.6579L18.8674 16.8265C18.6324 16.8602 18.3974 17.0288 18.3302 17.2649C18.2631 17.5009 18.1623 17.7032 18.0616 17.9392C17.9609 18.1753 17.9609 18.4113 18.1288 18.6136L19.2702 19.9961L18.2631 21.0077L16.8866 19.8613C16.6852 19.6927 16.4166 19.6927 16.2152 19.7938C15.9802 19.895 15.7788 19.9961 15.5437 20.0636C15.3087 20.131 15.1409 20.3333 15.1073 20.6031L14.9059 22.424H13.563L13.3952 20.6368C13.3616 20.4008 13.1937 20.1647 12.9587 20.0973C12.7237 20.0299 12.5223 19.9287 12.2873 19.8275C12.0523 19.7264 11.7837 19.7264 11.6158 19.895L10.2058 21.0077L9.23225 20.0299L10.3737 18.6474C10.5415 18.445 10.5751 18.1753 10.4408 17.973C10.3401 17.7369 10.2394 17.5346 10.1723 17.2986C10.1051 17.0625 9.90369 16.8939 9.63511 16.8602L7.82223 16.6579V15.3091L9.60154 15.1405C9.83654 15.1068 10.0715 14.9382 10.1387 14.7022C10.2058 14.4661 10.3065 14.2638 10.4073 14.0278C10.508 13.7917 10.508 13.522 10.3401 13.3534L9.23225 11.9371L10.2058 10.9593L11.5823 12.1057C11.7837 12.2743 12.0523 12.2743 12.2537 12.1732C12.4887 12.072 12.6901 11.9709 12.9251 11.9034C13.1601 11.836 13.328 11.6337 13.3616 11.3639L13.5294 9.57676H14.9059L15.0737 11.3639C15.1073 11.5999 15.2752 11.836 15.5102 11.9034C15.7452 11.9709 15.9466 12.072 16.1816 12.1732C16.4166 12.2743 16.6852 12.2743 16.853 12.1057L18.2295 10.9593L19.2031 11.9371L18.0616 13.3196C17.8938 13.522 17.8938 13.7917 17.9945 13.994C18.0952 14.2301 18.1959 14.4324 18.2631 14.6684C18.3302 14.9045 18.5316 15.0731 18.8002 15.1068L20.5795 15.2754V16.6579H20.6467Z" fill="white"/>
<path d="M25.951 19.3214V12.6449C27.3946 12.3414 28.4689 11.0938 28.4689 9.54268C28.4689 7.82297 27.0589 6.40674 25.3467 6.40674C24.4067 6.40674 23.5674 6.81138 22.9967 7.48577L17.1888 4.1138C17.2895 3.81033 17.3566 3.47313 17.3566 3.13593C17.3566 1.41623 15.9466 0 14.2344 0C12.5223 0 11.1123 1.41623 11.1123 3.13593C11.1123 3.47313 11.1794 3.81033 11.2801 4.1138L5.4722 7.48577C4.90148 6.8451 4.06219 6.40674 3.12218 6.40674C1.41002 6.40674 0 7.82297 0 9.54268C0 11.0601 1.0743 12.3414 2.51789 12.6449V19.3551C1.0743 19.6586 0 20.9062 0 22.4573C0 24.177 1.41002 25.5933 3.12218 25.5933C4.06219 25.5933 4.90148 25.1886 5.4722 24.5142L11.1794 27.8188C11.0451 28.156 10.978 28.4931 10.978 28.8641C10.978 30.5838 12.388 32 14.1002 32C15.8123 32 17.2223 30.5838 17.2223 28.8641C17.2223 28.5269 17.1552 28.2234 17.0545 27.9199L22.9631 24.5142C23.5338 25.1549 24.3731 25.5933 25.3131 25.5933C27.0253 25.5933 28.4353 24.177 28.4353 22.4573C28.4689 20.9062 27.3946 19.6249 25.951 19.3214ZM25.3131 7.65437C26.3539 7.65437 27.1932 8.49736 27.1932 9.54268C27.1932 10.588 26.3539 11.431 25.3131 11.431C24.2724 11.431 23.4331 10.588 23.4331 9.54268C23.4331 8.49736 24.2724 7.65437 25.3131 7.65437ZM14.2344 1.21391C15.2752 1.21391 16.1145 2.0569 16.1145 3.10221C16.1145 4.14752 15.2752 4.99052 14.2344 4.99052C13.1937 4.99052 12.3544 4.14752 12.3544 3.10221C12.3544 2.0569 13.1937 1.21391 14.2344 1.21391ZM1.24216 9.54268C1.24216 8.49736 2.08145 7.65437 3.12218 7.65437C4.1629 7.65437 5.0022 8.49736 5.0022 9.54268C5.0022 10.588 4.1629 11.431 3.12218 11.431C2.08145 11.431 1.24216 10.588 1.24216 9.54268ZM3.15575 24.3119C2.11502 24.3119 1.27573 23.4689 1.27573 22.4236C1.27573 21.3783 2.11502 20.5353 3.15575 20.5353C4.19648 20.5353 5.03577 21.3783 5.03577 22.4236C5.03577 23.4689 4.19648 24.3119 3.15575 24.3119ZM14.1337 30.7524C13.093 30.7524 12.2537 29.9094 12.2537 28.8641C12.2537 27.8188 13.093 26.9758 14.1337 26.9758C15.1745 26.9758 16.0138 27.8188 16.0138 28.8641C16.0138 29.9094 15.1745 30.7524 14.1337 30.7524ZM16.4838 26.8072C15.913 26.1328 15.0737 25.6944 14.1002 25.6944C13.1937 25.6944 12.388 26.0991 11.8173 26.706L6.11007 23.4015C6.21078 23.098 6.27793 22.7608 6.27793 22.4236C6.27793 20.9062 5.20363 19.6249 3.76004 19.3214V12.6449C5.20363 12.3414 6.27793 11.0938 6.27793 9.54268C6.27793 9.20548 6.21078 8.86828 6.11007 8.56481L11.8844 5.19283C12.4551 5.83351 13.2944 6.27186 14.2344 6.27186C15.1745 6.27186 16.0138 5.86723 16.5845 5.19283L22.3924 8.56481C22.2917 8.86828 22.2245 9.20548 22.2245 9.54268C22.2245 11.0601 23.2988 12.3414 24.7424 12.6449V19.3551C23.2988 19.6586 22.2245 20.9062 22.2245 22.4573C22.2245 22.7945 22.2917 23.1317 22.3924 23.4352L16.4838 26.8072ZM25.3131 24.3119C24.2724 24.3119 23.4331 23.4689 23.4331 22.4236C23.4331 21.3783 24.2724 20.5353 25.3131 20.5353C26.3539 20.5353 27.1932 21.3783 27.1932 22.4236C27.2267 23.4689 26.3874 24.3119 25.3131 24.3119Z" fill="white"/>
</svg>
