<svg width="32" height="32" viewBox="0 0 32 32" fill="none" xmlns="http://www.w3.org/2000/svg">
<path opacity="0.1" d="M11.2917 31.9998C15.1576 31.9998 18.2917 26.4997 18.2917 19.7148C18.2917 12.9299 15.1576 7.42969 11.2917 7.42969C7.42566 7.42969 4.29166 12.9299 4.29166 19.7148C4.29166 26.4997 7.42566 31.9998 11.2917 31.9998Z" fill="white"/>
<path d="M30.0784 17.6872C30.2455 16.8627 30.329 15.9557 30.329 15.0487C30.329 12.9875 29.9113 11.0911 29.1595 9.27722C30.6631 5.64941 30.7467 2.76371 29.1595 1.19715C28.0736 0.125297 26.2359 -0.287015 23.9805 0.207687L24.3146 1.69183C25.5676 1.44448 27.2383 1.36199 28.1572 2.26894C29.1595 3.25835 29.1595 5.15472 28.3242 7.54578C25.6512 3.09347 20.8063 0.0428262 15.2096 0.0428262C6.85631 0.0428262 0.00662839 6.80371 0.00662839 15.0487C0.00662839 20.5729 3.09734 25.4375 7.60811 27.9935C5.18566 28.818 3.2644 28.8179 2.26201 27.8285C1.34315 26.9216 1.42668 25.355 1.67728 24.2007L0.173691 23.9534C-0.243972 26.0971 0.090156 27.8286 1.17608 28.9829C2.01141 29.8074 3.09733 30.1372 4.51739 30.1372C5.93745 30.1372 7.6081 29.7249 9.44582 28.9829C11.2 29.7249 13.2048 30.1372 15.2096 30.1372C17.0473 30.1372 18.885 29.8073 20.6392 29.1477C21.7251 29.8073 23.0617 30.1372 24.3982 30.1372C28.5748 30.1372 31.9997 26.7567 31.9997 22.6342C31.8326 20.7379 31.1643 19.0064 30.0784 17.6872ZM12.7036 27.2514C14.0401 26.4269 15.4602 25.4375 16.8802 24.3657C17.1308 25.2726 17.465 26.0971 17.9662 26.8392C17.2979 27.4988 16.2955 28.1584 15.0425 28.1584C14.2072 28.1584 13.4554 27.8286 12.7036 27.2514ZM16.6296 22.5517C14.8754 23.9534 13.2048 25.1901 11.5341 26.0971C9.77995 23.8709 8.52697 20.0782 8.3599 15.7908H20.8063C18.3838 17.0276 16.6296 19.5835 16.6296 22.5517ZM15.0425 2.02165C18.5509 2.02165 21.4745 7.62827 21.6416 14.3892H8.3599C8.6105 7.62827 11.6177 2.02165 15.0425 2.02165ZM28.6584 16.5329C28.3242 16.2855 27.9066 16.0381 27.5724 15.8732H28.7419C28.7419 16.0381 28.7419 16.2855 28.6584 16.5329ZM28.7419 14.3892H26.3194C27.0712 13.3173 27.7395 12.3279 28.2407 11.256C28.4913 12.2455 28.6583 13.3173 28.7419 14.3892ZM27.4889 9.35965C26.7371 10.9262 25.7347 12.5752 24.4817 14.3067H23.2287C23.0617 8.86495 21.3075 4.33026 18.8015 2.02165C22.644 3.17596 25.8182 5.81429 27.4889 9.35965ZM11.3671 2.10408C8.77756 4.33024 7.10691 8.94748 6.93984 14.3892H1.42668C1.76081 8.45278 5.85392 3.58819 11.3671 2.10408ZM1.42668 15.8732H6.93984C7.02337 20.4905 8.27637 24.4481 10.1976 26.9216C9.86349 27.0865 9.52936 27.2514 9.19523 27.4163C4.85153 25.2726 1.67728 20.9027 1.42668 15.8732ZM11.2835 27.9935L11.3671 28.0759C11.2835 28.0759 11.2835 28.0759 11.2835 27.9935C11.2 28.0759 11.2835 27.9935 11.2835 27.9935ZM18.718 28.0759C18.8015 27.9935 18.8015 27.9934 18.885 27.911L18.9686 27.9935C18.9686 28.0759 18.8015 28.0759 18.718 28.0759ZM24.2311 28.653C20.8898 28.653 18.1332 25.9322 18.1332 22.6342C18.1332 19.3362 20.8898 16.6153 24.2311 16.6153C27.5724 16.6153 30.329 19.3362 30.329 22.6342C30.329 25.9322 27.656 28.653 24.2311 28.653Z" fill="white"/>
<path d="M23.9805 23.1292L21.9757 21.3977L20.9733 22.5519L24.1475 25.1904L27.9901 20.9029L26.8206 19.9136L23.9805 23.1292Z" fill="white"/>
</svg>
