<svg width="104" height="32" viewBox="0 0 104 32" fill="none" xmlns="http://www.w3.org/2000/svg">
<path d="M13.2295 0C5.90752 0 0 5.9013 0 13.2156V32L5.5747 26.4312V13.2156C5.5747 9.05974 8.98609 5.65195 13.1463 5.65195C17.3065 5.65195 20.7179 9.05974 20.7179 13.2156C20.7179 17.3714 17.3897 20.7792 13.2295 20.7792H11.2326L5.65791 26.3481H13.2295C20.5515 26.3481 26.459 20.4468 26.459 13.1325C26.459 5.81818 20.4683 0 13.2295 0Z" fill="#2858CD"/>
<path d="M60.822 7.23107V8.06224C57.9931 5.65185 53.6667 5.98432 51.2538 8.81029C48.841 11.6363 49.1738 15.9583 52.0026 18.3687C54.5819 20.5298 58.2427 20.5298 60.822 18.3687V19.9479H63.2348V6.3999L60.822 7.23107ZM56.4123 17.6207C53.9995 17.6207 52.0026 15.6259 52.0026 13.2155C52.0026 10.8051 53.9995 8.81029 56.4123 8.81029C58.8251 8.81029 60.822 10.8051 60.822 13.2155C60.822 15.6259 58.8251 17.6207 56.4123 17.6207Z" fill="currentColor"/>
<path d="M90.4464 7.23107V8.06224C87.6175 5.65185 83.2911 5.98432 80.8782 8.81029C78.4654 11.6363 78.7982 15.9583 81.627 18.3687C84.2063 20.5298 87.8671 20.5298 90.4464 18.3687V19.9479H92.8592V6.3999L90.4464 7.23107ZM86.0367 17.6207C83.6239 17.6207 81.627 15.6259 81.627 13.2155C81.627 10.8051 83.6239 8.81029 86.0367 8.81029C88.4495 8.81029 90.4464 10.8051 90.4464 13.2155C90.4464 15.6259 88.4495 17.6207 86.0367 17.6207Z" fill="currentColor"/>
<path d="M98.4325 19.9478H96.0197V3.15821L98.4325 2.41016V19.9478Z" fill="currentColor"/>
<path d="M104 19.9478H101.587V3.15821L104 2.41016V19.9478Z" fill="currentColor"/>
<path d="M41.1882 6.3999C37.4442 6.3999 34.3657 9.47523 34.3657 13.2155V24.0207L36.7785 21.6103V19.9479H41.1882C44.9322 19.9479 48.0107 16.8726 48.0107 13.1324C48.0107 9.39211 44.9322 6.3999 41.1882 6.3999ZM41.1882 17.6207H36.7785V13.2155C36.7785 10.8051 38.7754 8.81029 41.1882 8.81029C43.601 8.81029 45.5978 10.8051 45.5978 13.2155C45.5978 15.6259 43.601 17.6207 41.1882 17.6207Z" fill="currentColor"/>
<path d="M76.4645 6.3999L71.9716 14.5454L67.5619 6.3999H64.8163L70.6404 17.0389L66.8131 23.9376H69.642L79.2101 6.3999H76.4645Z" fill="currentColor"/>
</svg>
