<svg width="34" height="34" viewBox="0 0 34 34" fill="none" xmlns="http://www.w3.org/2000/svg">
<path d="M7.66594 16.5448C8.04317 16.5448 8.34898 16.239 8.34898 15.8617C8.34898 15.4845 8.04317 15.1787 7.66594 15.1787C7.28871 15.1787 6.98291 15.4845 6.98291 15.8617C6.98291 16.239 7.28871 16.5448 7.66594 16.5448Z" fill="currentColor"/>
<path d="M10.0942 15.1787C9.71471 15.1787 9.41113 15.4823 9.41113 15.8617C9.41113 16.2412 9.71471 16.5448 10.0942 16.5448C10.4736 16.5448 10.7772 16.2412 10.7772 15.8617C10.7772 15.4823 10.4736 15.1787 10.0942 15.1787Z" fill="currentColor"/>
<path d="M12.5209 16.5448C12.8982 16.5448 13.204 16.239 13.204 15.8617C13.204 15.4845 12.8982 15.1787 12.5209 15.1787C12.1437 15.1787 11.8379 15.4845 11.8379 15.8617C11.8379 16.239 12.1437 16.5448 12.5209 16.5448Z" fill="currentColor"/>
<path d="M34 17C34 7.58928 26.4107 0 17 0C7.58929 0 0 7.58928 0 17C0 26.4107 7.58929 34 17 34C19.4286 34 21.7813 33.4687 23.9063 32.558H24.058V32.4821C29.9777 29.8259 34 23.9062 34 17ZM17 1.36606C25.6518 1.36606 32.6339 8.34821 32.6339 17C32.6339 20.1875 31.6473 23.1473 29.9777 25.6518V25.5H29.9018V12.5223H3.94643V25.7277C2.27679 23.2232 1.29018 20.2634 1.29018 17C1.36608 8.4241 8.42411 1.36606 17 1.36606ZM5.38839 27.4732V13.8884H28.6116V24.9687L17.7589 20.4152L22.5402 31.7232C20.8705 32.3303 18.9732 32.7098 17.0759 32.7098C12.4464 32.6339 8.27232 30.6607 5.38839 27.4732ZM23.2232 29.9018L20.2634 22.9197L27.2455 25.8795L23.9063 26.5625L23.2232 29.9018ZM24.4375 30.8125L25.1205 27.7768L28.6875 27.0179V27.5491C27.4732 28.7634 26.0313 29.9018 24.4375 30.8125Z" fill="currentColor"/>
</svg>
