<svg width="28" height="29" viewBox="0 0 28 29" fill="none" xmlns="http://www.w3.org/2000/svg">
<path d="M24.0001 16.1002H25.5001V14.7002H1.6001V16.1002H3.0001V27.2002H1.00049V28.6002H26.3001V27.2002H24.0001V16.1002ZM22.6001 27.2002H18.7001V16.1002H22.6001V27.2002ZM13.7001 27.2002H13.4001V20.8002C13.4001 20.6002 13.7001 20.6002 13.7001 20.8002V27.2002ZM13.5001 19.2002C12.6001 19.2002 11.9001 19.9002 11.9001 20.8002V27.2002H9.8001V16.1002H17.3001V27.2002H15.1001V20.8002C15.1001 19.9002 14.4001 19.2002 13.5001 19.2002ZM4.4001 16.1002H8.3001V27.2002H4.4001V16.1002Z" fill="currentColor"/>
<path d="M10.7002 6.3L9.7002 7.2L13.5002 11.2L17.3002 7.2L16.3002 6.3L14.2002 8.4V0H12.8002V8.4L10.7002 6.3Z" fill="currentColor"/>
<path d="M17 3.40039L16.1 4.40039L24.5 11.9004H2.5L10.9 4.40039L10 3.40039L0.3 11.9004L0 12.4004L0.3 13.3004H26.2L26.7 13.1004L27.1 12.2004L17 3.40039Z" fill="currentColor"/>
</svg>
