<svg width="40" height="40" viewBox="0 0 40 40" fill="none" xmlns="http://www.w3.org/2000/svg">
<path d="M28.2 6.7V0H11.7V6.7H0V40H40V6.7H28.2ZM13.3 1.6H26.6V6.6H13.3V1.6ZM38.4 8.3V17.2H1.6V8.3H38.4ZM22.3 18.8C22 19.3 21.9 19.7 21.8 20.2H18.2C18.1 19.7 17.9 19.2 17.7 18.8H22.3ZM6.6 38.4H1.6V18.8H6.5V35.8V36.5V38.4H6.6ZM31.8 38.4H8.2V36.7V35.8V18.8H15.3L15.7 19.1C16.3 19.6 16.7 20.3 16.7 21V21.8H23.3V21C23.3 20.3 23.7 19.5 24.3 19.1L24.7 18.8H31.8V35.7V37.5V38.4ZM33.4 38.4V36.8V35.7V18.8H38.3V38.3H33.4V38.4Z" fill="#157BFA"/>
</svg>
