<svg width="22" height="24" viewBox="0 0 22 24" fill="none" xmlns="http://www.w3.org/2000/svg">
<path d="M11.0003 9.81006C9.73713 9.81006 8.71082 10.7918 8.71082 12C8.71082 13.2082 9.73713 14.1899 11.0003 14.1899C12.2634 14.1899 13.2898 13.2082 13.2898 12C13.2898 10.7918 12.2634 9.81006 11.0003 9.81006ZM11.0003 13.2586C10.2898 13.2586 9.6845 12.7048 9.6845 12C9.6845 11.2952 10.2634 10.7414 11.0003 10.7414C11.7371 10.7414 12.3161 11.2952 12.3161 12C12.3161 12.7048 11.7108 13.2586 11.0003 13.2586Z" fill="currentColor"/>
<path d="M16.5526 10.5905L15.0263 10.4395C15.0263 10.4143 15 10.3891 15 10.364L15.9737 9.23124C16.1316 9.05504 16.1053 8.77815 15.9474 8.60195L14.5526 7.26785C14.3684 7.09165 14.1053 7.09165 13.8947 7.24268L12.7105 8.17403C12.6842 8.17403 12.6579 8.14886 12.6316 8.14886L12.4737 6.6889C12.4474 6.46236 12.2368 6.26099 12 6.26099H10.0526C9.78947 6.26099 9.60526 6.43719 9.57895 6.6889L9.42105 8.14886C9.39474 8.14886 9.36842 8.17403 9.3421 8.17403L8.10526 7.24268C7.92105 7.09165 7.63158 7.11682 7.44737 7.26785L6.05263 8.60195C5.86842 8.77815 5.86842 9.02986 6.02632 9.23124L7 10.364C7 10.3891 6.97368 10.4143 6.97368 10.4395L5.44737 10.5905C5.21053 10.6157 5 10.817 5 11.0436V12.9063C5 13.158 5.18421 13.3342 5.44737 13.3594L6.97368 13.5104C6.97368 13.5356 7 13.5608 7 13.5859L6.02632 14.769C5.86842 14.9452 5.89474 15.2221 6.05263 15.3983L7.44737 16.7324C7.63158 16.9086 7.89474 16.9086 8.10526 16.7576L9.28947 15.8262C9.31579 15.8262 9.3421 15.8514 9.36842 15.8514L9.52632 17.3113C9.55263 17.5379 9.76316 17.7392 10 17.7392H11.9474C12.2105 17.7392 12.3947 17.563 12.4211 17.3113L12.5789 15.8514C12.6053 15.8514 12.6316 15.8262 12.6579 15.8262L13.8421 16.7576C14.0263 16.9086 14.3158 16.8834 14.5 16.7324L15.8947 15.3983C16.0789 15.2221 16.0789 14.9704 15.9211 14.769L14.9474 13.6363C14.9474 13.6111 14.9737 13.5859 14.9737 13.5608L16.5 13.4097C16.7368 13.3846 16.9474 13.1832 16.9474 12.9566V11.0939C17 10.817 16.7895 10.6157 16.5526 10.5905ZM16.0263 12.5035L14.6316 12.6294C14.4474 12.6546 14.2632 12.7804 14.2105 12.9566C14.1579 13.1328 14.0789 13.2839 14 13.4601C13.9211 13.6363 13.9211 13.8125 14.0526 13.9635L14.9474 14.9955L14.1579 15.7507L13.0789 14.8949C12.9211 14.769 12.7105 14.769 12.5526 14.8445C12.3684 14.92 12.2105 14.9955 12.0263 15.0459C11.8421 15.0962 11.7105 15.2473 11.6842 15.4486L11.5263 16.8079H10.4737L10.3421 15.4738C10.3158 15.2976 10.1842 15.1214 10 15.0711C9.81579 15.0207 9.65789 14.9452 9.47368 14.8697C9.28947 14.7942 9.07895 14.7942 8.94737 14.92L7.8421 15.7507L7.07895 15.0207L7.97368 13.9887C8.10526 13.8376 8.13158 13.6363 8.02632 13.4852C7.94737 13.309 7.86842 13.158 7.81579 12.9818C7.76316 12.8056 7.60526 12.6797 7.39474 12.6546L5.97368 12.5035V11.4967L7.36842 11.3708C7.55263 11.3457 7.73684 11.2198 7.78947 11.0436C7.8421 10.8674 7.92105 10.7164 8 10.5402C8.07895 10.364 8.07895 10.1626 7.94737 10.0367L7.07895 8.97952L7.8421 8.24954L8.92105 9.10538C9.07895 9.23124 9.28947 9.23124 9.44737 9.15572C9.63158 9.08021 9.78947 9.00469 9.97368 8.95435C10.1579 8.90401 10.2895 8.75298 10.3158 8.5516L10.4474 7.21751H11.5263L11.6579 8.5516C11.6842 8.7278 11.8158 8.90401 12 8.95435C12.1842 9.00469 12.3421 9.08021 12.5263 9.15572C12.7105 9.23124 12.9211 9.23124 13.0526 9.10538L14.1316 8.24954L14.8947 8.97952L14 10.0116C13.8684 10.1626 13.8684 10.364 13.9474 10.515C14.0263 10.6912 14.1053 10.8422 14.1579 11.0184C14.2105 11.1946 14.3684 11.3205 14.5789 11.3457L15.9737 11.4715V12.5035H16.0263Z" fill="currentColor"/>
<path d="M12.5 1L11.75 1.71739L11 2.43478L12.5 3.86957" stroke="currentColor"/>
<path d="M10 23L10.75 22.2826L11.5 21.5652L10 20.1304" stroke="currentColor"/>
<path d="M11 21.5652C5.47715 21.5652 1 17.2828 1 12C1 8.66078 2.78889 5.72119 5.5 4.01023M11 2.43481C16.5228 2.43481 21 6.71731 21 12C21 15.5405 18.989 18.6317 16 20.2856" stroke="currentColor"/>
</svg>
