<svg width="40" height="40" viewBox="0 0 40 40" fill="none" xmlns="http://www.w3.org/2000/svg">
<path d="M34.0824 5.9C30.387 2.1 25.2934 0 20 0C14.7066 0 9.61298 2.1 5.9176 5.9C-1.97253 13.7 -1.97253 26.3 5.9176 34.1C9.61298 37.9 14.7066 40 20 40C25.2934 40 30.387 37.9 34.0824 34.1C41.9725 26.3 41.9725 13.7 34.0824 5.9ZM32.8839 32.9C29.588 36.2 25.1935 38.1 20.4994 38.2C20.9988 37.8 21.598 37.4 22.0974 36.9L27.8901 31.1C29.7878 29.2 30.9863 26.9 31.4856 24.3L29.7878 24C29.3883 26.2 28.2896 28.3 26.6916 29.9L20.8989 35.7C20 36.6 18.9014 37.3 17.8027 37.9L17.9026 38.1C16.6042 38 15.4057 37.7 14.2072 37.3C16.6042 37.2 19.0012 36.2 20.799 34.4L21.7978 33.4L20.5993 32.2L19.6005 33.2C16.3046 36.5 11.0112 36.5 7.71536 33.2L6.91635 32.4C3.62047 29.1 3.62047 23.8 6.91635 20.5L11.4107 16C12.809 14.6 14.8065 13.7 16.804 13.5L16.7041 11.8C14.2072 12 11.9101 13 10.2122 14.8L5.71785 19.3C3.9201 21.1 2.92135 23.5 2.82147 25.9C2.42197 24.8 2.12235 23.6 2.02247 22.4C2.52185 21.2 3.32085 20.1 4.3196 19.2L10.1124 13.4C14.407 9.1 21.3983 9.1 25.6929 13.4L26.6916 14.4C28.4894 16.2 29.588 18.6 29.8876 21.1L31.5855 20.9C31.2859 18 29.9875 15.2 27.8901 13.1L26.8914 12.1C21.8976 7.1 13.8077 7.1 8.81398 12.1L3.02122 17.9C2.52185 18.4 2.12235 18.9 1.72285 19.4C1.82272 14.9 3.62047 10.4 7.01623 7C10.5119 3.5 15.0062 1.6 19.9001 1.6C24.794 1.6 29.3883 3.5 32.784 7C40.0749 14.2 40.0749 25.8 32.8839 32.9Z" fill="currentColor"/>
<path d="M24.4946 14.7C23.1962 13.4 21.4983 12.4 19.6007 12L19.2012 13.7C20.6993 14.1 22.0976 14.8 23.1962 15.9L23.9952 16.7C25.5932 18.3 26.4921 20.4 26.4921 22.7C26.4921 25 25.5932 27.1 23.9952 28.7L22.5969 30.1L23.7954 31.3L25.1937 29.9C27.0913 28 28.1899 25.4 28.1899 22.7C28.1899 20 27.0913 17.4 25.1937 15.5L24.4946 14.7Z" fill="currentColor"/>
<path d="M22.6965 17.8996L22.1971 17.3996C19.3007 14.4996 14.5067 14.4996 11.5104 17.3996L8.31444 20.5996C7.21581 21.6996 6.51669 22.9996 6.21706 24.4996L7.91494 24.7996C8.11469 23.6996 8.71394 22.5996 9.51294 21.7996L12.7089 18.5996C15.0061 16.2996 18.7015 16.2996 20.9986 18.5996L21.498 19.0996C23.7951 21.3996 23.7951 25.0996 21.498 27.3996L18.302 30.5996C16.0048 32.8996 12.3094 32.8996 10.0123 30.5996L9.41307 29.9996C8.61407 29.1996 8.11469 28.2996 7.81507 27.1996L6.11719 27.5996C6.41681 28.9996 7.11594 30.1996 8.11469 31.1996L8.61407 31.6996C10.1122 33.1996 12.0098 33.8996 13.9074 33.8996C15.8051 33.8996 17.8026 33.1996 19.2008 31.6996L22.3968 28.4996C25.5928 25.5996 25.5928 20.7996 22.6965 17.8996Z" fill="currentColor"/>
<path d="M11.111 29.1996C12.1098 30.1996 13.3083 30.5996 14.6067 30.5996C15.905 30.5996 17.1035 30.0996 18.1023 29.1996L20.0998 27.1996C21.9974 25.2996 21.9974 22.0996 20.0998 20.1996L19.8002 19.8996C17.9025 17.9996 14.7065 17.9996 12.8089 19.8996L10.8114 21.8996C8.91378 23.7996 8.91378 26.9996 10.8114 28.8996L11.111 29.1996ZM12.0099 23.0996L14.0074 21.0996C14.6067 20.4996 15.5055 20.1996 16.3045 20.1996C17.1035 20.1996 18.0024 20.4996 18.6017 21.0996L18.9013 21.3996C20.1997 22.6996 20.1997 24.6996 18.9013 25.9996L16.9038 27.9996C15.6054 29.2996 13.6079 29.2996 12.3095 27.9996L12.0099 27.6996C10.7115 26.3996 10.7115 24.2996 12.0099 23.0996Z" fill="currentColor"/>
<path d="M13.5081 26.5996C14.0075 27.0996 14.6068 27.2996 15.206 27.2996C15.8053 27.2996 16.4045 27.0996 16.9039 26.5996L17.603 25.8996C18.0025 25.4996 18.3021 24.8996 18.3021 24.1996C18.3021 23.5996 18.1024 22.9996 17.603 22.4996L17.5031 22.3996C16.6043 21.4996 15.1061 21.4996 14.2073 22.3996L13.5081 23.0996C12.6093 23.9996 12.6093 25.4996 13.5081 26.3996V26.5996ZM14.6068 24.3996L15.3059 23.6996C15.4058 23.5996 15.6055 23.4996 15.7054 23.4996C15.9051 23.4996 16.005 23.5996 16.1049 23.6996L16.2048 23.7996C16.3046 23.8996 16.4045 24.0996 16.4045 24.1996C16.4045 24.3996 16.3046 24.4996 16.2048 24.5996L15.5056 25.2996C15.3059 25.4996 14.9064 25.4996 14.6068 25.2996L14.5069 25.1996C14.3071 25.0996 14.3071 24.5996 14.6068 24.3996Z" fill="currentColor"/>
</svg>
