<svg width="32" height="33" viewBox="0 0 32 33" fill="none" xmlns="http://www.w3.org/2000/svg">
<path d="M27.3054 4.69605C21.0778 -1.5315 10.9222 -1.5315 4.69461 4.69605C1.62874 7.66611 0 11.6901 0 16.0014C0 20.3128 1.62874 24.3368 4.69461 27.3068C7.76048 30.2769 11.6886 32.0014 16 32.0014C20.3114 32.0014 24.2395 30.3727 27.3054 27.3068C30.3713 24.241 32 20.3128 32 16.0014C32 11.6901 30.2754 7.66611 27.3054 4.69605ZM26.3473 26.3487C23.6647 29.0314 20.1198 30.5643 16.3832 30.6601C16.8623 30.3727 17.2455 29.9895 17.6287 29.6062L22.2275 25.0074C23.7605 23.4745 24.7186 21.6541 25.1018 19.5463L23.7605 19.3547C23.4731 21.1751 22.6108 22.8038 21.2695 24.0493L16.6707 28.6481C15.9042 29.4146 15.1377 29.9895 14.1796 30.3727L14.2754 30.5643C13.2216 30.4685 12.1677 30.1811 11.2096 29.8937C13.1257 29.7978 15.1377 29.0314 16.5749 27.4984L17.3413 26.732L16.3832 25.7739L15.6168 26.5404C12.9341 29.223 8.71856 29.223 6.03593 26.5404L5.46108 25.8697C2.77844 23.1871 2.77844 18.9715 5.46108 16.2889L9.1018 12.6481C10.2515 11.4984 11.7844 10.8278 13.4132 10.6362L13.3174 9.29485C11.4012 9.39066 9.48503 10.2529 8.14371 11.6901L4.50299 15.3308C2.97006 16.8637 2.20359 18.7799 2.10778 20.696C1.82036 19.738 1.53293 18.7799 1.43713 17.726L1.53293 17.8218C2.01198 16.8637 2.58683 16.0014 3.35329 15.235L7.9521 10.6362C9.58084 9.00743 11.8802 8.04934 14.1796 8.04934C16.479 8.04934 18.7784 9.00743 20.4072 10.6362L21.1737 11.4026C22.6108 12.8398 23.5689 14.7559 23.7605 16.7679L25.1018 16.6721C25.006 14.3727 23.9521 12.1691 22.2275 10.5404L21.4611 9.77389C19.5449 7.85773 16.9581 6.80383 14.2754 6.80383C11.5928 6.80383 9.00599 7.85773 7.08982 9.77389L2.49102 14.3727C2.10778 14.7559 1.72455 15.235 1.43713 15.714C1.53293 11.9775 3.06587 8.43258 5.7485 5.74994C8.62275 2.87569 12.3593 1.43856 16.0958 1.43856C19.8323 1.43856 23.5689 2.87569 26.4431 5.74994C29.2216 8.52838 30.7545 12.1691 30.7545 16.0972C30.6587 19.9296 29.1257 23.5703 26.3473 26.3487Z" fill="currentColor"/>
<path d="M19.5447 11.7846C18.4908 10.7308 17.1495 9.96429 15.6165 9.58105L15.3291 10.9224C16.5746 11.2098 17.6285 11.8805 18.5866 12.7427L19.1614 13.3176C21.8441 16.0002 21.8441 20.2158 19.1614 22.8984L18.0117 24.0481L18.9698 25.0062L20.1195 23.8565C23.2812 20.6948 23.2812 15.5212 20.1195 12.3595L19.5447 11.7846Z" fill="currentColor"/>
<path d="M19.928 18.5872C19.928 16.9584 19.2574 15.4255 18.2035 14.2758L17.7244 13.7967C15.3292 11.4973 11.4969 11.4973 9.1975 13.8926L6.61068 16.4794C5.7484 17.3417 5.17355 18.3955 4.98193 19.5452L6.32325 19.8327C6.51487 18.8746 6.99391 18.1081 7.56876 17.4375L10.1556 14.8506C11.9759 13.0303 14.946 13.0303 16.7664 14.8506L17.2454 15.3297C18.1077 16.192 18.5867 17.4375 18.5867 18.683C18.5867 19.9285 18.1077 21.0782 17.2454 22.0363L14.6586 24.6231C13.7963 25.4854 12.5508 25.9644 11.3053 25.9644C10.0598 25.9644 8.91008 25.4854 7.95199 24.6231L7.47295 24.144C6.8981 23.5692 6.41906 22.7069 6.22744 21.8446L4.98193 22.0363C5.26936 23.0902 5.7484 24.144 6.61068 24.9105L7.08972 25.3896C8.23942 26.5393 9.77235 27.1141 11.4011 27.1141C13.0298 27.1141 14.5628 26.4434 15.7125 25.3896L18.2993 22.8027C19.2574 21.653 19.928 20.1201 19.928 18.5872Z" fill="currentColor"/>
<path d="M8.91027 23.3776C9.67674 24.1441 10.7306 24.5273 11.6887 24.5273C12.7426 24.5273 13.7007 24.1441 14.4672 23.3776L16.0959 21.7489C17.6288 20.216 17.6288 17.7249 16.0959 16.192L15.8085 15.9046C15.042 15.1381 14.0839 14.7549 13.03 14.7549C11.9761 14.7549 11.0181 15.1381 10.2516 15.9046L8.62284 17.5333C7.85638 18.2998 7.47314 19.2579 7.47314 20.3118C7.47314 21.3657 7.85638 22.3237 8.62284 23.0902L8.91027 23.3776ZM9.58093 18.3956L11.2097 16.7669C11.6887 16.2878 12.3594 16.0004 13.03 16.0004C13.7007 16.0004 14.3713 16.2878 14.8504 16.7669L15.1378 17.0543C15.6169 17.5333 15.9043 18.204 15.9043 18.8746C15.9043 19.5453 15.6169 20.216 15.1378 20.695L13.5091 22.3237C12.551 23.2818 10.8264 23.2818 9.86835 22.3237L9.58093 22.1321C9.10189 21.6531 8.81446 20.9824 8.81446 20.3118C8.81446 19.5453 9.10189 18.9705 9.58093 18.3956Z" fill="currentColor"/>
<path d="M10.8264 21.2699C11.2097 21.6532 11.6887 21.8448 12.1677 21.8448C12.6468 21.8448 13.1258 21.6532 13.5091 21.2699L14.0839 20.6951C14.8504 19.9286 14.8504 18.7789 14.0839 18.0125L13.9881 17.9166C13.2216 17.1502 12.0719 17.1502 11.3055 17.9166L10.7306 18.4915C9.96414 19.258 9.96414 20.4077 10.7306 21.1741L10.8264 21.2699ZM11.5929 19.4496L12.1677 18.8747C12.2635 18.7789 12.3594 18.6831 12.551 18.6831C12.6468 18.6831 12.8384 18.7789 12.9342 18.8747L13.03 18.9705C13.1258 19.0663 13.2216 19.1622 13.2216 19.3538C13.2216 19.4496 13.1258 19.6412 13.03 19.737L12.4552 20.3119C12.2635 20.5035 11.8803 20.5035 11.6887 20.3119L11.5929 20.216C11.4971 20.1202 11.4971 20.0244 11.4971 19.8328C11.4971 19.737 11.4971 19.6412 11.5929 19.4496Z" fill="currentColor"/>
</svg>
