<svg width="245" height="84" viewBox="0 0 245 84" fill="none" xmlns="http://www.w3.org/2000/svg">
<path d="M55.5383 15.9968V15.9275V15.8583V15.789V15.7198C55.5383 15.7198 55.5383 15.6505 55.4691 15.6505C55.4691 15.6505 55.4691 15.5813 55.3998 15.5813L55.3306 15.512L55.2613 15.4428L55.1921 15.3735L55.1228 15.3043C55.1228 15.3043 55.0536 15.3043 55.0536 15.235C55.0536 15.235 54.9843 15.235 54.9843 15.1658H54.9151H54.8458H54.7766H54.7073C54.7073 15.1658 54.7073 15.1658 54.6381 15.1658C54.2226 15.1658 53.9456 15.4428 53.8071 15.7198C53.8071 15.7198 53.8071 15.7198 53.8071 15.789C53.8071 15.8583 53.8071 15.8583 53.7378 15.9275V15.9968V16.066C53.6686 18.3513 53.5993 20.9135 53.4608 23.545C52.3528 37.2565 47.9208 47.5054 40.5804 53.4609C34.0709 58.7239 27.4922 58.7931 27.4229 58.7931C27.2152 58.7931 27.0074 58.7931 26.8689 58.7931C32.9629 47.3669 36.9101 34.4172 36.9101 26.1073C36.9101 23.6143 36.4946 21.606 35.7329 20.1518C34.8326 18.4898 33.3784 17.5895 31.5779 17.5895C27.4922 17.5895 24.0297 20.5673 21.4674 26.2457C19.3207 31.024 18.1434 37.2565 18.1434 43.3504C18.1434 51.7297 20.2902 57.6851 24.0297 59.8319C17.6587 71.2581 9.21022 80.6068 0.969493 80.6068C0.415495 80.6068 0 81.0223 0 81.5763C0 82.1303 0.415495 82.5458 0.969493 82.5458C10.0412 82.5458 19.1129 72.6431 25.8302 60.5244C26.3149 60.6629 26.8689 60.7322 27.3537 60.7322C27.6307 60.7322 34.6249 60.6629 41.6191 55.0537C46.6744 51.0372 49.9291 45.5664 52.0758 39.611C50.3446 54.6382 46.8129 69.2499 40.0956 72.4354C36.8409 73.9589 34.2094 71.9506 34.1401 71.8121C33.7247 71.4659 33.1014 71.5351 32.7552 71.9506C32.4089 72.3661 32.4782 72.9894 32.8937 73.3356C33.0322 73.4049 34.9019 74.9284 37.6026 74.9284C38.5721 74.9284 39.6801 74.7206 40.8574 74.2359C48.8211 70.5656 53.8071 53.1839 55.3306 23.822C55.4691 20.9828 55.5383 18.4205 55.5383 15.9968ZM24.7914 57.9622C21.2597 55.8154 19.9439 49.0982 19.9439 43.2119C19.9439 37.395 21.1212 31.4395 23.1294 26.9382C24.6529 23.545 27.3537 19.4593 31.4394 19.4593C32.5474 19.4593 33.3091 19.944 33.8631 20.9828C34.4864 22.0907 34.7634 23.822 34.7634 25.9687C34.7634 33.9325 30.7469 46.7437 24.7914 57.9622Z" fill="#847D9E"/>
<path d="M107.476 49.8598C106.991 49.7906 106.506 50.1368 106.437 50.6216C106.299 51.1756 106.16 51.7988 106.022 52.3528C105.468 53.7378 104.083 55.8153 100.482 57.3388C100.066 57.5465 99.235 57.8235 98.8888 57.4773C97.573 56.2308 99.235 49.0981 101.451 43.2118C101.659 42.7271 101.382 42.1731 100.897 41.9654C100.412 41.7576 99.8583 42.0346 99.6505 42.5193C99.3735 43.2811 98.681 45.1508 97.9885 47.2976C97.9193 47.4361 97.85 47.5053 97.7808 47.7131C95.7725 56.9233 91.5483 61.1475 91.5483 61.1475C90.8558 61.84 89.8863 62.6018 89.0553 62.394C87.3241 61.9785 86.0776 57.7543 85.3158 54.9843C84.4848 52.0066 84.0001 50.3446 82.6151 50.4831C82.2688 50.5523 82.0611 50.4831 81.9918 50.4831C81.8533 50.4831 81.5071 50.3446 81.0916 50.6216C80.7453 50.8986 80.6761 51.2448 80.6761 51.4526C80.6761 51.5911 80.6068 52.0758 80.0528 53.3223C79.6373 54.2226 79.2218 55.192 78.7371 56.3C77.1444 59.901 73.4741 68.4188 71.9506 68.488C71.8814 68.488 71.7429 68.488 71.4659 68.211C69.5961 66.272 69.1114 57.5465 69.2499 52.4913C69.2499 52.2143 69.1114 51.9373 68.9036 51.7296C69.1114 47.4361 68.6959 43.0041 66.4106 40.7881C65.2334 39.5416 63.5714 39.0568 61.6324 39.3338C56.6464 39.9571 53.0454 45.2893 51.6604 54.0148C50.4832 61.84 51.4527 71.3273 55.0537 72.9892C55.8847 73.4047 56.7157 73.5433 57.5467 73.5433C58.4469 73.5433 59.3472 73.3355 60.1782 72.8508C63.8484 70.8425 66.2029 64.8178 67.3801 60.455C67.7264 64.1253 68.4189 68.0033 69.9424 69.596C70.6349 70.2885 71.3274 70.427 71.8121 70.427C74.3744 70.427 76.8673 65.164 80.3298 57.0618C80.8146 56.0231 81.2301 54.9843 81.5763 54.1533C81.9226 53.4608 82.0611 52.9068 82.1996 52.5606C82.4766 53.1146 82.8921 54.4996 83.1691 55.5383C84.2078 59.1393 85.4543 63.5713 88.2936 64.333C89.6786 64.6793 91.1328 64.1253 92.6563 62.6018C92.7948 62.4633 94.5261 60.732 96.3958 57.0618C96.5343 57.8235 96.8113 58.5161 97.296 58.9315C97.9193 59.4855 99.0273 60.0395 100.966 59.2085C102.49 58.5853 103.667 57.8235 104.637 56.9925C102.767 64.7485 100.759 71.4657 99.0965 76.0362C95.7033 78.183 94.1106 81.0222 94.3183 82.5457C94.3876 83.446 95.08 84 95.9803 84C95.9803 84 95.9803 84 96.0495 84C97.2268 84 98.6118 82.9612 100.759 77.352C102.213 76.521 103.875 75.8977 105.606 75.5515C106.16 75.4822 106.506 74.9282 106.368 74.4435C106.299 73.8895 105.745 73.5432 105.26 73.6817C103.944 73.9587 102.767 74.305 101.728 74.7205C102.421 72.7122 103.182 70.2193 104.013 67.1723C105.606 61.4938 106.991 55.8153 107.684 52.9761C108.099 51.7988 108.168 50.9678 108.168 50.8986C108.376 50.3446 107.961 49.9291 107.476 49.8598ZM66.6876 56.1616C66.1336 59.9703 63.5714 68.9728 59.6242 71.1195C58.5162 71.7428 57.4082 71.7427 56.2309 71.1887C54.1534 70.2193 52.6299 62.4633 53.9457 54.2226C55.1229 46.5358 58.2392 41.6883 62.1864 41.1343C62.3942 41.1343 62.6712 41.0651 62.8789 41.0651C63.8484 41.0651 64.6794 41.4114 65.3026 42.0346C67.1724 44.0428 67.6571 49.1673 66.6876 56.1616ZM96.6728 81.7147C96.8113 81.2992 97.1575 80.676 97.7808 79.9142C97.3653 80.7452 97.019 81.3685 96.6728 81.7147Z" fill="#847D9E"/>
<path d="M152.419 25.2069C152.627 15.1657 151.449 10.3182 147.848 6.02473C147.641 5.81698 147.433 5.47073 147.156 5.12448C145.563 3.11624 143.209 0.0692498 140.854 0C138.223 0 135.73 1.03875 133.583 3.18549C126.381 10.3875 124.026 27.9769 124.096 34.9019C124.096 37.4641 124.373 44.4584 124.58 51.5218C124.927 60.3166 125.273 69.1805 125.273 69.319C125.273 69.873 125.758 70.2193 126.242 70.2193C126.242 70.2193 126.242 70.2193 126.312 70.2193C126.866 70.2193 127.281 69.7345 127.212 69.1805C127.212 69.042 126.866 60.8013 126.589 52.2836C141.893 51.0371 152.28 35.3174 152.419 25.2069ZM126.035 34.8326C125.965 27.4229 128.528 10.8722 134.968 4.50124C136.699 2.76999 138.707 1.86974 140.785 1.86974H140.854C142.239 1.86974 144.524 4.84749 145.632 6.23248C145.909 6.57873 146.186 6.92497 146.394 7.20197C149.718 11.1492 150.688 15.5119 150.48 25.1377C150.341 34.6941 140.231 49.0981 126.519 50.4138C126.242 43.7659 126.035 37.2564 126.035 34.8326Z" fill="#847D9E"/>
<path d="M244.106 69.1112C244.036 68.5572 243.552 68.211 242.998 68.2802L242.721 68.3495C241.543 68.5572 241.405 68.5572 240.782 66.7567C240.158 64.887 240.505 52.4913 240.851 44.6661C240.851 44.1813 240.574 43.7658 240.089 43.6966C239.604 43.5581 239.189 43.8351 238.981 44.2506C238.912 44.3891 234.272 54.7765 226.378 60.3165C225.962 60.5935 224.577 61.4938 224.162 61.009C223.746 60.5243 223.677 59.4855 223.746 58.1698C226.031 57.408 228.317 55.746 230.186 53.3223C232.887 49.8598 233.649 45.0123 231.71 43.2811C231.156 42.7963 229.632 41.8961 227.209 44.3198C224.993 46.4666 222.638 52.0758 221.946 56.6463C221.669 56.7155 221.392 56.7155 221.115 56.7155C220.976 56.6463 220.907 56.6463 220.768 56.577C220.284 56.5078 219.799 56.3693 219.383 56.2308C217.306 55.3305 215.782 49.5828 214.813 46.1203C213.843 42.3808 213.428 40.7881 212.043 40.9958C210.866 41.1343 209.758 42.1731 208.927 48.1978C208.096 44.1813 206.572 40.6496 203.871 39.9571C202.902 39.7493 202.002 39.9571 201.171 40.5111C198.955 42.1038 197.57 46.6743 196.669 51.1063C196.115 46.6743 195.146 42.3808 193.484 41.4806C192.861 41.1343 192.099 41.0651 191.406 41.3421C188.775 42.3808 186.697 48.1285 186.282 49.375C184.412 53.7378 180.811 59.7625 178.595 59.4163C177.833 59.2778 176.102 58.1005 174.994 50.2753C178.595 45.6356 183.304 39.0568 186.351 32.2011C190.922 22.0214 190.298 12.4649 187.805 7.89442C187.251 6.85567 186.213 6.09393 184.966 5.95543C183.72 5.74768 182.542 6.16317 181.642 7.06342C177.418 11.2184 170.701 21.7444 172.501 45.0816C172.64 46.8128 172.778 48.3363 172.986 49.7905C170.285 53.1838 168.346 55.2613 168.277 55.3305L168.208 55.3998C168.139 55.5383 165.784 58.4468 161.421 58.4468C157.336 58.4468 154.704 53.8763 154.427 46.328C154.358 45.2201 153.804 44.1813 152.904 43.4888C151.934 42.7963 150.826 42.5886 149.649 42.9348C144.109 44.5968 140.369 48.4055 138.915 54.0148C136.838 61.7708 139.192 64.887 140.785 65.995C141.754 66.6875 142.932 67.0337 144.109 67.0337C145.563 67.0337 147.087 66.549 148.61 65.5795C152.211 63.2943 154.358 59.4163 155.397 57.131C156.92 59.2085 158.928 60.3858 161.352 60.3858C166.477 60.3858 169.246 57.0618 169.662 56.6463C169.939 56.3693 171.324 54.8458 173.332 52.422C174.371 58.1698 175.964 61.0783 178.318 61.4245C182.819 62.1863 187.251 52.2143 188.152 50.206V50.1368C188.983 47.6438 190.783 43.8351 192.168 43.2811C192.376 43.2118 192.445 43.2118 192.584 43.2811C193.969 44.0428 195.215 52.8375 195.423 60.5243C195.423 61.009 195.838 61.4245 196.392 61.4937C196.877 61.4937 197.362 61.0783 197.362 60.5935C197.708 56.2308 199.232 44.5276 202.279 42.3116C202.625 42.0346 202.971 41.9653 203.387 42.0346C206.988 42.9348 208.165 54.084 208.096 60.9398C208.096 61.4938 208.511 61.9093 209.065 61.9093C209.342 61.9093 209.688 61.7707 209.827 61.4937C209.965 61.3552 210.035 61.1475 210.035 60.9398C210.104 52.976 211.004 45.5663 211.974 43.5581C212.251 44.3891 212.597 45.7048 212.943 46.8128C214.19 51.3833 215.644 56.9925 218.622 58.239C219.106 58.4468 219.591 58.5853 220.076 58.6545C220.214 58.7238 220.353 58.793 220.561 58.8623C220.976 58.9315 221.392 58.9315 221.738 58.8623C221.669 60.455 221.946 61.7707 222.638 62.5325C223.261 63.225 224.646 64.1945 227.486 62.1862C232.749 58.516 236.557 52.976 238.704 49.2365C238.496 55.3305 238.219 65.5795 238.912 67.657C239.674 70.0807 240.643 70.704 241.89 70.704C242.236 70.704 242.582 70.6347 242.998 70.5655L243.205 70.4962C243.829 70.15 244.175 69.6652 244.106 69.1112ZM228.663 45.6356C229.355 45.0123 229.909 44.5968 230.325 44.5968C230.394 44.5968 230.533 44.5968 230.533 44.6661C231.364 45.4278 231.156 49.0288 228.801 52.0758C227.416 53.8763 225.754 55.192 224.162 55.9538C224.854 52.2143 226.585 47.6438 228.663 45.6356ZM147.779 63.6405C145.632 64.9562 143.555 65.164 142.101 64.1253C140.092 62.6018 139.608 59.0008 140.923 54.1533C142.239 49.1673 145.425 45.9126 150.341 44.4583C150.48 44.3891 150.688 44.3891 150.826 44.3891C151.172 44.3891 151.588 44.5276 151.865 44.7353C152.28 45.0816 152.557 45.5663 152.557 46.0511C152.696 49.5135 153.319 52.422 154.289 54.638C153.873 56.023 151.865 61.0783 147.779 63.6405ZM174.509 44.6661C172.778 22.0906 179.149 12.1187 183.096 8.17142C183.443 7.82517 183.927 7.61742 184.481 7.61742C184.551 7.61742 184.689 7.61742 184.758 7.61742C185.382 7.68667 185.866 8.03291 186.143 8.58691C188.429 12.7419 188.913 21.6059 184.62 31.2316C181.988 37.1178 178.041 42.9348 174.717 47.3668C174.717 46.4665 174.648 45.5663 174.509 44.6661Z" fill="#847D9E"/>
</svg>
