<svg width="32" height="33" viewBox="0 0 32 33" fill="none" xmlns="http://www.w3.org/2000/svg">
<path d="M1.9395 19.9767C2.01935 19.9767 2.08408 19.9119 2.08408 19.8321C2.08408 19.7522 2.01935 19.6875 1.9395 19.6875C1.85965 19.6875 1.79492 19.7522 1.79492 19.8321C1.79492 19.9119 1.85965 19.9767 1.9395 19.9767Z" fill="currentColor"/>
<path d="M1.07238 14.4817C1.272 14.4817 1.43383 14.3199 1.43383 14.1202C1.43383 13.9206 1.272 13.7588 1.07238 13.7588C0.872762 13.7588 0.710938 13.9206 0.710938 14.1202C0.710938 14.3199 0.872762 14.4817 1.07238 14.4817Z" fill="currentColor"/>
<path d="M2.66279 9.13221C2.98218 9.13221 3.2411 8.87329 3.2411 8.5539C3.2411 8.23451 2.98218 7.97559 2.66279 7.97559C2.34339 7.97559 2.08447 8.23451 2.08447 8.5539C2.08447 8.87329 2.34339 9.13221 2.66279 9.13221Z" fill="currentColor"/>
<path d="M6.34936 4.86766C6.7486 4.86766 7.07225 4.54401 7.07225 4.14477C7.07225 3.74552 6.7486 3.42188 6.34936 3.42188C5.95011 3.42188 5.62646 3.74552 5.62646 4.14477C5.62646 4.54401 5.95011 4.86766 6.34936 4.86766Z" fill="currentColor"/>
<path d="M11.6263 2.55428C12.1053 2.55428 12.4937 2.1659 12.4937 1.68681C12.4937 1.20772 12.1053 0.819336 11.6263 0.819336C11.1472 0.819336 10.7588 1.20772 10.7588 1.68681C10.7588 2.1659 11.1472 2.55428 11.6263 2.55428Z" fill="currentColor"/>
<path d="M17.3373 2.62668C17.9361 2.62668 18.4216 2.14121 18.4216 1.54235C18.4216 0.943482 17.9361 0.458008 17.3373 0.458008C16.7384 0.458008 16.2529 0.943482 16.2529 1.54235C16.2529 2.14121 16.7384 2.62668 17.3373 2.62668Z" fill="currentColor"/>
<path d="M30.3497 13.1085C30.4295 13.1085 30.4942 13.0438 30.4942 12.9639C30.4942 12.8841 30.4295 12.8193 30.3497 12.8193C30.2698 12.8193 30.2051 12.8841 30.2051 12.9639C30.2051 13.0438 30.2698 13.1085 30.3497 13.1085Z" fill="currentColor"/>
<path d="M31.2169 19.0364C31.4165 19.0364 31.5784 18.8745 31.5784 18.6749C31.5784 18.4753 31.4165 18.3135 31.2169 18.3135C31.0173 18.3135 30.8555 18.4753 30.8555 18.6749C30.8555 18.8745 31.0173 19.0364 31.2169 19.0364Z" fill="currentColor"/>
<path d="M29.6267 24.7465C29.946 24.7465 30.205 24.4876 30.205 24.1682C30.205 23.8488 29.946 23.5898 29.6267 23.5898C29.3073 23.5898 29.0483 23.8488 29.0483 24.1682C29.0483 24.4876 29.3073 24.7465 29.6267 24.7465Z" fill="currentColor"/>
<path d="M25.8674 29.3013C26.2667 29.3013 26.5903 28.9776 26.5903 28.5784C26.5903 28.1791 26.2667 27.8555 25.8674 27.8555C25.4682 27.8555 25.1445 28.1791 25.1445 28.5784C25.1445 28.9776 25.4682 29.3013 25.8674 29.3013Z" fill="currentColor"/>
<path d="M20.6624 31.9761C21.1415 31.9761 21.5299 31.5878 21.5299 31.1087C21.5299 30.6296 21.1415 30.2412 20.6624 30.2412C20.1833 30.2412 19.7949 30.6296 19.7949 31.1087C19.7949 31.5878 20.1833 31.9761 20.6624 31.9761Z" fill="currentColor"/>
<path d="M14.9515 32.2644C15.5504 32.2644 16.0359 31.7789 16.0359 31.18C16.0359 30.5812 15.5504 30.0957 14.9515 30.0957C14.3527 30.0957 13.8672 30.5812 13.8672 31.18C13.8672 31.7789 14.3527 32.2644 14.9515 32.2644Z" fill="currentColor"/>
<path d="M25.2893 14.3373C25.4339 14.8433 25.4339 15.3493 25.5062 15.8554H21.458C21.3857 12.2409 20.3737 9.13246 18.9279 7.25294C19.2893 7.39752 19.6508 7.5421 19.9399 7.68668C20.0845 8.8433 20.6628 9.92764 21.5303 10.7228C22.6146 11.8072 23.9881 12.3855 25.4339 12.3855C26.952 12.3855 28.3255 11.8072 29.3375 10.7228C31.5062 8.55415 31.5062 5.01198 29.3375 2.8433C27.1689 0.674628 23.6267 0.674628 21.458 2.8433C20.5182 3.78306 20.0122 4.93969 19.8676 6.1686C15.7472 4.50595 11.1207 5.44571 7.93994 8.62644C5.40982 11.2288 4.25319 14.9156 4.90379 18.4578L6.205 18.2409C6.13271 17.8794 6.13271 17.518 6.06042 17.1566H10.1086C10.1809 20.771 11.1929 23.8794 12.5664 25.759C12.205 25.6144 11.9158 25.5421 11.5544 25.3975V25.4698C11.4098 24.3132 10.9038 23.2288 9.96403 22.2891C7.79536 20.1204 4.25319 20.1204 2.08451 22.2891C-0.0841609 24.4578 -0.0841609 27.9999 2.08451 30.1686C3.16885 31.2529 4.61463 31.759 5.98813 31.759C7.43391 31.759 8.8074 31.1807 9.89174 30.1686C10.8315 29.2288 11.3375 27.9999 11.4821 26.771C12.7833 27.277 14.1568 27.5662 15.5303 27.5662H15.6026H15.6749C18.4942 27.5662 21.3134 26.4096 23.4098 24.3132C26.0845 21.6385 27.2411 17.7349 26.3737 14.0481L25.2893 14.3373ZM15.8195 6.74692C17.8435 6.74692 20.0122 10.3614 20.1568 15.8554H11.4821C11.6267 10.4337 13.7954 6.74692 15.8195 6.74692ZM22.4701 3.85535C23.2652 2.98788 24.4219 2.62644 25.5062 2.62644C26.5905 2.62644 27.6749 3.06017 28.5423 3.85535C30.205 5.518 30.205 8.1927 28.5423 9.85535C27.7472 10.6505 26.6628 11.0843 25.5062 11.0843C24.3496 11.0843 23.2652 10.6505 22.4701 9.85535C21.6749 9.06017 21.2411 7.97583 21.2411 6.81921C21.2411 5.73487 21.6749 4.65053 22.4701 3.85535ZM8.87969 9.63848C9.96403 8.55415 11.2652 7.75897 12.6387 7.32523C11.1929 9.20475 10.2532 12.3132 10.1086 15.9276H6.06042C6.205 13.5421 7.21704 11.3011 8.87969 9.63848ZM11.4821 17.1566H20.1568C20.0122 22.5782 17.9158 26.1927 15.8917 26.265C15.8195 26.265 15.8195 26.265 15.7472 26.265C13.7231 26.1927 11.6267 22.5782 11.4821 17.1566ZM9.16885 29.2288C7.5062 30.8915 4.8315 30.8915 3.16885 29.2288C1.5062 27.5662 1.5062 24.8915 3.16885 23.2288C3.96403 22.4337 5.12066 21.9999 6.205 21.9999C7.28933 21.9999 8.37367 22.4337 9.24114 23.2288C10.8315 24.8192 10.8315 27.5662 9.16885 29.2288ZM22.6869 23.4457C21.6026 24.5301 20.3014 25.3252 18.9279 25.759C20.3737 23.8794 21.3134 20.771 21.3857 17.1566H25.4339C25.3616 19.5421 24.4219 21.7108 22.6869 23.4457Z" fill="currentColor"/>
<path d="M23.9161 7.10827L23.6992 7.61429H24.3498C24.4944 8.62634 25.145 9.20466 26.0125 9.20466C26.5908 9.20466 27.0245 8.9155 27.3137 8.48176L26.8799 8.19261C26.6631 8.55405 26.4462 8.69863 26.0848 8.69863C25.5064 8.69863 25.0727 8.33718 24.9281 7.61429H26.2293L26.5185 7.10827H24.9281V6.60225H26.2293L26.5185 6.09622H25.0004C25.145 5.37333 25.5787 5.01188 26.1571 5.01188C26.5185 5.01188 26.8077 5.15646 26.9522 5.51791L27.3137 5.22875C27.0245 4.72273 26.6631 4.50586 26.0125 4.50586C25.145 4.50586 24.4944 5.08417 24.3498 6.09622H23.9884L23.6992 6.60225H24.2775V7.10827H23.9161Z" fill="currentColor"/>
<path d="M6.49375 25.8309C5.98773 25.614 5.62628 25.3972 5.62628 24.9634C5.62628 24.6743 5.84315 24.3851 6.2046 24.3851C6.49375 24.3851 6.71062 24.4574 6.92749 24.8911L7.36122 24.602C7.14435 24.2405 6.92749 23.9514 6.49375 23.8791V23.3008H5.91544V23.8791C5.40942 23.9514 4.97568 24.4574 4.97568 25.0357C4.97568 25.7586 5.4817 26.0478 6.06002 26.3369C6.56604 26.4815 6.99978 26.7707 6.99978 27.2044C6.99978 27.4213 6.92749 27.6381 6.8552 27.7104C6.71062 27.855 6.49375 27.9996 6.2046 27.9996C5.62628 27.9996 5.40942 27.5658 5.19255 26.9875L4.68652 27.2767C4.8311 27.9273 5.26484 28.361 5.91544 28.5056V29.0839H6.42146V28.5056C6.71062 28.4333 6.99978 28.2887 7.14436 28.0719C7.36122 27.855 7.5058 27.4936 7.5058 27.1321C7.57809 26.4092 6.99978 26.1201 6.49375 25.8309Z" fill="currentColor"/>
</svg>
