<svg width="40" height="40" viewBox="0 0 40 40" fill="none" xmlns="http://www.w3.org/2000/svg">
<path d="M34.1796 5.81688C26.3234 -1.93896 13.6766 -1.93896 5.82036 5.81688C-1.94012 13.6685 -1.94012 26.3076 5.82036 34.1592C9.7485 38.085 14.8263 40 20 40C25.1737 40 30.2515 38.085 34.1796 34.1592C41.9401 26.3076 41.9401 13.6685 34.1796 5.81688ZM32.9341 32.9144C25.8443 40 14.1557 40 7.06587 32.9144C-0.0239517 25.8288 -0.0239517 14.1472 7.06587 7.06164C10.6108 3.51885 15.3054 1.69958 20 1.69958C24.6946 1.69958 29.3892 3.51885 32.9341 7.06164C40.024 14.1472 40.024 25.7331 32.9341 32.9144Z" fill="currentColor"/>
<path d="M33.3174 24.4888C32.9342 23.3398 32.0719 22.6695 31.1138 22.2865C29.1976 21.712 26.7066 22.7653 25.2695 23.5313C24.9821 22.2865 23.9282 21.4247 22.5869 21.4247H18.6587L18.4671 21.2332C16.8384 19.9885 16.0719 19.6055 12.3354 19.6055H8.79046V21.329H12.2396C15.5929 21.329 15.9761 21.6162 17.3174 22.6695L17.9881 23.1483H22.4911C23.0659 23.1483 23.545 23.627 23.545 24.2015H17.03V25.8293H24.6947L24.8863 25.6378C25.8444 24.9675 28.8144 23.3398 30.539 23.8185C30.8264 23.9143 31.018 24.01 31.2096 24.2015L19.3294 28.6061C18.8503 28.7976 18.4671 29.0848 18.2755 29.3721C18.2755 29.4678 18.1797 29.4678 18.0839 29.5636L8.98208 26.308L8.40723 27.9358L17.6048 31.1913C17.7964 31.2871 17.9881 31.2871 18.1797 31.2871C18.8503 31.2871 19.2336 30.8083 19.521 30.6168C19.7126 30.4253 19.8084 30.3296 19.9042 30.2338L33.509 25.159L33.3174 24.4888Z" fill="currentColor"/>
<path d="M21.4371 20.3711C24.6946 20.3711 27.2814 17.7858 27.2814 14.5303C27.2814 11.2747 24.6946 8.68945 21.4371 8.68945C18.1796 8.68945 15.5928 11.2747 15.5928 14.5303C15.5928 17.7858 18.1796 20.3711 21.4371 20.3711ZM21.4371 10.413C23.7365 10.413 25.5568 12.2322 25.5568 14.5303C25.5568 16.8283 23.7365 18.6476 21.4371 18.6476C19.1377 18.6476 17.3173 16.8283 17.3173 14.5303C17.3173 12.2322 19.1377 10.413 21.4371 10.413Z" fill="currentColor"/>
</svg>
