<svg width="40" height="40" viewBox="0 0 40 40" fill="none" xmlns="http://www.w3.org/2000/svg">
<path d="M34.1071 5.89286C30.3571 2.05357 25.3571 0 20 0C14.6429 0 9.64286 2.05357 5.89286 5.89286C2.05357 9.64286 0 14.6429 0 20C0 25.3571 2.05357 30.3571 5.89286 34.1071C9.64286 37.8571 14.7321 40 20 40C25.3571 40 30.3571 37.9464 34.1071 34.1071C37.8571 30.3571 40 25.2679 40 20C40 14.7321 37.9464 9.64286 34.1071 5.89286ZM33.0357 33.0357C25.8929 40.1786 14.1964 40.1786 7.05357 33.0357C3.57143 29.5536 1.69643 24.9107 1.69643 20C1.69643 15.0893 3.57143 10.4464 7.05357 6.96429C10.625 3.39286 15.3571 1.60714 20.0893 1.60714C24.8214 1.60714 29.4643 3.39286 33.125 6.96429C36.6071 10.4464 38.4821 15.0893 38.4821 20C38.3929 24.9107 36.5179 29.5536 33.0357 33.0357Z" fill="currentColor"/>
<path d="M33.3036 24.4643C32.8572 23.3928 32.1429 22.5893 31.0715 22.3214C29.1072 21.6964 26.6072 22.7678 25.1786 23.5714C24.9107 22.3214 23.8393 21.4285 22.5 21.4285H18.4822L18.2143 21.25C16.6072 20 15.8036 19.6428 12.0536 19.6428H8.83932V21.25H12.2322C15.625 21.25 16.0715 21.5178 17.4107 22.5893L18.125 23.125H22.5893C23.2143 23.125 23.6607 23.6607 23.6607 24.1964V24.2857H17.0536V25.8928H24.7322L24.9107 25.7143C25.8929 25 28.8393 23.3928 30.625 23.9285C30.8929 24.0178 31.1607 24.1964 31.4286 24.375L19.4643 28.8392C18.9286 29.0178 18.6607 29.375 18.3929 29.5535C18.3036 29.6428 18.2143 29.7321 18.2143 29.7321L9.01789 26.4285L8.48218 27.9464L17.6786 31.25C17.8572 31.3393 18.0357 31.3392 18.2143 31.3392C18.8393 31.3392 19.2857 30.8928 19.5536 30.625C19.7322 30.4464 19.8215 30.3571 20 30.2678L33.5715 25.1785L33.3036 24.4643Z" fill="currentColor"/>
<path d="M21.4286 20.2677C24.6429 20.2677 27.2321 17.6784 27.2321 14.4642C27.2321 11.2499 24.6429 8.74988 21.4286 8.74988C18.2143 8.74988 15.625 11.3392 15.625 14.5534C15.625 17.7677 18.2143 20.2677 21.4286 20.2677ZM21.4286 10.357C23.75 10.357 25.625 12.232 25.625 14.5534C25.625 16.8749 23.75 18.7499 21.4286 18.7499C19.1071 18.7499 17.2321 16.8749 17.2321 14.5534C17.2321 12.232 19.1071 10.357 21.4286 10.357Z" fill="currentColor"/>
</svg>
