<svg width="34" height="44" fill="none" xmlns="http://www.w3.org/2000/svg"><path d="M0 0v44h34V0H0zm32.4 1.6v4.3l-5.7 4.9h-7.4C21 8.9 21.1 7.4 21 7c0-2.1-1.9-3.8-4-3.8S13 4.9 13 7c0 .4.1 1.9 1.9 3.8H7.3L1.6 5.9V1.6h30.8zm-15.4 9c-2.4-2-2.4-3.6-2.4-3.6 0-1.2 1.1-2.2 2.4-2.2 1.3 0 2.4 1 2.4 2.3 0-.1 0 1.5-2.4 3.5zm0 2c2.4 1.9 2.4 3.5 2.4 3.5 0 1.2-1.1 2.2-2.4 2.2-1.3 0-2.4-1-2.4-2.3 0 .1 0-1.5 2.4-3.4zM1.6 42.4V8l4.8 4.2.3.2h8.1c-1.8 1.9-1.9 3.4-1.9 3.8 0 2.1 1.9 3.8 4 3.8s4-1.8 4-3.8c0-.4-.1-1.9-1.9-3.8h8.1l.2-.2L32.4 8v34.4H1.6zM11 33H6.5v-1.6H11V33zm-4.5 2.1h8.6v1.6H6.5v-1.6zM17 6.4c-.5 0-.9.4-.9.8 0 .5.4.8.9.8s.9-.4.9-.8c-.1-.4-.5-.8-.9-.8zm0 10.5c.5 0 .9-.4.9-.8 0-.5-.4-.8-.9-.8s-.9.4-.9.8.4.8.9.8z" fill="#35F0DA"/></svg>
