<svg width="35" height="18" viewBox="0 0 35 18" fill="none" xmlns="http://www.w3.org/2000/svg">
<path d="M7.3 11.7004C7.3 11.7004 8.1 9.50039 9.8 9.50039V8.10039C8 8.10039 7.3 5.90039 7.3 5.90039L6.6 6.10039L5.9 6.30039C5.9 6.40039 6.2 7.20039 6.9 8.10039H0V9.50039H7C6.3 10.3004 6 11.2004 6 11.3004L7.3 11.7004Z" fill="currentColor"/>
<path d="M6.7002 0V3.6H8.1002V2.2L15.2002 8.1L8.1002 15.2V14H6.7002V17.5H34.1002V0H6.7002ZM25.6002 8.1L32.8002 2.2V15.2L25.6002 8.1ZM20.3002 10.6L9.3002 1.4H31.5002L20.3002 10.6ZM20.3002 12.4L24.5002 9L31.8002 16.2H9.1002L16.3002 9L20.3002 12.4Z" fill="currentColor"/>
</svg>
