<svg width="13" height="13" viewBox="0 0 13 13" fill="none" xmlns="http://www.w3.org/2000/svg">
<path d="M7.12 5.44C7.12 5.44 7.2 5.36 7.12 5.44V5.44ZM2.88 4.16H0.16V12.8H2.88V4.16ZM3.12 1.52C3.04 0.64 2.48 0 1.52 0C0.64 0 0 0.64 0 1.52C0 2.32 0.56 3.04 1.52 3.04C2.48 2.96 3.12 2.32 3.12 1.52ZM12.8 7.84C12.8 5.2 11.44 4 9.68 4C8.16 4 7.52 4.8 7.2 5.36V4.16H4.4C4.4 4.96 4.4 12.8 4.4 12.8H7.2V8C7.2 7.76 7.2 7.52 7.28 7.28C7.44 6.8 7.92 6.24 8.72 6.24C9.68 6.24 10.08 7.04 10.08 8.16V12.8H12.8V7.84Z" fill="currentColor"/>
</svg>
