<svg width="495" height="475" viewBox="0 0 495 475" fill="none" xmlns="http://www.w3.org/2000/svg">
<path fill-rule="evenodd" clip-rule="evenodd" d="M-35 222.413C-35 76.585 83.678 -42 229.62 -42C375.562 -42 494.24 76.585 494.24 222.413C494.24 368.24 375.562 486.825 229.62 486.825H77.6626L189.042 375.397H229.337C306.14 375.397 370.758 318.106 380.59 242.78C381.504 236.111 381.977 229.311 381.977 222.413C381.977 204.948 378.947 188.117 373.391 172.42C355.723 121.847 312.214 83.7124 259.258 73.1245C250.182 71.2965 240.828 70.2889 231.279 70.1841C230.633 70.176 229.985 70.1719 229.337 70.1719C144.429 70.1719 76.7906 137.84 76.7906 222.785L76.7906 487.297L-35 599L-35 222.413Z" fill="url(#logo-letter)"/>
<defs>
<linearGradient id="logo-letter" x1="374.908" y1="-11.7166" x2="-35" y2="515.36" gradientUnits="userSpaceOnUse">
<stop stop-color="#1E4EC2"/>
<stop offset="1" stop-color="#1257D4" stop-opacity="0.88"/>
</linearGradient>
</defs>
</svg>
