<svg viewBox="0 0 900 430" fill="none" xmlns="http://www.w3.org/2000/svg"><path d="M900 372.43c-.653 1.49-1.698 3.116-3.266 3.793-.783.271-1.698.271-2.481.542-1.437.677-2.221 2.167-3.397 3.251-1.175.948-2.743 1.896-4.049 2.709-1.176.813-2.874 2.438-4.311 1.219.131-2.167 2.221-2.032 2.744-3.793 0-1.219-1.045-1.354-1.045-2.709 2.351-2.167 6.139-3.793 6.792-8.263.261-2.032-1.306-6.231 1.045-6.502 2.743-.271 1.176 2.845 1.437 4.47.13.678.653 1.084 1.045 2.032.522 1.626.522 2.98 2.22 3.387 1.045-.136 2.352-1.084 3.266-.136zm-24.296 9.482c-2.221 1.49-4.311 3.251-6.531 5.012-4.05 3.116-10.973 4.741-15.936 7.315-1.437.813-4.311 2.032-5.748 3.115-3.135 2.439 1.568 4.2 4.18 3.929 2.351-.136 5.225-2.032 7.315-3.387 2.09-1.354 3.788-3.522 6.009-4.741 1.437-.677 3.004-.542 4.31-1.083 1.045-.407 1.699-1.761 2.613-2.303 2.743-1.897 7.054-3.522 7.968-6.502-1.176-.136-3.004-2.032-4.18-1.355zM845.922 267.45c3.135.271 4.702-1.355 4.833-3.928-.392-.136-.261-.542-.915-.407-1.567 1.355-8.359-.271-7.968 2.303.131.813 2.613 1.896 4.05 2.032zm-4.441 7.856c-.653-2.98-4.18-2.709-3.919-5.418.131-1.354 1.829-1.354 1.698-2.709-.131-1.761-4.18-2.438-4.833-3.251-.784-.813-.784-1.896-1.437-2.709-2.221-2.709-7.184-3.658-11.234-5.148-1.306-.541-2.351-1.219-3.657-1.625-1.437-.407-3.004-.542-4.18-1.084-1.698-.677-2.743-1.896-4.18-2.032-1.437-.135-3.396.678-4.572 1.49-1.698 1.084-2.743 3.929-4.441 3.793-1.437-.135-2.874-2.709-3.135-3.793-.131-.948.261-1.761 0-2.573-.392-1.49-4.18-3.929-6.009-3.658-2.09.271-3.004 3.522-1.698 5.69.523.812 1.829 1.219 2.221 2.167.261.813-.131 1.354.13 2.032 1.437 3.115 6.924 2.303 10.581 4.334 1.045.542 1.698 1.626 2.612 2.168.915.542 1.829.542 2.613 1.219s2.351 3.115 2.09 4.741c-.261 1.49-3.658 2.303-3.135 4.47.653 2.709 4.833-.406 6.531-.135 1.698.271 2.613 2.709 4.572 3.386 1.829.677 3.135-.135 5.486.136 2.482-1.491 2.482-4.742 5.225-5.012 1.568-.136 3.919.948 4.833 1.761 1.829 1.625 2.221 4.605 3.788 5.96 1.437 1.219 3.135.542 5.225 1.083 1.568.407 2.874 1.897 3.788.949 1.829-1.761-3.788-5.825-4.963-6.232zm-42.192 107.69c-1.959-.271-3.265-2.032-4.572.542-.391.812-1.567 5.012-1.437 5.96.523 3.251 5.487.948 7.054-.136 2.221-1.49 3.788-4.063 4.311-6.231-1.437-1.354-3.266.271-5.356-.135zm-6.27-255.068c-.522-2.032-1.045-4.2-1.698-6.231-.261-.949-.914-1.761-1.045-2.574-.13-1.355.523-2.574.392-3.793-.522-3.115-4.572-6.367-7.576-6.637-2.09 2.438 1.175 4.605 1.698 6.637.914 3.116-.784 6.231-2.482 7.179-.653.271-1.437.136-2.09.678-.784.677-.914 3.115-2.482 3.792-1.698.813-4.049 0-6.4.542-1.176.271-3.135 2.303-4.18 3.387-.784.948-3.396 2.98-3.266 4.334 0 1.22 1.698 2.032 2.743 3.658.915 1.219 1.829 3.251 3.266 3.115 2.09-.406.392-4.47 2.09-5.553 3.004 1.083 4.31-3.251 6.792-3.251.915 0 1.698 1.219 2.743.948 1.307-.407 1.568-2.574 3.005-3.251 2.873-1.355 6.661-.407 8.49-2.98zm-14.63-23.706c0 1.626 2.352 3.251 3.788 3.658.523-1.49-.391-2.845 1.176-3.251 1.437-.407 3.004 1.354 4.311 1.083.914-.135 1.698-1.76 2.482-2.302.783-.542 1.567-.407 1.959-1.219-.131-2.439-2.221-2.303-4.703-2.71-3.788-.677-7.184-3.928-8.882-3.657 0 .27-.261.27-.131.542.784 1.896 2.09 2.98 1.568 5.012-.392 1.219-1.698 1.896-1.568 2.844zm4.703 180.702c.261.948 2.743 1.084 2.612-.406-.392-1.22-2.612-.813-2.612.406zM776.43 92.031c2.874-1.896-1.176-4.064-3.004-5.012-.653 2.032 1.175 4.335 3.004 5.012zM762.976 280.59c2.09-.271 3.527-2.032 5.225-3.115 1.698-1.084 4.31-.948 4.963-3.251-3.526-1.219-5.616 1.219-7.576 2.303-1.437.812-3.265 1.219-3.265 3.251.261.271.392.406.653.812zm3.265-37.657c-1.436-.813-3.396-.136-5.355-.136-1.829 0-3.788-.812-5.095-.677-1.698.136-3.265 1.761-3.265 3.251 1.045.407 1.306-.406 2.221-.542 4.441-.812 11.233 2.709 11.494-1.896zm-4.571 21.402c.783-.677.391-2.438.522-3.792-1.698-2.032-2.221-5.283-3.657-7.586.914-1.897 4.18-2.168 4.049-4.741-2.874-.542-5.356 2.032-7.446 1.625-.653-.135-1.828-2.167-2.743-2.167-1.828.135-1.567 3.251-2.09 4.876-.392 1.084-1.698 2.303-1.567 3.387.13 1.354 1.698 1.761 2.09 3.386.392 1.897-1.437 4.471.392 5.012 3.526 1.084 1.175-7.721 3.788-8.263 1.306 2.439 3.265 8.941 6.662 8.263zm-5.487 10.837c-.261-1.49-3.918-1.896-4.441-.542.261 1.219 3.788 1.897 4.441.542zm-7.184 2.845c.392 1.354 1.829 1.761 3.135 2.167.261-.271.522-.406.653-.677 0-1.761-2.743-2.98-3.788-1.49zm-6.4-3.929c-1.307.136-3.005-.812-3.527.542.392 1.49 2.22 1.626 4.049 1.626 1.045-1.355 4.18 0 4.964-1.219-.392-2.71-3.397-1.084-5.486-.949zm99.665 53.236c-.783-1.355-1.959-2.303-2.481-3.658-.392-.948-.262-1.896-.523-2.303-.523-.948-2.09-1.083-2.612-2.302-.131-.407 0-1.22-.131-1.761-.392-1.22-.914-1.761-.914-3.251-1.699-2.439-4.311-2.303-5.748-4.471-1.045-1.761-.392-3.657-.653-6.095-.131-1.355-1.306-2.574-1.437-4.199-.13-.949.523-2.032.392-2.845-.392-2.574-2.743-2.167-4.18-3.251.392-3.793-.392-8.128-2.482-10.43-2.09.812-3.004 4.199-3.657 6.637-.262.948-.915 1.761-1.045 2.709-.523 2.709-.523 5.825-1.698 8.399-1.045 2.167-2.743 4.605-4.442 4.47-1.567 0-2.351-1.761-3.526-2.574-.392-.271-1.176-.406-1.699-.677-.653-.407-1.567-1.626-2.743-2.303-1.698-1.084-4.571-2.032-4.441-4.199 0-1.626 1.568-1.897 3.005-2.574.522-.948 0-1.354.13-2.167.261-1.219 1.698-2.032 1.568-3.251-.392-2.574-3.397-.678-4.964-.678-3.004-.135-6.531-2.98-8.491-3.115-.783.677.262 1.355 0 2.574-.914 1.625-2.873.406-4.702.948-2.221.542-3.135 2.98-4.311 4.876-.914 1.22-1.828 3.387-2.743 3.658-2.612.677-3.788-2.845-6.27-3.116-.653 0-2.09.271-2.743.678-1.306.677-3.004 1.896-4.049 2.709-1.306 1.219-1.568 2.98-2.743 4.199-.653.542-2.351 1.354-3.135 1.625-.784.271-1.568-.135-2.221.136-1.567.677-1.306 2.303-2.09 4.335-.653 1.625-3.135 4.334-4.833 5.418-1.567.948-3.396.813-5.486 1.219-2.221.542-4.18 1.896-5.747 2.167-.523.136-1.437-.135-2.09 0-2.613.407-4.834 2.98-7.446 4.335-.784.406-2.612 1.084-3.135 1.761-.392.542-.392 2.167-.653 3.116-.653 1.896-1.698 2.573-1.698 3.928 0 2.032 1.175 2.303.653 3.928-.392 1.084-1.698 1.084-1.959 2.303-.131.677.391 1.625.522 2.709.131.813-.131 1.49 0 2.167.261 1.626 1.176 3.116 1.176 4.606 0 1.219-.653 2.438-.653 3.657-.131 1.49.783 2.98.653 4.064 0 1.49-1.176 3.928-1.96 5.012-.653.948-2.612 1.896-2.612 3.251 0 1.761 1.959 2.167 3.135 3.251 5.617.813 7.707-2.303 11.495-3.386 3.657-1.084 7.315 0 10.972-.407 2.221-1.896 6.009-4.741 9.536-5.418 1.045-.136 2.22.135 3.265 0 4.18-.406 7.707-3.387 13.063-2.574 1.175.136 4.833 1.626 5.878 2.303.914.677 2.743 4.335 3.004 5.147.261 1.084-.914 2.574.523 3.116 1.436.271 2.351-1.49 3.657-2.303 1.176-.677 2.482-.948 3.527-1.49-.523.542-.784 1.355-.653 2.574 1.306.813 1.175 2.303.914 3.657.523 1.219 1.829 1.49 1.959 2.845.131 1.354-1.045 2.032-.914 3.657.392 2.845 3.004 2.845 5.486 3.658 1.176.406 1.568.948 2.482.948 2.09 0 3.135-1.219 4.441-1.084 1.176.136 2.482 1.897 3.788 1.761 1.307 0 3.005-2.032 5.487-3.115 1.698-.678 3.265-.542 4.963-.678 3.005-.406 3.919-3.793 5.748-5.96 1.175-1.49 3.135-2.845 4.702-4.47 1.437-1.626 2.874-3.387 4.441-4.877 1.045-.948 2.352-1.49 3.527-2.302 1.829-1.49 3.527-4.064 4.833-6.231 1.568-2.71 3.527-4.877 4.311-7.044.653-1.897.261-4.199.653-5.96.261-1.491 1.567-2.71 1.176-4.471-.262-.948-1.568-2.302-2.352-3.521zm-111.552-52.829c1.959.271 4.18 1.49 5.747-.136-1.045-2.167-4.441-1.896-6.4-3.115 0-.949.392-1.355-.131-2.032-2.351.271-4.441-1.355-6.4-1.219-.915 0-1.699.812-2.613.948-4.049.542-6.139-2.303-9.144-2.709-2.351-.271-5.094.135-4.963 1.761.13 1.625 5.878 3.928 7.445 4.063 1.306.271 2.743-.135 4.18 0 2.351.271 4.441 1.626 6.923 2.032 1.698.271 3.527.136 5.356.407zm14.76-48.765c-.13-1.49-2.612-5.012-4.18-3.251-1.828 2.167-1.828 4.741-4.18 6.502-.914.677-1.828.677-3.004 1.49-.914.677-1.568 2.167-2.221 3.115-.783.948-1.698 2.032-2.743 2.574-1.045.406-2.482.135-3.265.677-1.437.948-1.045 3.116-2.743 3.658-.784.271-2.09-.813-3.266-.542-3.004.542-2.482 5.96-1.437 8.398.784 1.626 2.221 2.303 2.613 3.658.392 1.219.261 3.386 1.436 4.199.523.406 1.829.135 3.135.542 1.045.271 1.699 1.083 2.482 1.083.915.136 2.09-.542 3.005-.542 2.351 0 3.918 2.168 5.355 2.303 1.437.136 2.613-.948 3.788-.948 1.698-1.625.784-4.335 1.568-6.502.653-1.761 2.612-2.167 3.265-3.657.262-2.032-.392-2.168.131-3.387.522-1.354 3.135-1.354 3.266-2.709 0-.677-1.437-1.761-1.96-2.845-.522-.948-.914-2.302-1.045-3.115-.653-4.47 2.221-4.741 3.266-7.857-.784-1.354-2.482-1.625-3.266-2.844zm-31.219 26.685c-4.441 0-4.441 7.044 0 7.044 4.441.135 4.441-7.044 0-7.044zm-6.4 5.689c.522-1.625 2.351-1.625 2.481-2.844 0-.813-1.828-3.522-2.481-3.658-1.307-.135-1.437 1.626-2.613 1.219-1.175-.135-1.437-1.761-2.22-2.709-.654-.813-1.829-1.219-2.09-2.167-.131-.542.261-1.626.13-2.303-.522-2.709-4.049-4.064-6.008-5.418-1.437-.948-3.005-1.49-4.18-2.168-.784-.541-1.568-1.761-2.613-2.709-.914-.813-2.22-1.354-3.135-2.167-1.698-1.355-2.743-3.928-4.31-4.47-.784-.271-2.09 0-3.135-.136-1.699-.271-2.613-1.761-3.527-.677.261 3.928 4.441 5.418 6.531 8.127.522.678.784 1.626 1.437 2.168.914.948 2.09 1.354 2.743 2.574.784 1.219.784 2.844 1.567 4.199.915 1.49 2.613 2.573 3.527 3.928 1.045 1.626 1.306 3.522 2.221 5.147.653 1.22 1.829 2.168 2.743 3.251 2.743 3.116 5.225 5.825 8.36 8.128 1.306 0 2.743.135 3.527-.406 1.306-1.355.13-4.335 1.045-6.909zm-81.901-44.159a1.037 1.037 0 00-.523.542c-1.045 3.251-1.698 11.107 1.698 11.649 1.698.271 3.396-.948 3.788-2.032 1.568-3.386-3.396-9.753-4.963-10.159zm-98.621 73.825c-.784.677-.653 1.896-1.176 2.573-.522.678-1.567.813-2.09 1.49-.653.813-.784 2.168-1.567 3.251-1.045 1.355-2.874 2.574-4.18 3.251-1.568.813-3.788.678-5.356 2.032-1.045.813-2.09 3.251-2.22 4.741-.262 2.303 1.045 4.606.914 6.773-.131 2.98-3.657 4.741-4.049 8.399-.131 1.625.653 2.844.914 4.334.131 1.084-.131 2.168.131 3.251.522 1.897 2.351 3.522 4.441 3.658.914 0 4.049-.813 4.833-1.219 2.221-1.355 2.743-6.096 4.049-9.212.262-.812 1.045-1.49 1.437-2.302.915-2.439 1.568-5.419 2.743-8.263 1.306-3.251 2.874-6.638 3.005-10.566.522-.948 1.959-1.219 2.22-2.709.131-.542-.392-1.49-.522-2.574-.392-3.386-1.045-7.992-3.527-6.908zm149.303-97.666c-1.699-.271-3.397 3.387-5.748 3.387-1.175 0-2.743-.949-3.004-2.168-.261-1.083.522-2.167.522-3.386 0-2.438-1.698-3.387-3.004-5.012-.522-.677-.653-1.626-1.045-2.168-.784-.948-2.351-1.49-3.266-2.573-.914-.948-1.959-2.303-2.481-3.251-.654-1.355-.915-3.251-1.96-3.387-.914-.135-2.09 1.219-3.135 1.626-1.045.406-3.657.813-4.702.948-3.527.271-6.27-.677-5.878 3.657-.523 1.897-2.482 1.897-3.788 2.845-1.698 1.219-2.874 3.522-4.703 5.418-.914.949-2.09 1.49-3.004 2.303-.653.677-.915 1.897-1.568 2.574-1.828 1.761-4.571 2.032-5.878 4.47-.13 2.98 1.307 5.283 1.045 8.127-.13 1.355-1.045 2.439-1.175 3.793-.131 1.084.392 2.439.13 3.658-.13.677-.914.948-1.437 1.761-.522.677-.653 1.625-1.045 2.167-.522.813-1.567 1.355-2.089 2.032-.915 1.084-1.046 1.896-1.96 2.032-3.788.542-4.702-6.909-6.4-10.024-.784-1.49-2.352-2.709-3.135-4.47-.915-2.032-1.176-4.606-2.482-6.773-1.045-1.897-2.613-3.929-3.266-5.96-.653-1.761-1.175-3.793-1.698-5.69-.653-2.032-1.306-4.47-1.437-6.095-.13-2.303.392-3.793-1.437-4.741-1.698.406-2.351 2.167-4.31 2.167-1.829 0-6.793-3.386-5.356-6.231-1.175-1.761-4.31-2.709-6.531-4.877-1.306-1.219-2.482-4.063-4.833-4.334-.653-.136-1.437.271-2.09.406-1.437.136-4.049-.135-5.747 0-2.09.136-4.703.677-7.315.406-1.699-.135-3.789-.541-5.487-.677-2.22-.271-5.225-.813-6.4-2.032-.784-.677-1.045-3.115-2.482-3.386-1.568-.407-2.482.948-3.919 1.219-3.135.813-5.878-.677-7.968-2.167-1.567-1.084-2.873-1.626-4.049-2.303-2.613-1.897-3.135-7.315-7.054-7.315-1.437 0-3.657.948-3.788 2.574-.13 1.083 1.306 3.251 1.96 4.199 1.959 2.845 5.486 3.928 6.531 7.721.653.271 2.22-.677 3.004.136.653 1.625 0 4.741 1.568 5.418 7.184 1.219 9.274-2.845 12.539-5.689 1.829 1.219 1.307 2.438 1.96 3.793.653 1.49 1.698 2.573 3.004 3.115.914.406 1.959 0 3.266.542.783.271 4.18 3.657 4.31 4.876.131 1.084-2.22 4.606-3.004 5.554-.653.948-1.698 1.355-2.09 2.168-.261.677-.131 1.896-.392 2.302-.261.678-1.829 1.626-2.743 2.574-.914.948-2.09 1.626-3.004 2.303-1.045.813-1.829 2.032-3.005 2.574-2.351.948-4.441.541-6.4 1.761-1.307.812-1.307 2.709-2.743 3.792-1.568 1.084-4.311 1.084-6.532 2.168-1.436.677-2.351 2.032-3.657 2.573-.523.136-1.176 0-1.698.136-1.176.271-2.221 1.219-3.266 1.49-.914.271-1.698.135-2.612.406-2.613.813-5.094 3.658-7.838 2.032-1.306-2.98-1.436-6.773-3.004-9.482-.784-1.355-2.221-1.761-2.743-3.251-.131-1.219 1.306-.813 1.437-1.761-.392-1.896-2.221-2.845-3.266-4.47-.522-.813-.783-1.896-1.437-2.845-2.09-3.115-6.139-4.741-6.923-8.669-.261-1.084 0-1.896-.13-2.709-.392-1.355-1.176-2.709-2.09-3.793-.653-.813-1.96-1.355-2.743-2.574-.523-.812-.653-1.896-1.045-2.709-1.698-3.386-4.18-6.231-6.923-8.669-1.437.271-2.874.271-3.658 1.219.653 2.303 1.829 4.335 3.004 6.231 1.045 1.761 2.613 3.793 3.266 5.689.261.813.261 1.761.523 2.574 1.045 2.845 4.571 3.793 5.224 7.044.523 2.167-.13 3.793.523 5.96s3.657 3.386 4.833 5.418c1.045 1.626 1.045 4.064 1.698 5.554 1.045 2.303 3.919 3.251 6.009 4.877 1.959 1.354 3.265 3.522 4.833 5.012.914.812 2.221 1.083 2.482 2.031.261 1.22-.523 1.626-.653 2.71 1.306 1.49 2.612 4.063 4.833 4.334.914.136 2.09-.812 3.527-1.083.653-.136 1.436.135 2.09 0 .914-.136 1.698-1.084 2.743-1.22 1.828-.406 3.788-.27 6.008-.541 2.09-.271 3.527-2.168 5.225-1.626 1.829 2.032.523 4.335 0 6.231-.13.678-.13 1.355-.392 2.032-.914 3.251-3.396 5.554-4.571 8.399-.392.948-.262 1.896-.654 2.844-1.306 2.845-3.918 5.689-6.008 8.128-1.176 1.354-2.221 2.573-3.527 3.657s-2.743 1.626-4.18 2.709c-2.743 2.168-5.617 5.148-7.576 7.857-.784 1.083-1.176 2.303-1.96 3.251-1.175 1.354-2.873 1.896-3.788 3.251-.783.948-1.175 2.844-2.09 4.605-.914 2.032-3.004 3.387-2.612 6.231.131 1.084 1.045 1.761 1.437 2.845.522 1.897.13 3.522-.131 5.554 1.045 2.438 1.698 5.147 3.527 6.773.261 3.657-.261 7.179 0 10.295.131 1.896.914 3.386.131 5.147-.654 1.626-3.135 4.335-4.703 5.418-1.698 1.084-4.18 1.355-5.878 2.71-1.175.948-2.22 2.573-3.527 3.657-2.09 1.761-4.833 3.386-4.963 5.147-.131 1.084.783 2.574 1.045 3.658.653 2.709 1.306 6.502.13 9.346-1.306 3.116-7.576 2.439-8.36 5.69-.261.948.392 1.761.392 2.844 0 .949-1.175 4.2-1.698 5.148-.784 1.49-2.482 2.167-3.657 3.386-1.437 1.626-2.09 3.928-3.658 5.554-2.09 2.303-4.833 4.741-7.445 6.637-2.352 1.761-6.401 3.522-10.058 3.793-2.09.136-4.311-.542-6.532-.135-.783.135-1.698.948-2.743 1.083-.653.136-1.306-.135-1.959 0-1.045.136-2.09 1.084-3.135 1.084-2.221 0-5.094-2.845-5.225-5.554 0-1.083.914-2.032.914-3.115 0-1.084-1.436-2.574-2.481-4.741-1.045-2.032-1.437-4.335-2.482-5.96-1.045-1.761-2.482-2.574-3.266-3.929-1.567-2.709-1.698-6.095-2.221-9.346-.13-1.084-.914-2.303-1.044-3.658-.131-1.625.13-3.522-.131-4.876-.261-1.084-1.437-2.168-2.09-3.387-1.176-2.302-2.09-5.418-3.135-7.179-.914-1.761-3.004-3.522-3.135-5.418-.131-1.355.131-3.793.392-5.012.13-1.219 1.045-2.303 1.437-3.658.261-.948 0-1.896.13-2.844.915-4.064 5.225-5.554 4.703-10.566-.261-2.167-1.698-3.116-1.96-5.554-.13-1.083.523-2.167.523-3.251 0-1.49-1.306-3.793-1.959-5.147-1.699-3.929-2.874-7.586-5.356-10.566-1.437-1.626-3.135-2.845-4.311-4.335-.914-1.219-2.09-3.522-2.09-4.47 0-1.083.784-1.625 1.045-2.709.392-1.355.392-3.793.915-5.96.261-.948 1.175-3.251 1.045-4.877-.131-1.49-2.351-4.334-4.18-4.876-2.482-.677-4.964.813-7.968.542-2.613-1.761-2.482-6.231-6.27-6.773-4.964-.813-10.058 1.354-13.454 2.844-1.96.949-3.919 2.303-5.748 2.303-1.698.136-3.265-.948-4.833-1.083-2.09-.271-4.702-.001-6.792.406-1.96.406-3.788 1.896-5.487 2.032-3.396.271-6.531-3.116-8.621-4.877-1.306-1.083-2.612-1.896-3.788-2.844-1.306-1.084-3.004-1.626-4.049-2.71-1.306-1.354-1.306-3.792-2.09-5.553-.784-2.168-3.396-3.658-5.356-5.69-1.437-1.49-4.833-3.792-5.225-5.689-.13-.948.392-2.167.392-3.251-.13-1.625-1.175-2.438-1.175-3.657 0-1.626 1.828-2.845 2.22-4.199.262-.678.131-1.626.392-2.574.523-1.761 1.698-2.845 1.437-5.554-.131-1.084-1.045-2.032-1.045-3.386 0-.949.653-1.49.522-2.303-.13-1.49-2.089-1.897-2.22-3.658-.261-1.761 1.698-3.386 2.743-5.418.522-.948.784-2.303 1.176-3.115.914-1.49 2.612-2.303 3.265-3.793.523-1.084.653-2.709 1.176-3.658.653-1.083 1.959-1.625 3.135-3.115 1.045-1.084 1.437-2.574 2.09-3.116.914-.677 2.22-.813 3.135-1.219 3.265-1.49 5.617-3.522 7.053-6.637-.522-2.845.262-4.064 1.437-6.096 1.045-1.896 1.829-3.657 3.658-4.741 2.22-1.219 4.18-1.355 5.747-3.793.784-1.219 1.96-3.251 1.96-4.47 0-1.761-1.699-4.064-3.266-4.335-1.568-.271-3.919 1.219-4.833-.542-.261-.541.13-1.896 0-2.573-.261-1.219-1.176-2.032-1.176-2.845-.13-1.625 1.568-3.386 2.09-5.418.653-2.709 0-4.741-.13-7.721 2.481-3.929 7.837-2.032 13.193-1.626.783 0 1.698-.135 2.612-.135 3.135.135 5.747 1.083 6.792-1.761.392-1.084.784-5.148.523-6.096-.261-1.219-2.613-4.335-3.657-5.012-1.699-1.084-4.18-.677-5.225-2.709.783-3.522 4.571-.542 6.923-1.49 1.175-.406 1.045-2.574 2.09-2.845.653-.27 1.567.678 2.612.678.784 0 3.919-1.626 4.703-2.168 1.045-.812 1.436-2.438 2.481-3.115.653-.407 1.568-.407 2.221-.677 1.437-.678 3.396-2.032 4.311-3.251 1.436-1.761 2.09-3.929 3.788-4.335 2.351-.407 7.576.542 7.968-2.167.392-2.574-2.09-4.47-1.176-7.18.784-2.167 2.613-1.76 5.225-3.115 1.306.948.914 3.657 1.045 5.147 1.568 0 4.833-.542 5.225-2.032.392-1.896-2.351-3.793-3.004-4.876-.654-1.22-.784-3.387-2.09-3.658-2.613-.542-5.225 3.793-8.491 3.793-2.221 0-4.441-1.76-4.964-3.386-.261-.949 0-1.897-.13-2.845-.261-1.49-1.045-2.98-.653-5.012 1.306-2.303 4.441-2.71 6.531-3.928.784-.407 1.437-1.49 2.482-1.761 1.567-.542 3.788 0 5.355-.948.915-.542.653-1.49 1.437-2.71.392-.677 1.437-1.083 2.09-2.031.392-.542.392-1.49.914-2.032 1.568-1.897 4.311-2.71 5.356-4.606.523-.948-.914-1.219-.522-2.574.522-1.219 2.743-.27 3.918-.541 1.698-.271 3.266-2.439 5.225-2.845 1.96-.407 4.05-.136 5.878-.948 1.045-.407 2.09-1.49 3.135-1.626.392 0 1.437.271 1.96.136.653 0 1.436-.407 2.22-.542 1.306-.136 2.874.27 4.572.406 2.743 0 5.356-.813 7.576.136 1.176.541 1.045 1.896 2.613 2.573.783.271 1.828-.135 3.004 0 1.698.136 3.527 1.355 5.747 1.626.784.135 1.568-.136 2.482 0 2.482.27 5.225 1.625 7.576 2.574 2.09.677 6.27 1.625 6.401 3.657.131 2.303-3.788 3.116-5.356 3.116-2.743 0-6.4-1.626-9.143-.678 0 4.064 4.31 7.18 8.098 6.638.392-1.897-2.22-.813-1.959-2.71 1.698-1.354 3.788.949 6.27.542.914-.27.784-1.76 1.045-2.709 2.09-1.354 4.702-3.25 7.837-1.76.131-.272.392-.543.654-.678.261-2.032-2.09-2.98-.915-4.877.653-1.219 3.788-.812 4.311.136.261 1.219-.784 1.084-.653 2.167.653 1.49 2.09 1.626 2.743 1.626 1.698-.136 2.09-1.626 3.657-2.574.653-.406 1.568-.406 2.482-.677 1.045-.407 1.829-1.22 2.612-1.49.523-.136 1.437 0 2.221-.136 1.045-.27 2.09-1.084 3.004-1.084 1.045 0 1.829 1.22 3.135 1.49.784.136 1.568-.406 2.613-.541.914-.136 1.698.135 2.482 0 1.698-.271 2.743-1.22 4.18-1.084.914 0 2.612 1.355 3.265.677 1.176-1.219-1.437-2.031-.653-3.115 2.613.27 5.486.135 8.099.542 3.919.542 7.707 2.573 11.233 2.709-.391-2.438-3.135-1.761-4.31-2.845-.392-.27-1.959-2.98-1.959-3.793 0-.406 1.959-3.928 2.481-4.334 1.568-1.49 6.532-1.49 7.968.541 1.045 1.355.654 3.522 2.09 3.387 1.176 0 1.829-3.116 3.266-3.251 1.176 0 1.829 2.032 3.004 2.032 1.437 0 2.482-2.845 4.311-2.845 1.045 0 1.306.542 3.004.678 1.045-.678-.392-1.626.131-2.71 1.959-1.49 6.4-.406 8.882-1.219.653-.813-.914-1.49-.13-2.303 2.09-1.49 5.747-1.625 9.405-2.302 2.22-.407 4.31-2.032 6.008-2.168 1.829-.135 3.527 1.084 5.225 1.084 1.045 0 2.221-.27 3.135-.677.914-.407 1.698-1.355 2.613-1.626 1.567-.406 3.396.136 5.225 0 1.828-.135 3.526-.948 4.833-.677 1.306.27 2.22 1.625 3.527 1.76 3.657.543 7.445-.541 10.711.407.653.136 1.175.813 1.959 1.084 2.221.813 3.788.542 4.18 3.386 1.698.678 2.743 2.303 4.833 2.845 1.437.406 2.743-.135 4.311-.135 2.09 0 4.702.135 6.4.406 1.045.135 1.829.948 2.743 1.084.653.135 1.568-.136 2.482 0 1.045.135 2.09.541 3.004.541 1.829 0 3.135-1.76 4.703-2.031.784-.136 1.829.27 2.612.406 2.874.27 6.27-.406 8.622.135 1.306.271 3.396 1.761 4.833 2.845 1.045.813 1.698 2.032 2.612 2.71.914.541 3.266 1.625 4.18 1.49 1.045-.136 1.176-1.49 2.221-2.033 3.396-.812 9.535 1.084 12.278-.135 1.045-.542.915-1.626 1.698-2.303 5.225-.27 10.32.271 15.283.407 1.698 0 3.527-.407 5.095-.136 1.698.27 3.004 2.032 4.702 2.71 1.176.405 3.135.135 4.833.541 1.176.27 2.09.948 3.004 1.084 1.829.27 3.658-.271 5.356-.407 3.919-.27 9.144-.542 13.062 1.084 2.09.813 3.005 2.574 5.225 2.845 3.266.406 8.099-.271 11.495 0 .784.135 1.568.406 2.09.406 1.045-.135 1.829-1.084 3.135-1.084 1.698 0 4.441 2.71 6.923 2.303 1.045-.813-.914-1.76.131-2.574.914-.812 2.351 0 3.788 0 .784 0 1.829-.406 2.612-.406 1.96.136 3.658 1.896 6.009 2.574 1.829.406 4.441.677 6.792.406 1.699-.135 3.135-.813 4.703-.542.784.136 1.437.677 2.221.948.783.136 1.436 0 2.09.136.522.135 1.175.677 1.698.948 3.265.948 7.445 1.49 10.972 2.574 1.959.677 4.049 1.896 5.747 2.032.784 0 1.568-.407 2.613-.407 5.225 0 11.364 2.303 10.972 7.315-6.139 1.355-11.233-4.335-17.634-2.71-1.045.272-2.221 1.491-2.09 2.575.261 3.115 7.838 2.844 8.491 5.96-1.307.948-2.613 0-3.658.135-1.567.136-4.18 1.897-5.225 2.845-1.175 1.084-2.22 4.064-3.527 4.335-1.567.27-3.918-1.626-6.269-1.084-.915.135-1.699 1.355-2.482 1.49-1.96.406-4.311-1.084-5.487 1.22.654 1.625.262 3.927 1.568 4.876.784.541 1.959.135 3.004.541 1.176.407 1.829 2.032 3.005 2.845.914.677 1.828.677 2.22 1.626.131 1.354-.522 1.49-.392 2.302.262 1.49 2.482 1.897 2.613 2.845.13 1.355-1.437 1.084-1.698 2.303-.131.813.914 1.083 1.045 2.167.13.677-.523 1.49-.523 2.303.131 1.219 1.045 2.032.915 3.115-.131.949-.915 1.626-1.568 2.032-3.265-2.167-6.27-5.283-9.927-8.127-3.658-2.845-9.405-6.502-10.058-12.598 0-.948 1.959-1.625 2.22-3.115.131-.542-.261-1.355-.13-2.168.13-2.167 1.828-4.199 1.698-5.418-.131-1.355-2.613-3.928-3.788-4.335-1.045.542 0 1.626-.131 2.574-.261 1.084-1.437 2.438-2.612 2.574-3.266.27-3.658-4.335-8.883-3.116-1.306.407-3.265 2.438-2.743 5.012.131.813 2.221 1.626 2.09 2.71-.131 1.083-4.702 1.354-5.747 1.218-2.743-.27-4.18-2.438-6.793-2.302-1.175 0-2.351 1.083-3.265 1.219-5.487 1.083-13.585-2.845-15.414 2.167-.261.677-.131 1.626-.392 2.303-.392 1.083-1.175 1.896-1.437 2.574-.261.541-.13 1.625-.522 2.573-.261.813-3.658 3.793-.653 4.741.653.136 1.045-.27 1.959-.135 1.437.27 3.919 2.709 5.748 2.709 1.044 0 2.481-1.22 3.265-1.22 1.568-.134 2.743.95 4.049 1.626 1.176.542 3.005 1.897 3.788 1.761 1.699-.135.915-1.219 2.482-1.76 3.005.948 4.442 4.199 7.315 6.772 1.045.949 2.613 1.761 4.05 3.116.783.677 3.135 2.71 3.265 3.657.131.813-.653 1.22-.914 2.032-.261 1.084.392 1.897-.392 2.71-2.743-1.084-3.396-3.929-5.356-6.232-.783-.948-1.436-1.896-2.612-3.25-.523-.543-2.351-2.575-3.527-2.168-2.221.813 1.176 4.334 1.698 5.012 1.176 1.625 2.743 3.657 2.743 5.418 0 1.084-.653 2.98-.653 4.877 0 1.219.261 2.302.131 3.386-.131 1.084-.915 2.303-1.176 3.387-.392 1.354-.522 2.844-.914 3.792-.653 1.626-3.005 3.522-4.572 3.658-1.437 0-2.09-1.084-3.527-1.084-2.09.136-2.482 2.167-3.788 3.793.131 1.761.653 2.438.392 3.657-.523 1.897-3.004 2.303-3.004 4.2.13 1.761 2.351 2.031 3.526 2.844 1.568 1.084 4.311 3.387 5.748 5.419.914 1.219 2.351 3.657 2.22 5.012-.13 1.76-5.094 4.199-7.053 3.657-1.96-.677-1.306-2.574-1.698-4.335-.392-1.354-1.437-1.896-1.96-3.115-.261-.542-.13-1.49-.522-2.168-1.045-1.896-2.874-.812-5.095-2.032-1.436-.812-1.044-2.302-1.567-3.792-.784-1.897-3.919-2.845-6.401-2.303-1.828.406-2.481 2.032-4.18 2.303-2.481-1.626.523-5.419-2.612-5.69-2.351-.271-3.919 3.522-5.356 4.741-.914.813-2.612.949-2.743 2.032-.261 2.032 1.96 1.626 3.788 2.303 1.568.677 1.829 2.574 3.266 2.709 1.176.136 2.09-1.354 3.266-1.49 2.09-.135 3.918.813 5.225 1.626-.915 2.167-5.487 3.793-5.487 6.637 0 1.626 1.829 1.897 3.266 3.116 1.176.948 2.743 3.522 4.441 5.418.784.813 1.96 1.355 2.221 1.761.784 1.219.653 2.574 1.567 3.386.131.949-.392 1.22-.392 2.168.392 1.354 2.352 1.083 2.744 2.303-.392 3.115.914 5.96-1.568 7.179-1.176 5.554-2.351 9.888-6.009 13.004-3.265 2.709-7.706 3.522-11.625 4.876-1.045.407-1.829 1.49-2.743 1.761-2.352.813-6.401.271-6.531 3.251-.131 1.49 1.698 2.303 1.959 3.793.261 2.303-1.698 4.47-3.135 4.741-1.045.136-3.135-.677-3.266-2.573-.13-2.168 2.613-2.981 2.743-4.335.392-2.303-1.959-4.47-4.441-4.335-2.351.136-7.445 4.877-7.576 7.586-.131 1.896 3.658 5.96 4.964 7.179 4.833 4.47 10.058 7.179 9.143 18.016-1.175 2.709-4.31 3.387-6.792 4.877-1.829 1.219-2.743 4.741-5.878 5.012-1.306-.407-.523-2.439-.914-3.387-.523-1.354-3.005-1.896-4.442-3.251-1.306-1.084-1.828-2.844-2.743-3.793-1.175-1.219-3.004-1.49-4.572-2.302-.914-.542-1.698-2.439-2.612-2.303-1.568 0-1.045 1.625-1.437 4.063-.392 2.439-2.09 4.471-1.567 7.315.261 1.219 1.698 2.168 2.481 3.387 1.176 2.032 1.307 4.47 2.613 5.554.784.812 2.221.948 3.135 1.625 1.829 1.355 5.094 4.335 5.747 5.96.784 1.897 0 4.064.523 6.096.522 2.303 3.527 3.928 1.698 6.231-1.698-.271-3.135-1.49-4.572-2.303-2.351-1.49-3.527-2.845-4.964-5.418-.391-.678-1.175-1.49-1.436-2.168-.654-1.625-.523-3.386-1.045-5.418-.523-1.625-2.352-4.335-3.789-5.689-1.175-1.219-3.396-1.897-3.526-3.658-.131-2.438.783-5.282.653-8.127 0-.677-.392-1.219-.523-2.032-.13-1.355.131-3.115-.13-4.335-.262-1.083-1.045-2.167-1.568-3.251-.522-1.083-.914-2.031-1.437-3.386-1.567-2.845-2.351-6.773-3.918-7.044zM405.851 64.939c-.131 1.084 2.09 1.762 3.527 1.626 1.045-.135 1.828-.948 3.004-.948 2.09 0 3.396 1.625 4.703 1.625 3.004.136 5.878-2.844 9.013-2.573 1.436.135 2.22 1.219 3.265 1.083 1.698-.135 3.135-2.167 4.311-2.844-.523-2.98 0-7.044 2.743-7.18 1.829-.135 4.702 3.387 4.963 0 .131-1.49-1.436-2.709-2.612-2.709-1.045 0-2.351 2.032-3.135.407 0-1.626 1.829-1.22 2.743-1.626.784-.27 1.306-1.084 2.09-1.49 4.18-1.49 9.797 1.49 11.495-2.167-3.657-3.251-9.927 1.219-13.977.948-1.828-.136-4.049-1.49-4.702-3.251-.131-.542 0-1.355-.131-2.303-.13-1.084-.784-2.303-.653-3.115.131-3.252 7.968-3.793 7.968-7.857-1.437-1.49-5.878-1.22-7.315.406-.522.542-.522 1.761-1.175 2.845-1.568 2.438-6.532 2.71-8.099 5.69-.392.676-.914 2.437-.653 3.657.392 1.76 4.049 2.167 4.18 3.928.261 2.98-4.441 2.574-4.964 5.147-.261 1.22.523 2.71.392 3.793-.392 1.897-2.09 1.355-4.311 2.303-1.175.542-2.22 2.438-3.526 2.574-1.176.135-1.829-.678-2.613-.542-1.176.27-.784 1.625-2.482 2.032-1.567.135-3.788-1.22-4.049.541zm61.524 201.563c-.392-1.626.391-3.658-1.045-4.47h-.523c-1.306 2.98.523 7.856 3.004 8.127.654-1.355-1.045-2.167-1.436-3.657zm14.107 16.797c-.784 1.49-1.568 5.147.392 5.96.784-1.355 1.829-5.012 0-5.96h-.392zm-7.837-35.084c-.523 1.625.261 2.98-.392 4.741.653 1.354 2.351 1.625 4.571 1.49 1.176-.542 1.045-1.49 1.568-2.709.522-1.219 1.959-2.574 1.698-4.064-.522-3.657-6.662-1.896-7.445.542zm8.359-117.714c.131-1.896-.653-3.386-.914-6.095-3.135-2.032-5.617 1.896-8.882 1.49-1.96-.271-3.397-2.709-5.487-2.303-1.175.135-1.698 1.761-3.004 2.032-2.482.406-3.657-2.032-6.27-1.084-3.657-2.98-5.355-7.721-6.27-13.139-1.959-2.709-5.094-.542-6.531 1.219-.914 0-2.09-.542-2.22.542-.654 3.386 4.571 3.657 4.441 5.96 0 1.49-2.09 1.354-3.005 2.303-.914 1.083-.261 2.032-1.567 2.709-3.396.406-4.572-1.49-4.572-4.606-1.437-2.303-3.396-4.064-4.702-5.96-.523-.677-1.176-1.761-1.437-2.845-.131-.812.392-1.896.13-2.844-.392-1.761-3.396-2.98-5.355-3.928-2.09-.949-4.572-2.032-6.009-3.251-1.045-.949-1.567-2.439-2.482-3.116-.783-.542-1.698-.406-2.482-.948-.914-.677-.783-1.897-2.09-2.168-.653-.27-1.698.678-2.09 1.22-.783 3.928 2.221 4.199 3.658 5.96.914 1.219 1.437 2.98 2.482 3.793 1.045.812 2.482.677 3.788 1.219.914.406 1.567 1.625 2.482 2.167 1.698 1.084 4.31 1.219 4.572 3.251-1.045.677-3.397-1.084-4.18.677-.262 1.219.914 1.761.914 2.845 0 1.761-1.959 3.657-3.658 3.386-.13-1.083.915-1.896.915-3.115-.131-2.303-4.572-5.825-6.793-6.773-1.045-.542-2.351-.542-3.265-1.084-1.698-.948-4.703-3.386-5.748-4.876-1.175-1.761-2.351-4.877-4.963-4.741-1.176.135-2.09 1.083-3.005 1.625-.783.407-1.698.813-2.612 1.49-1.045.678-1.829 1.355-2.743 1.49-2.221.136-4.05-1.625-5.878-1.219-.653.136-1.176.677-1.96 1.49 0 1.084.262 1.761.131 2.845-.523.948-2.221.948-3.527 1.625-1.829.949-3.396 2.98-4.833 4.47-.914.949-1.829 1.761-1.959 2.574-.131.542.522 1.761.392 2.574-.131.813-1.699 2.709-2.744 3.386-.653.407-1.436.542-2.089.949-1.307.812-1.96 1.896-3.135 2.167-3.005.542-8.491-.677-8.491 2.709 0 2.167 2.874 2.167 4.702 2.167 2.482-.135 4.572.542 5.879.136.914-.271 1.959-1.355 3.004-1.761.653-.271 1.306-.271 1.698-.542 1.045-.542 1.567-1.354 2.482-1.761 1.567-.813 4.572-1.354 6.27-1.49 2.351-.135 4.833.271 7.837 0 1.045-.135 2.09-.813 3.266-.948 1.828-.136 4.31.813 5.878.677 1.045 0 2.22-1.084 3.527-1.084 1.436 0 2.873 1.084 3.135 2.032.13.542-.262 1.355-.131 2.168.261 1.354 1.306 1.896 1.176 2.709-.131 1.084-2.743 2.574-2.482 3.928.261.813 2.22 1.761 3.135 2.303 1.045.677 2.612 1.49 3.788 1.625 1.045.136 1.829-.27 2.743-.135 1.437.135 3.919 1.084 4.833 1.761 1.567 1.219 1.437 3.116 3.266 3.793.783.271 2.22.135 3.265.406 2.482.542 4.441 2.709 6.27 2.574 2.874-.406 1.568-3.251 1.959-5.148.784-4.605 9.405-4.334 11.103-1.219 1.307.407 2.352 0 3.789.542.783.271 1.436 1.219 2.22 1.49.653.136 1.437-.135 2.221 0 3.265.407 6.27 2.98 9.143 2.574 1.829-.271 3.135-2.032 4.833-2.167 3.266-.271 5.487 2.573 9.014 1.219 2.612-.948 2.089-3.793 3.004-6.638.914-2.438 2.09-3.793 2.22-5.283zm11.234-27.633c-1.829-1.084-3.919-2.032-6.009-3.387-1.175-.812-5.878-2.167-5.878-3.792 0-1.626 3.397-2.303 2.09-5.148-2.351-.542-7.968.407-7.576 3.116.261 1.625 1.959.677 2.482 2.303-1.698.677-3.788 2.302-5.486 2.031-2.09-.406-2.613-3.115-3.788-4.74-1.698 0-2.743-1.626-4.703-1.49-2.09.27-3.135 3.25-4.18 4.876-.522.813-1.437 1.219-1.698 2.032-.13.406 0 1.219-.13 1.761-.654 2.031-2.221 2.709-2.09 4.47.13 1.49 1.828 2.303 1.959 3.657-.131 1.355-2.221.677-2.09 2.303 3.135 2.709 3.266-1.219 4.833-1.761 1.306-.406 3.788.406 5.356 0 1.306-.271 2.351-1.626 3.788-2.167a8.28 8.28 0 013.265-.678c5.486-.271 9.013 3.522 13.846 3.658 1.568 0 4.442 0 6.009-.407 4.572-1.083 2.351-5.283 0-6.637zm35.922 8.263c.391 0 .13-.542.522-.542 1.176-.542 2.874.948 3.396-.542 0-2.167-2.612-3.657-5.225-2.709-.783-.542-.914-1.761-1.045-2.845-1.959-1.219-6.792-3.928-6.792-6.23 0-2.033 2.482-3.116 5.356-3.116 1.175-.949.391-3.793-.654-4.47-4.441-1.084-6.923-.271-9.666 1.76-1.306 1.084-2.873 1.761-3.657 2.303-.653.542-1.698 2.168-1.568 2.845.131 1.084 1.698 1.76 2.221 3.251.261.813.261 1.761.522 2.303.784 1.761 2.743 2.844 4.18 4.334 1.045 1.084 3.919 3.251 4.05 4.471 0 1.083-.915 1.219-1.176 2.302-.392 1.084-.653 3.522-.522 4.471.391 2.031 2.351 2.031 4.179 2.844 1.829.813 3.527 2.303 5.356 2.303 1.959 0 4.049-.542 5.225-1.761.784-6.096-3.919-6.638-4.702-10.972zm15.413-16.797c-2.743.677.131 5.012 2.09 4.741 2.743-.542 0-5.283-2.09-4.741zm9.013-71.928c-.653-.678-2.743-.813-3.657-2.303-1.045-1.761-.915-4.064-3.527-3.658 0 .271 0 .542-.131.542-.261 3.929 5.225 4.877 5.225 8.128 0 1.625-1.698 1.896-1.175 3.793 4.049 1.083 5.878-3.793 3.265-6.503zm33.44 69.219c-.653-1.355-2.482.406-1.698 1.625 1.175.136 1.567-.541 1.698-1.625zm36.313-84.797c-1.959 0-2.612.813-3.788 1.49-.653.406-1.959.542-1.567 1.625 1.698-.27 4.963-1.083 5.355-3.115zm43.759 56.215c-1.959.407-.522 2.574-.653 3.793-.261 1.76-1.959 2.98-1.959 4.876-.653.813-1.829 1.084-1.96 2.574 1.045.813 1.568-.677 2.482-1.49 1.306-1.355 3.396-2.032 3.788-3.657.653-2.168-.392-4.606-1.698-6.096zM495.72 22.27c.653-1.76-2.874-2.167-2.482-.135.392.677 1.829.677 2.482.135zm-23.774 107.283c.654 1.761 3.788.677 3.919-.677-.653-1.355-3.788-.813-3.919.677zm-59.433-9.617c1.306 2.167 3.918 2.844 6.792 3.386 1.045-.813 1.045-2.574 1.568-3.928-2.613 0-6.532-1.084-8.36.542zm-12.671-9.618c0 2.032.261 3.251-.13 5.012 1.175 2.167 3.657.271 4.18-1.219.783-5.012-1.699-6.367-4.05-3.793zm2.221-2.98c.784-.542 1.437-1.219 1.175-2.709-1.698-2.032-3.396 2.303-1.175 2.709zm-39.318-46.056c1.045.407 1.568 2.438 3.266 3.387.653.406 1.567.27 2.09.541 1.045.542 1.828 1.897 1.567 2.845-.261 1.49-2.09 1.084-3.135 2.167.131 2.032-1.437 2.439-1.959 3.793.261.948 1.567.677 1.698 1.761-.131 1.084-2.221 1.355-1.698 2.574 1.829 1.49 3.788-.271 5.486-.542 3.919-.542 7.837.542 10.189-1.49-.262-1.896 1.959-2.574 1.698-4.335-.131-1.354-2.221-1.49-3.135-2.303-.523-.541-.653-1.625-1.176-2.573-.653-1.084-1.959-1.897-2.743-2.845-1.045-1.354-3.135-3.386-3.135-4.47 0-1.22 1.437-1.49 1.698-3.25-.261-1.491-3.135-.543-3.265-2.168.13-1.084 1.045-1.22 1.045-2.303-.262-.136-.523-.271-.915-.136-.914 1.22-2.482.678-4.049 1.22-1.176.406-3.527 2.573-3.788 3.386-.261 1.355.392 2.845.261 4.741zm-4.702 12.056c1.045-.271 2.481-.271 3.004-1.084.653-.948.131-2.574.522-3.928.523-1.49 1.96-1.761 1.699-3.116-.262-1.76-4.311-2.844-6.532-1.49-1.306.813-1.698 2.168-2.743 2.574-1.437.542-2.351.136-2.612 1.49-.131 1.084.914 1.626.914 2.71-.522 1.354-1.959 1.625-2.22 3.25 1.567 2.98 5.747.271 7.968-.406zM238.261 24.844c-1.306-2.032-5.356 0-4.964 1.625.392 2.032 5.356 0 4.964-1.625zM206.258 39.88c-.653.406-.784 1.083-.653 1.49.392 1.896 3.788.27 3.788-.678 0-1.083-2.221-1.354-3.135-.812zm89.085 230.956c.392 6.502-4.441 8.67-7.315 13.004-.522.949-.914 2.303-1.698 3.658-1.698 2.573-3.527 3.115-3.265 7.721 0 1.219.653 2.574.653 3.928 0 1.761-.131 4.064-.523 5.554-.261 1.219-1.175 2.167-1.437 3.251-.13 1.084.262 1.896.131 2.845-.131 1.083-1.176 2.438-1.959 3.928-1.568 3.115-1.96 6.637-5.225 7.856-1.96.678-4.441.271-6.531 1.084-.784.271-1.96 1.084-3.005 1.626-3.004 1.49-7.315 3.386-8.098 6.637-.784 2.845 1.045 5.148.522 8.399-.522.948-1.306 1.896-2.09 3.115-.784 1.084-1.176 2.167-1.959 3.251-1.045 1.355-2.613 1.896-3.266 3.793-.261.677-.13 1.354-.392 2.303-.13.406-.783.948-1.045 1.625-.261.677-.261 1.49-.522 2.032-.784 1.626-3.135 5.418-4.833 5.96-3.658 1.084-7.446-1.625-9.928-1.083.392 1.76 1.568 1.625 2.482 2.844.523.677.784 1.761 1.437 2.574.784.948 1.437 1.219 1.568 2.303.261 2.167-1.437 4.47-2.613 5.147-1.045.677-3.135 1.084-4.964 1.49-1.306.271-4.572.271-5.225 1.084-.914 1.219.523 4.334-.13 5.554-1.306 2.573-4.833-.136-6.531.677-.131 1.354.391 2.845 1.436 3.386 1.045.678 2.744-.135 3.527 1.084-.392 1.761-2.22 2.032-2.612 3.793 0 1.761.522 2.167.392 3.251-.392 2.303-3.919 2.167-3.788 4.741.13 3.657 6.792 2.167 6.923 5.689.13 2.168-1.96 2.167-2.613 4.335-.392 1.083.261 1.354 0 2.303-.261 1.219-1.698 1.625-1.698 3.115 0 1.761 2.482 3.658 3.658 5.012 1.175 1.355 2.743 3.387 4.31 4.335 2.482 1.354 6.009 1.083 7.054 3.657-.392 1.49-1.698 1.897-3.135 2.303h-5.486c-2.352-1.084-5.095-1.761-7.968-2.845-1.045-.406-2.221-1.219-3.266-1.761-.784-.406-1.829-.541-2.482-.948-1.437-.813-3.135-3.386-4.702-4.47-.915-.677-2.352-.948-3.005-1.625-.522-.678-.914-1.897-1.437-2.71-.522-.812-1.567-1.49-2.22-2.302-1.437-2.032-3.266-4.606-3.266-6.096 0-1.49 1.307-2.438.915-3.793-.392-1.219-3.135-.948-3.527-2.574-.261-.948.784-2.438.653-3.792 0-.813-1.437-1.761-.914-2.845.653-1.219 1.828.135 2.743-.542-.784-2.574 0-6.773-2.482-7.586-1.306 1.084 1.306 3.658-.915 4.335-2.09-.948-1.567-3.793-2.09-5.96-.261-1.355-.914-2.574-1.045-4.199 0-.813.262-1.761.131-2.574-.392-2.438-3.004-4.47-3.135-6.773-.13-1.219.653-2.167.915-3.386.13-.813-.131-1.761 0-2.71.13-1.083.783-2.167.914-3.251.261-2.031 0-5.418-.392-7.043-.392-2.032-1.959-3.793-2.221-6.096-.13-.813.262-2.167.131-3.251-.131-.948-.653-1.896-.653-3.116-.131-1.083.261-2.031.392-3.251.13-2.302-.392-4.741-.392-7.043 0-.678.392-1.084.392-1.761 0-1.897-.653-3.793-.653-5.554-.131-3.387.392-5.825-.131-8.94-.392-2.439-.914-6.096-1.698-7.586-.914-1.626-4.572-4.47-6.401-5.554-1.175-.677-2.612-.948-4.049-1.625-2.874-1.49-8.229-4.47-9.535-7.315-.392-.813-.262-1.897-.654-2.845-.783-1.896-2.351-3.386-3.526-5.147-2.09-3.387-3.919-7.586-6.009-11.108-1.176-1.761-2.09-3.793-3.266-5.147-.653-.813-3.004-1.626-3.265-2.845-.392-1.625-1.568-3.928-1.437-5.147.261-1.761 3.527-3.116 3.527-4.606 0-1.354-1.698-2.167-2.09-3.251-.915-2.709.522-4.334 1.567-6.637.392-.813.653-1.897 1.045-2.574.653-.948 1.96-1.219 2.743-2.303.523-.542.784-1.896 1.437-2.709 1.306-1.761 3.396-2.438 4.049-4.199.392-1.355.654-7.992.131-10.295-.261-1.355-1.437-2.303-1.959-3.657-.784-2.168-.915-4.606-3.135-4.47-1.306 0-2.221 1.49-3.135 2.573-.261 1.219-.131 2.709-1.437 3.116-1.959.542-2.743-2.168-4.964-2.845-.914-.271-2.351-.271-3.004-.542-1.698-.812-2.221-3.386-4.049-4.334-1.437-.813-2.744-.542-3.658-1.761-.392-.813-.131-2.439-.131-3.658-1.959-1.219-3.526-5.418-5.747-6.502-1.437-.677-3.657-.677-5.486-1.219-.915-.271-1.568-.677-2.482-.948-1.176-.271-2.221-.271-3.135-.677-3.396-1.761-5.225-7.451-9.535-7.315-1.829 0-3.527 1.761-5.225 1.761-1.568 0-4.311-1.355-6.401-2.303-2.09-1.084-4.441-1.625-6.27-2.574-1.437-.812-2.351-2.167-3.657-2.709-.915-.406-2.352-.542-3.135-.948-1.045-.542-2.22-1.761-3.658-2.709-1.306-.948-2.743-2.438-2.743-3.658 0-1.354 1.306-2.573 1.437-3.928.392-4.335-2.613-7.315-4.572-9.888-1.437-1.897-3.135-3.522-4.441-5.148.13-1.219.13-1.354 0-2.573-1.045-1.084-1.96-2.71-3.135-4.335-1.045-1.49-3.004-2.98-3.266-4.606-.26-2.032.784-3.793 0-5.689-1.175-3.251-5.616-1.761-4.963 2.574.13 1.219 1.828 2.844 2.22 3.928.523 1.219.392 2.709.915 4.199.392 1.355 1.828 2.574 2.22 4.199.784 2.439.653 5.148 1.437 6.638.653 1.355 2.743 2.709 1.568 4.335-1.698.406-2.221-1.355-3.266-2.303-.523-.542-2.612-1.626-3.004-2.845-.262-1.084.653-2.438.392-3.793-.654-2.573-5.487-2.573-5.487-5.147 0-1.626 2.09-1.897 2.09-3.387 0-1.761-2.22-3.251-2.743-4.605-.392-1.355-.522-3.522-.653-5.418-.13-1.761 0-3.793-.392-5.148-.392-1.219-2.09-2.98-3.265-3.657-1.568-.813-2.743-.542-3.527-1.761-.653-1.084-1.045-3.522-1.176-4.606-.261-2.167 0-4.47-.13-6.773-.131-2.303-.392-4.47 0-7.044.914-1.761 2.481-2.573 3.265-4.334.653-1.219.653-2.709 1.437-3.929 1.306-2.302 4.05-4.47 5.878-6.772 1.96-2.439 3.788-4.877 4.964-7.722.392-.948 1.567-3.25 1.437-4.47-.262-1.76-3.397-3.115-3.135-5.147.13-1.22 1.959-1.22 2.482-2.574.26-.677.522-2.438.522-3.25 0-1.762-.914-3.523-.523-5.42.262-1.625 2.613-2.166 1.437-3.928-1.175-1.76-3.265.949-4.572-.135-1.175-1.084.262-2.303.392-4.2 0-.812-.392-1.625-.392-2.166.131-.813 1.568-2.168 1.176-2.71-.914-1.219-1.96-4.334-4.05-5.418-2.481-1.355-5.355-.406-8.882-1.084-2.22-.406-3.135-2.438-5.224-2.303-1.176.136-1.96 1.626-3.658 2.303-1.698.813-3.919.542-5.486.949-1.698.406-2.482 1.625-4.18 1.49-1.437-.136-1.437-1.49-3.135-1.626-.653-.135-1.96.406-3.004.542-2.744.27-7.577.406-10.19-.136-2.48-.541-4.048-1.354-6.792-2.709-1.828-1.76-5.616-2.98-5.486-4.605.13-.949 3.658-2.032 4.964-2.574 2.22-.677 3.657-1.896 5.356-2.032.653 0 1.567.407 2.481.407.915-.136 1.96-.949 3.135-1.084 2.482-.407 5.878.135 5.487-2.303-1.83-1.49-9.275 1.084-9.536-2.167-.13-2.032 2.874-2.574 4.964-3.116 1.96-.406 4.963-1.219 6.792-1.084 1.96.136 4.572 2.439 5.748-.135.522-1.896-.653-3.386-1.045-4.877C29.785 22 32.529 22.27 34.619 22c2.35-.406 4.31-.813 6.53-1.76 2.09-.949 4.18-1.49 6.532-1.762 2.351-.27 4.702-1.219 6.792-1.49 1.698-.135 3.397 0 4.964-.406 1.437-.271 3.004-1.22 4.703-1.084 1.044 0 1.959.813 3.135 1.084 1.044.135 2.22 0 3.265.135.784.136 1.567.813 2.482.948 1.306.271 2.743-.135 4.05 0 1.175.136 2.09.949 3.265 1.084 2.612.406 5.747-.135 8.36.406 1.045.136 1.828.678 3.004.949 1.045.135 2.09 0 3.135.135 1.437.271 2.482 1.626 4.05 1.761 2.742.271 5.747-1.219 8.49-1.49 2.09-.135 4.049.136 6.27-.406 1.959-.407 3.788-1.22 5.486-1.22.914 0 1.698.271 2.612.136.915-.135 1.96-1.219 3.005-1.084 1.306.271 1.045 1.897 2.482 2.303 1.567-.813 3.004 0 4.702 0 1.568 0 3.004-.813 4.833-.542 3.135.542 7.576 3.658 10.058 2.032.653-.406.523-1.219 1.045-2.303.784-1.49 2.221-3.386 1.96-5.553-3.527 0-6.793 1.76-10.712 2.031-4.049-2.573 1.045-4.199 4.05-5.418 2.351-.948 4.31-3.115 7.315-3.657 2.482-.407 5.094.542 7.968.948 1.698.135 3.396-.135 4.31.135 1.698.542 2.613 2.303 4.05 2.71.653.135 1.567.135 2.482.406 1.567.406 3.004 1.22 4.571 0 1.176.271 1.307 1.626 2.613 1.761 1.175-.677 2.09-2.303 3.788-2.71.784-.135 1.567.136 2.482 0 1.437-.27 3.265-2.167 4.18-.406-.392 1.355-2.221 1.49-3.266 2.574-.914.948-2.351 2.98-2.221 3.928.262 1.761 2.744 1.084 2.744 3.252-.392 1.219-1.829.677-3.005 1.219-1.045.541-1.437 1.625-2.612 1.76-3.135.678-5.748-.812-8.491-.677-.13 1.22 1.306 1.897 2.09 2.303 2.482 1.355 4.441 1.22 7.968 1.084 1.829 0 3.788.542 5.356-.542.914-.677.914-2.168 1.698-3.116 1.045-.948 3.266-2.032 4.702-1.76.784.135 1.96 1.083 1.96 1.76 0 1.626-2.221 1.084-2.221 2.845 1.437.948 5.356-.948 5.486-2.574.131-1.083-1.306-1.76-1.175-2.844.13-1.897 2.612-1.897 2.22-3.793-1.175-.948-2.482.27-3.657 0-1.698-.271-3.266-2.438-4.049-3.793.783-.948 2.351-.271 3.526-.136 1.307-1.896 3.658-2.573 6.923-2.844 1.176-.136 2.744-.542 3.266.542.261 1.76-2.482 2.709-1.959 4.74 2.351.543 3.135-2.708 4.963-3.928.915-.541 2.09-.948 3.266-1.49 1.045-.406 2.221-1.49 3.135-1.49.914 0 1.176.813 2.09 1.22.914.406 1.959-.271 2.22.948-1.959 3.657-9.535 1.49-11.494 5.147.391 2.438-1.176 4.877.13 6.502.915 1.22 3.135.407 3.658 1.626.653 1.625-2.09 1.625-1.437 3.657 1.829 1.084 4.049-1.084 5.747-2.032 1.829-.948 4.18-2.032 4.311-4.335-.915-1.76-4.311-.406-4.833-2.302-.261-1.084 1.045-3.387 1.437-3.793 1.828-2.168 8.098-5.148 12.67-4.741.914.135 1.698.677 2.613.677 3.004.271 6.531-1.355 8.882 0 1.829-1.084 4.18.136 6.792-.135 1.96 1.219 1.437 3.928 4.572 5.012.784.27 1.829.135 3.005.406.783.135 1.698 1.22 2.612 1.625 1.306.678 2.351.542 2.613 1.49.261.949-.915 1.49-.915 2.574.784.678.131 1.626.523 2.574.783 1.625 2.612 1.49 4.441 2.303 1.306.542 4.049 2.303 4.049 3.657-.13.948-2.612 2.438-3.527 2.845-.653.27-3.526 1.76-4.441 1.625-1.698-.27-2.22-3.657-4.572-3.657-.914 0-1.828.677-1.959 2.032 0 2.302 2.612 2.438 2.612 4.47.131 2.438-1.306 2.574-3.265 4.064-1.437-.542-2.613-1.49-4.572-1.626-1.045 1.355 1.829 1.897.914 3.657-2.743.678-4.963-.812-7.445-1.625-.784-.27-1.959-.136-2.613-.542-1.045-.542-1.306-2.303-2.09-3.25-.914-1.084-2.743-2.575-4.31-2.575-2.09 0-5.225 2.71-6.923.136 1.175-4.064 6.792-1.084 10.45-2.574 1.306-.542 1.828-2.032 3.004-2.709 2.221-1.355 5.878-1.49 5.486-4.2-.13-1.354-1.959-1.354-3.004-2.031-1.306-.948-2.351-4.2-4.311-4.335-1.045-.135-1.698.813-2.743.948-2.22.271-4.702-.948-6.792 0-.915.542-.261 1.49-1.045 2.574-.653.813-2.09 1.084-2.613 2.032-.653.948-.522 2.303-1.437 3.116-1.436 1.354-4.441 1.49-6.269 2.167-.784.27-1.829 1.22-2.613 1.22-1.437 0-2.09-2.033-3.657-1.22-.131 1.896 1.959 2.71 3.265 3.657 1.437.949 3.005 1.897 3.527 3.658-1.437 3.115-3.657-.136-5.878-.136-2.482 0-6.009 4.877-8.099.948.523-2.031 2.743-2.438 3.266-4.47-2.482.407-4.572 2.574-7.446 3.251-1.175.271-2.351.271-3.527.542-2.09.677-3.526 2.167-5.747 3.116-.914.27-1.829.27-2.743.541-2.09.678-4.572 2.032-6.792 3.252-2.221 1.219-4.703 2.573-6.009 3.792-.784.678-2.613 2.98-2.613 3.793.131 1.084 2.09 1.49 2.09 2.574 0 .677-1.175 2.032-.392 3.115.654.813 2.09.136 3.658.407 2.612.406 4.441 2.574 6.4 3.793 1.568.812 3.789 1.896 5.487 2.167 2.351.27 5.094-.677 5.355 1.22.261 1.895-2.22 2.573-2.482 3.792 1.307 1.76-.914 2.574-.914 4.2 0 1.218 1.437 3.115 2.743 3.25 1.698.136 4.311-1.76 4.964-3.657.914-2.168.522-5.012 2.09-6.638 8.098.271 14.891-3.792 14.368-12.462 0-.813-.522-1.896-.391-2.844.261-1.355 2.612-2.574 2.22-4.335 2.221-.677 2.221-4.47 4.572-5.012 1.959-.407 4.18 1.49 6.792 1.219.784 0 1.96-.813 2.743-.677 1.699.27 2.744 2.438 4.05 3.386 1.175.948 2.351.542 2.612 1.761-.392 2.032-1.698 2.032-1.567 3.928.13 1.626 1.829 2.845 2.612 3.116 1.307.27 3.135-.406 4.311-1.084 2.351-1.083 4.31-4.605 6.27-4.199 1.567.407 2.743 5.418 3.004 7.18.261 1.896-.261 3.386-.13 5.147.261 2.98 3.918 2.709 5.747 4.334.522.542.784 1.762 1.176 2.303.914 1.22 1.959 1.22 2.09 2.574.261 3.115-2.744 3.386-2.482 6.773-.653 1.355-2.221 1.22-2.09 3.115.261 2.845 4.18.678 5.225 2.845.522 1.22-.131 2.032-.523 3.793 1.306 1.625 1.306 4.335-1.045 4.335-1.437 0-1.829-1.626-3.265-2.032-.784-.271-1.96-.136-3.005-.407-.914-.135-1.959-.406-2.743-.541-2.09-.271-4.441.406-5.747-.949 2.09-2.844 4.833-5.689 7.445-8.127.784-.677 2.482-1.22 2.09-2.71-1.437-1.354-3.265.136-4.702.949-1.437.813-3.266 2.032-4.833 2.303-2.874.406-6.662-.813-9.013.677-.262 1.355 2.612.813 2.22 2.845-1.175.135-2.22.27-3.135-.542-.783-.813-.392-1.897-.914-2.303-.914-.813-4.18-.948-5.748-.677-1.828.27-3.396 1.49-3.657 3.115 2.221 1.084 5.747-1.084 6.531 1.626-1.175 2.303-4.049 3.522-3.657 6.502.13 1.219 1.437 2.709 2.482 2.844.914.136 1.436-.812 2.481-.677 1.045.136.784 1.22 1.96 1.084 1.698-.678 2.612-3.116 4.441-3.116 2.351 2.845-2.09 4.335-4.441 5.148-2.743 1.083-6.401 1.625-8.491 2.573-1.045.542-5.355 4.741-5.878 1.49-.392-2.302 2.09-1.625 2.613-3.657-2.743-.542-5.225 1.22-7.576 2.167-3.527 1.355-9.405 2.168-10.189 6.231-.131.813.392 2.303-.131 2.845-.392.406-2.873.542-4.049.948-1.698.542-3.135 1.897-4.18 2.168-.784.27-1.959.135-2.482.406-1.437.542-1.829 2.438-3.527 3.793-.653.542-2.09.948-2.612 1.49-.915.948-1.045 3.251-2.613 3.657-1.045.136-1.828-.813-2.743-.135-.13 2.303.784 5.418-.13 7.721-2.09 1.761-4.311 2.98-6.923 4.47-1.437.813-2.744 1.084-4.572 2.032-1.306.677-2.351 2.167-3.788 3.115-3.266 2.032-7.315 4.471-7.315 9.482 0 1.084.522 2.303.653 3.658.13.813-.131 1.49 0 2.303.261 1.896 1.567 4.334 0 5.553-2.351-.948-5.356-1.354-6.923-3.115-.392-1.761.914-3.251.653-4.877-.131-1.354-1.959-3.657-3.004-3.792-1.045-.136-2.09.948-3.135.948-1.307-.136-2.482-1.897-4.18-2.168-2.482-.27-4.18.542-6.923.136-2.613 1.49-3.397 4.064-6.532 3.793-1.175-.136-2.22-.948-3.526-1.219-1.437-.271-3.527-.813-4.964-.678-3.004.271-5.094 2.439-7.576 3.793-2.221 1.219-5.356 2.709-6.009 5.148-.392 1.354 0 3.251-.522 4.47-.262.812-.915 1.49-1.437 2.302-1.96 3.658-3.527 8.534-2.09 13.817.261.813 2.09 5.148 3.004 6.096.914.948 3.527 2.438 4.964 2.574 1.306 0 2.743-.678 4.049-.949 1.437-.271 3.266-.271 4.572-.677 3.788-1.219 3.004-6.502 6.792-8.263 1.698-.813 3.527-.948 6.401-1.084.914.813 1.306 2.168 1.175 3.387-.13.948-.914 1.761-1.436 3.115-.392 1.084-.523 2.439-.915 3.387-.522 1.219-1.698 2.032-2.09 3.251-.261.677-.13 1.625-.392 2.303-.391 1.219-1.959 2.032-1.175 3.251 3.657 1.49 8.229-.407 11.495.135 1.306.271 4.18 1.897 4.18 4.199 0 1.626-1.176 2.71-1.437 4.471-.261 2.302-1.176 5.011-1.176 6.772-.13 2.981 4.18 8.128 7.315 8.128 3.266 0 5.225-3.387 9.144-1.626 1.306.542 2.743 2.845 4.18 2.71 1.175-.136 3.004-2.303 3.788-3.793.914-1.897 1.045-3.387 2.743-4.335 1.829-.948 3.396-.542 5.747-1.49 1.045-.406 1.96-1.084 3.005-1.761.783-.542 1.698-2.167 2.743-1.084 1.437 1.49-1.698 2.303-.523 3.793 2.351 1.355 3.658-2.438 5.356-2.573.522 0 2.482 1.083 3.527 1.761 1.306.948 1.828 2.167 3.265 2.573.915.136 2.482-.406 3.788-.135 1.829.271 2.874 1.896 4.18 1.761 1.568 0 2.352-1.897 3.788-2.168 3.005-.541 4.18.407 5.487 2.303 1.567.271 1.567-1.761 3.004-1.083-.784 1.625.261 2.302.914 3.657.392.813.392 1.49.653 1.761.784.813 2.482.813 3.658 1.625 1.306.813 1.959 2.439 3.527 4.2 1.567 1.761 4.049 3.657 6.008 3.792 1.96.136 3.397-.541 4.964-.406 3.527.406 5.748 2.303 8.36 4.335 1.437 1.083 2.612 1.896 3.135 3.251.261.948.131 2.167.522 3.251.784 2.303 3.919 3.251 2.744 7.179.522 1.084 1.698 1.49 3.004 2.303 1.045.677 1.829 2.032 3.004 2.167.653.136 1.437-.271 2.09-.135 1.96.135 3.266.948 4.964 1.625 1.045.407 2.351.542 3.135 1.084.914.677 1.045 2.709 2.09 3.251.653.406 2.22-.136 3.527 0 1.828.271 4.441 1.354 6.008 1.49 1.045 0 1.829-.406 2.743-.406 4.18.406 6.662 5.553 10.712 7.179 1.306.542 3.265.135 4.18.542 1.436.541 2.743 5.418 2.873 7.585zm-113.25-169.594c1.828.813 6.661 1.49 7.315-.948-.784-.677-3.135-.542-4.703-.406-1.045.135-2.482.406-2.612 1.354zm63.613-71.522c.915.136 1.307-.135 1.176-1.083-.653-.678-1.829.135-1.176 1.083zm-77.721 63.937c-.653-.813-4.572.135-5.747.948-.784.542-1.306 1.896-2.09 2.844-.784 1.084-1.698 1.761-2.482 2.71-.653.812-4.18 6.095-1.437 6.637 1.176.271 3.527-2.303 3.788-3.251.784-3.251 2.221-5.69 4.703-7.18 1.567-.947 3.004-.812 3.265-2.708zm10.058 10.701c-2.482-.948-4.702.677-6.792.948-1.176.136-3.396-.271-3.135 1.626.261 1.49 2.482.948 3.788.541 2.743-.948 4.441-1.625 6.139-3.115zm-6.662-10.295c0 1.084.784 1.22.654 2.303-1.699 1.219-.784 5.418.914 5.554 1.698.135 2.612-4.606 4.964-5.012.914-.136 1.306.541 2.482.406 1.306-1.084.783-3.386-.654-3.793-.522-.135-1.306.407-2.22.407-1.045-.136-1.96-.949-2.743-1.084-1.437-.271-2.874.542-3.397 1.22zm-13.323-6.908c-1.829.541-3.527.541-4.049 2.167 1.698 2.845 4.833-.677 7.314-.135 1.176.27 1.96 1.896 3.135 2.167.784.135 5.617-.406 5.878-.542 3.397-1.49-.653-6.231-2.22-6.637-2.743-.813-6.793 2.032-10.058 2.98zm-9.536-62.582c3.266 2.709 8.099-1.22 11.495 1.219.523-.406 1.437-.948 1.045-1.761-1.959-.948-5.094-.27-7.968-.542-1.698-2.303-4.31-2.709-4.572 1.084zm-2.22 48.9c1.959-.135 3.265-5.96 0-5.147-2.221.542-2.743 5.283 0 5.147zm-14.761-30.342c-.783-.678-1.698-1.626-2.612-1.626-1.306 0-1.829 1.084-3.135 1.761-1.437.813-3.527.948-3.658 2.303 2.743.542 5.095-.677 6.793-1.22 1.045-.27 2.351-.135 2.612-1.218zm-11.364-10.024c2.351.677 5.225-1.084 7.968-1.626 1.045-.135 2.221.271 3.004-.677-.783-3.928-6.139-1.49-9.143-1.22-.784 1.085-1.698 1.897-1.829 3.523zm59.173 179.347c-1.307.542-.654 2.98.653 2.709 1.436-.271 1.045-3.522-.653-2.709zM58.261 67.784c-.914-1.76-3.265-.406-3.265 1.22.261.406.522.676.914.947.915-.541 1.96-.948 2.351-2.167z" fill="#191B20"/></svg>
