<svg width="120" height="52" viewBox="0 0 120 52" fill="none" xmlns="http://www.w3.org/2000/svg">
<path d="M41.7998 6.8999C42.6282 6.8999 43.2998 6.22833 43.2998 5.3999C43.2998 4.57148 42.6282 3.8999 41.7998 3.8999C40.9714 3.8999 40.2998 4.57148 40.2998 5.3999C40.2998 6.22833 40.9714 6.8999 41.7998 6.8999Z" fill="#87949E"/>
<path d="M46.2002 6.8999C47.0286 6.8999 47.7002 6.22833 47.7002 5.3999C47.7002 4.57148 47.0286 3.8999 46.2002 3.8999C45.3718 3.8999 44.7002 4.57148 44.7002 5.3999C44.7002 6.22833 45.3718 6.8999 46.2002 6.8999Z" fill="#87949E"/>
<path d="M50.6001 6.8999C51.4285 6.8999 52.1001 6.22833 52.1001 5.3999C52.1001 4.57148 51.4285 3.8999 50.6001 3.8999C49.7717 3.8999 49.1001 4.57148 49.1001 5.3999C49.1001 6.22833 49.7717 6.8999 50.6001 6.8999Z" fill="#87949E"/>
<path d="M120 38.064V36.504H85V4.16C85 1.872 83.2 0 81 0H39C36.8 0 35 1.872 35 4.16V36.504H0V38.064H35V42.016H19V43.576H35V47.84C35 50.128 36.8 52 39 52H81C83.2 52 85 50.128 85 47.84V43.576H87.6V42.016H85V38.064H120ZM83.5 47.84C83.5 49.296 82.4 50.44 81 50.44H39C37.6 50.44 36.5 49.296 36.5 47.84V11.232H83.6V47.84H83.5ZM83.5 9.776H36.5V4.16C36.5 2.704 37.6 1.56 39 1.56H81C82.4 1.56 83.5 2.704 83.5 4.16V9.776Z" fill="#87949E"/>
<path d="M64.5 26L63.5 25L60 28.5L56.5 25L55.5 26L59 29.5L55.5 33L56.5 34L60 30.5L63.5 34L64.5 33L61 29.5L64.5 26Z" fill="#F63F6C"/>
</svg>
