<svg width="25" height="26" viewBox="0 0 25 26" fill="none" xmlns="http://www.w3.org/2000/svg">
<path d="M24.5 25.6L24.4 4.6L20 0.1V0H6.7V6.8H8V1.3H19C19.2 2 19.5 3.3 19.1 4.4L19 4.8L19.6 5.4L20 5.3C20.3 5.2 20.6 5.2 21 5.2C21.8 5.2 22.6 5.4 23.1 5.5V24.3H8V17L8.4 17.6L10.7 18.9C10.8 19 11 19 11.1 19C11.2 19 11.4 18.9 11.5 18.9C11.8 18.8 11.9 18.4 11.9 18.1L11.6 15.4L3.2 2.7L0 4.8L1.3 6.8L0.7 7.3L0.4 7.5L0.3 7.8C0.3 8 0.4 8.2 0.5 8.4L3.9 12.1L4 12.3L3.9 12.4L4.6 13.5L4.8 13.4C5 13.2 5.2 13 5.3 12.8L6.8 15.1V25.7H24.5V25.6ZM21.1 3.8C21 3.8 20.9 3.8 20.7 3.8C20.7 3.4 20.7 3 20.7 2.6L21.9 3.8C21.6 3.8 21.4 3.8 21.1 3.8ZM2 8L2.3 8.3L2 8ZM1.8 5.2L2.8 4.6L10.4 15.9L10.5 17.2L9.4 16.6L1.8 5.2Z" fill="currentColor"/>
<path d="M19.6001 8.7002H11.6001V10.0002H19.6001V8.7002Z" fill="currentColor"/>
</svg>
