<svg width="78" height="24" viewBox="0 0 78 24" fill="none" xmlns="http://www.w3.org/2000/svg">
<path d="M9.9221 0C4.43062 0 0 4.42597 0 9.91169V24L4.18101 19.8234V9.91169C4.18101 6.7948 6.73954 4.23896 9.85969 4.23896C12.9798 4.23896 15.5384 6.7948 15.5384 9.91169C15.5384 13.0286 13.0423 15.5844 9.9221 15.5844H8.42442L4.24341 19.761H9.9221C15.4136 19.761 19.8442 15.3351 19.8442 9.84935C19.8442 4.36364 15.3512 0 9.9221 0Z" fill="#1A5BD1"/>
<path d="M45.6166 5.42294V6.04631C43.495 4.23852 40.2501 4.48787 38.4405 6.60735C36.6309 8.72683 36.8805 11.9684 39.0021 13.7762C40.9365 15.397 43.6822 15.397 45.6166 13.7762V14.9606H47.4262V4.79956L45.6166 5.42294ZM42.3094 13.2151C40.4997 13.2151 39.0021 11.719 39.0021 9.91125C39.0021 8.10346 40.4997 6.60735 42.3094 6.60735C44.119 6.60735 45.6166 8.10346 45.6166 9.91125C45.6166 11.719 44.119 13.2151 42.3094 13.2151Z" fill="#1A5BD1"/>
<path d="M67.8347 5.42294V6.04631C65.7131 4.23852 62.4683 4.48787 60.6587 6.60735C58.849 8.72683 59.0986 11.9684 61.2203 13.7762C63.1547 15.397 65.9003 15.397 67.8347 13.7762V14.9606H69.6443V4.79956L67.8347 5.42294ZM64.5275 13.2151C62.7179 13.2151 61.2203 11.719 61.2203 9.91125C61.2203 8.10346 62.7179 6.60735 64.5275 6.60735C66.3371 6.60735 67.8347 8.10346 67.8347 9.91125C67.8347 11.719 66.3371 13.2151 64.5275 13.2151Z" fill="#1A5BD1"/>
<path d="M73.8242 14.9609H72.0146V2.36866L73.8242 1.80762V14.9609Z" fill="#1A5BD1"/>
<path d="M78 14.9609H76.1904V2.36866L78 1.80762V14.9609Z" fill="#1A5BD1"/>
<path d="M30.8911 4.79956C28.0831 4.79956 25.7743 7.10605 25.7743 9.91125V18.0151L27.5839 16.2073V14.9606H30.8911C33.6991 14.9606 36.0079 12.6541 36.0079 9.84891C36.0079 7.04372 33.6991 4.79956 30.8911 4.79956ZM30.8911 13.2151H27.5839V9.91125C27.5839 8.10346 29.0815 6.60735 30.8911 6.60735C32.7007 6.60735 34.1983 8.10346 34.1983 9.91125C34.1983 11.719 32.7007 13.2151 30.8911 13.2151Z" fill="#1A5BD1"/>
<path d="M57.3482 4.79956L53.9785 10.9086L50.6713 4.79956H48.6121L52.9801 12.7788L50.1097 17.9528H52.2313L59.4074 4.79956H57.3482Z" fill="#1A5BD1"/>
</svg>
