<svg width="30" height="25" viewBox="0 0 30 25" fill="none" xmlns="http://www.w3.org/2000/svg">
<path d="M14.8002 10.9998C12.5002 10.9998 10.7002 9.19981 10.7002 6.89981C10.7002 4.59981 12.5002 2.7998 14.8002 2.7998C17.1002 2.7998 18.9002 4.59981 18.9002 6.89981C18.9002 9.19981 17.1002 10.9998 14.8002 10.9998ZM14.8002 4.1998C13.3002 4.1998 12.1002 5.39981 12.1002 6.89981C12.1002 8.39981 13.3002 9.5998 14.8002 9.5998C16.3002 9.5998 17.5002 8.39981 17.5002 6.89981C17.5002 5.39981 16.3002 4.1998 14.8002 4.1998Z" fill="currentColor"/>
<path d="M22.6 24.9998H7V14.2998C7 12.8998 8.1 11.7998 9.5 11.7998H12.4C13.6 11.7998 14.3 12.6998 14.8 13.5998C15.3 12.6998 16 11.7998 17.2 11.7998H20.1C21.5 11.7998 22.6 12.8998 22.6 14.2998V24.9998ZM8.4 23.5998H21.2V14.3998C21.2 13.7998 20.7 13.2998 20.1 13.2998H17.2C16.1 13.2998 15.6 15.5998 15.5 15.8998L15.4 16.4998H14.3L14.1 15.8998C14 15.5998 13.5 13.2998 12.4 13.2998H9.5C8.9 13.2998 8.4 13.7998 8.4 14.3998V23.5998Z" fill="currentColor"/>
<path d="M6.5 7C4.6 7 3 5.4 3 3.5C3 1.6 4.6 0 6.5 0C8.4 0 10 1.6 10 3.5C10 5.4 8.4 7 6.5 7ZM6.5 1.4C5.3 1.4 4.4 2.3 4.4 3.5C4.4 4.7 5.3 5.6 6.5 5.6C7.7 5.6 8.6 4.7 8.6 3.5C8.6 2.3 7.7 1.4 6.5 1.4Z" fill="currentColor"/>
<path d="M5 19.6004H0V9.60039C0 8.40039 1 7.40039 2.2 7.40039H9.2V8.80039H2.2C1.8 8.80039 1.4 9.20039 1.4 9.60039V18.3004H5V19.6004Z" fill="currentColor"/>
<path d="M23.1001 7C21.2001 7 19.6001 5.4 19.6001 3.5C19.6001 1.6 21.2001 0 23.1001 0C25.0001 0 26.6001 1.6 26.6001 3.5C26.6001 5.4 25.1001 7 23.1001 7ZM23.1001 1.4C22.0001 1.4 21.0001 2.3 21.0001 3.5C21.0001 4.7 21.9001 5.6 23.1001 5.6C24.3001 5.6 25.2001 4.7 25.2001 3.5C25.2001 2.3 24.3001 1.4 23.1001 1.4Z" fill="currentColor"/>
<path d="M29.5998 20.1004H24.5998V18.7004H28.1998V9.60039C28.1998 9.20039 27.7998 8.80039 27.3998 8.80039H20.2998V7.40039H27.3998C28.5998 7.40039 29.5998 8.40039 29.5998 9.60039V20.1004Z" fill="currentColor"/>
</svg>
