<svg width="40" height="40" viewBox="0 0 40 40" fill="none" xmlns="http://www.w3.org/2000/svg">
<path d="M34.1796 5.81688C26.3234 -1.93896 13.6766 -1.93896 5.82036 5.81688C-1.94012 13.6685 -1.94012 26.3076 5.82036 34.1592C9.7485 38.085 14.8263 40 20 40C25.1737 40 30.2515 38.085 34.1796 34.1592C41.9401 26.3076 41.9401 13.6685 34.1796 5.81688ZM13.6766 37.1275V27.7439C13.6766 27.1694 14.1557 26.7864 14.6347 26.7864H17.509C18.3713 26.7864 18.8503 28.3184 19.0419 29.2759L19.2335 29.9461H20.6707L20.7665 29.2759C20.9581 28.3184 21.5329 26.7864 22.2994 26.7864H25.1737C25.7485 26.7864 26.1317 27.2651 26.1317 27.7439V37.1275C22.2036 38.6595 17.7006 38.6595 13.6766 37.1275ZM28.0479 36.3615V27.7439C28.0479 26.2118 26.8024 25.0628 25.3653 25.0628H22.491C21.5329 25.0628 20.6707 25.6373 20 26.6906C19.4251 25.6373 18.5629 25.0628 17.509 25.0628H14.6347C13.1018 25.0628 11.9521 26.3076 11.9521 27.7439V36.3615C10.2275 35.4997 8.50299 34.3507 7.06587 32.9144C6.87425 32.7229 6.68264 32.5314 6.49102 32.3399V22.9563C6.49102 22.5733 6.77844 22.2861 7.16168 22.2861H14.3473V20.5625H7.16168C5.91617 20.5625 4.76647 21.6158 4.76647 22.9563V30.2334C-0.0239517 23.1478 0.742516 13.3812 6.97006 7.06164C10.515 3.51885 15.2096 1.69958 19.9042 1.69958C24.5988 1.69958 29.2934 3.51885 32.8383 7.06164C39.1617 13.3812 39.8323 23.0521 35.0419 30.2334V22.9563C35.0419 21.6158 33.988 20.5625 32.6467 20.5625H25.4611V22.2861H32.6467C33.0299 22.2861 33.3174 22.5733 33.3174 22.9563V32.3399C33.1257 32.5314 32.9341 32.7229 32.8383 32.9144C31.497 34.3507 29.7725 35.4997 28.0479 36.3615Z" fill="currentColor"/>
<path d="M19.9999 15.8711C17.6046 15.8711 15.6885 17.7861 15.6885 20.1799C15.6885 22.5737 17.6046 24.4887 19.9999 24.4887C22.3951 24.4887 24.3112 22.5737 24.3112 20.1799C24.3112 17.7861 22.3951 15.8711 19.9999 15.8711ZM19.9999 22.8609C18.5627 22.8609 17.413 21.7119 17.413 20.2756C17.413 18.8394 18.5627 17.6904 19.9999 17.6904C21.437 17.6904 22.5867 18.8394 22.5867 20.2756C22.5867 21.7119 21.437 22.8609 19.9999 22.8609Z" fill="currentColor"/>
<path d="M11.5686 13.0938C9.55658 13.0938 7.83203 14.7215 7.83203 16.828C7.83203 18.9346 9.46077 20.5623 11.5686 20.5623C13.6763 20.5623 15.3051 18.9346 15.3051 16.828C15.3051 14.7215 13.5805 13.0938 11.5686 13.0938ZM11.5686 18.7431C10.5147 18.7431 9.55658 17.8813 9.55658 16.7323C9.55658 15.5833 10.4189 14.7215 11.5686 14.7215C12.7183 14.7215 13.5805 15.5833 13.5805 16.7323C13.5805 17.8813 12.6225 18.7431 11.5686 18.7431Z" fill="currentColor"/>
<path d="M28.4309 20.4666C30.4428 20.4666 32.1674 18.8389 32.1674 16.7323C32.1674 14.6258 30.5386 12.998 28.4309 12.998C26.3231 12.998 24.6943 14.6258 24.6943 16.7323C24.6943 18.8389 26.4189 20.4666 28.4309 20.4666ZM28.4309 14.8173C29.4848 14.8173 30.4428 15.6791 30.4428 16.8281C30.4428 17.9771 29.5806 18.8389 28.4309 18.8389C27.2812 18.8389 26.4189 17.9771 26.4189 16.8281C26.4189 15.6791 27.2812 14.8173 28.4309 14.8173Z" fill="currentColor"/>
</svg>
