<svg width="25" height="30" viewBox="0 0 25 30" fill="none" xmlns="http://www.w3.org/2000/svg">
<path d="M25 8.9404H16.4062V2.38411C16.4062 1.09272 15.332 0 14.0625 0H2.34375C1.07422 0 0 1.09272 0 2.38411V27.6159C0 28.9073 1.07422 30 2.34375 30H14.0625C15.332 30 16.4062 28.9073 16.4062 27.6159V20.8609H25V8.9404ZM22.168 10.3311L15.7227 14.8013L9.27734 10.3311H22.168ZM10.4492 1.39073C10.3516 1.5894 10.2539 1.78808 10.2539 1.98675H6.15234C6.15234 1.78808 6.05469 1.5894 5.95703 1.39073H10.4492ZM15.0391 27.6159C15.0391 28.1126 14.6484 28.6093 14.0625 28.6093H2.34375C1.85547 28.6093 1.36719 28.2119 1.36719 27.6159V2.38411C1.36719 1.88742 1.75781 1.39073 2.34375 1.39073H4.10156L4.29688 1.5894C4.6875 1.78808 4.88281 2.28477 4.88281 2.68212V3.37748H11.4258V2.68212C11.4258 2.28477 11.6211 1.78808 12.0117 1.5894L12.207 1.39073H13.9648C14.4531 1.39073 14.9414 1.78808 14.9414 2.38411V8.9404H6.44531V20.8609H15.0391V27.6159ZM7.8125 19.4702V10.9272L15.7227 16.4901L23.6328 10.9272V19.4702H7.8125Z" fill="currentColor"/>
</svg>
