<svg width="188" height="128" viewBox="0 0 188 128" fill="none" xmlns="http://www.w3.org/2000/svg">
<g opacity="0.1">
<circle cx="184" cy="94" r="4" transform="rotate(90 184 94)" fill="#CBDBE3"/>
<circle cx="154" cy="94" r="4" transform="rotate(90 154 94)" fill="#CBDBE3"/>
<circle cx="124" cy="94" r="4" transform="rotate(90 124 94)" fill="#CBDBE3"/>
<circle cx="34" cy="4" r="4" fill="#CBDBE3"/>
<circle cx="34" cy="34" r="4" fill="#CBDBE3"/>
<circle cx="34" cy="64" r="4" fill="#CBDBE3"/>
<circle cx="94" cy="124" r="4" transform="rotate(90 94 124)" fill="#CBDBE3"/>
<circle cx="64" cy="124" r="4" transform="rotate(90 64 124)" fill="#CBDBE3"/>
<circle cx="34" cy="124" r="4" transform="rotate(90 34 124)" fill="#CBDBE3"/>
<circle cx="4" cy="4" r="4" fill="#CBDBE3"/>
<circle cx="4" cy="34" r="4" fill="#CBDBE3"/>
<circle cx="4" cy="64" r="4" fill="#CBDBE3"/>
<circle cx="94" cy="94" r="4" transform="rotate(90 94 94)" fill="#CBDBE3"/>
<circle cx="64" cy="94" r="4" transform="rotate(90 64 94)" fill="#CBDBE3"/>
<circle cx="34" cy="94" r="4" transform="rotate(90 34 94)" fill="#CBDBE3"/>
</g>
</svg>
