<svg width="16" height="16" viewBox="0 0 16 16" fill="none" xmlns="http://www.w3.org/2000/svg">
<path d="M8 16C12.4183 16 16 12.4183 16 8C16 3.58172 12.4183 0 8 0C3.58172 0 0 3.58172 0 8C0 12.4183 3.58172 16 8 16Z" fill="#EBEAED"/>
<path d="M10.7278 5.90905C10.8187 5.99996 10.8187 6.09086 10.7278 6.09086L8.81871 7.99996L10.7278 9.90905C10.8187 9.99996 10.8187 10.0909 10.7278 10.0909L10.0914 10.7272C10.0005 10.8181 9.90962 10.8181 9.90962 10.7272L8.00053 8.81814L6.09144 10.7272C6.00053 10.8181 5.90962 10.8181 5.90962 10.7272L5.27326 10.0909C5.18235 9.99996 5.18235 9.90905 5.27326 9.90905L7.18235 7.99996L5.36417 6.18177C5.27326 6.09086 5.27326 5.99996 5.36417 5.99996L6.00053 5.36359C6.09144 5.27268 6.18235 5.27268 6.18235 5.36359L8.09144 7.27268L10.0005 5.36359C10.0914 5.27268 10.1824 5.27268 10.1824 5.36359L10.7278 5.90905Z" fill="#87949E"/>
</svg>
