<svg width="40" height="40" fill="none" xmlns="http://www.w3.org/2000/svg"><path d="M8.071 25.01v4.372H32.04V11.445H8.071V25.01zm1.61-11.958h20.75v14.64H9.68v-14.64z" fill="#191B20"/><path d="M34.187 5.823c-7.781-7.764-20.481-7.764-28.351 0-7.781 7.763-7.781 20.435 0 28.287C9.592 37.858 14.69 40 19.966 40c5.277 0 10.375-2.052 14.131-5.89C37.853 30.363 40 25.276 40 20.011c0-5.265-1.968-10.351-5.813-14.188zM33.114 33.04c-7.155 7.139-18.871 7.139-26.026 0-7.155-7.14-7.155-18.83 0-25.968 3.577-3.57 8.317-5.354 13.057-5.354s9.48 1.785 13.058 5.354c3.488 3.48 5.366 8.12 5.366 13.028-.09 4.82-2.057 9.46-5.456 12.94z" fill="#191B20"/><path fill="#191B20" d="M11.982 16.207h3.384v3.377h-3.384z"/></svg>
