<svg width="40" height="28" viewBox="0 0 40 28" fill="none" xmlns="http://www.w3.org/2000/svg">
<path d="M8.56 -4.76837e-06C10.8 -4.76837e-06 12.64 0.719995 14.08 2.16C15.52 3.54666 16.24 5.38666 16.24 7.68C16.24 8.74667 16.1067 9.81333 15.84 10.88C15.5733 11.9467 15.0133 13.5467 14.16 15.68L9.52 27.2H1.6L5.04 14.56C3.70667 13.9733 2.66667 13.0933 1.92 11.92C1.17333 10.7467 0.8 9.33333 0.8 7.68C0.8 5.38666 1.52 3.54666 2.96 2.16C4.45333 0.719995 6.32 -4.76837e-06 8.56 -4.76837e-06ZM32.1537 -4.76837e-06C34.3938 -4.76837e-06 36.2338 0.719995 37.6738 2.16C39.1138 3.54666 39.8338 5.38666 39.8338 7.68C39.8338 8.74667 39.7004 9.81333 39.4338 10.88C39.1671 11.9467 38.6071 13.5467 37.7538 15.68L33.1138 27.2H25.1938L28.6338 14.56C27.3004 13.9733 26.2604 13.0933 25.5138 11.92C24.7671 10.7467 24.3938 9.33333 24.3938 7.68C24.3938 5.38666 25.1138 3.54666 26.5538 2.16C28.0471 0.719995 29.9138 -4.76837e-06 32.1537 -4.76837e-06Z" fill="#0B3788"/>
</svg>
