<svg width="36" height="40" viewBox="0 0 36 40" fill="none" xmlns="http://www.w3.org/2000/svg">
<path d="M31.8823 24.2195H33.875V22.4521H2.12587V24.2195H3.98565V38.2322H1.32935V39.9996H34.9377V38.2322H31.8823V24.2195ZM30.0226 38.2322H24.8417V24.2195H30.0226V38.2322ZM18.1997 38.2322H17.8012V30.1528C17.8012 29.9003 18.1997 29.9003 18.1997 30.1528V38.2322ZM17.934 28.133C16.7384 28.133 15.8085 29.0167 15.8085 30.1528V38.2322H13.0189V24.2195H22.982V38.2322H20.0595V30.1528C20.0595 29.0167 19.1296 28.133 17.934 28.133ZM5.84543 24.2195H11.0262V38.2322H5.84543V24.2195Z" fill="#157BFA"/>
<path d="M21.6491 6.19286L22.9708 5.04949L17.8936 0.0273924L12.8751 5.10438L14.2101 6.23331L16.9843 3.56713L17.0459 14.1712L18.9057 14.1611L18.844 3.55702L21.6491 6.19286Z" fill="#157BFA"/>
<path d="M22.583 8.1875L21.3875 9.44991L32.5461 18.918H3.32103L14.4797 9.44991L13.2841 8.1875L0.398524 18.918L0 19.5492L0.398524 20.6853H34.8044L35.4686 20.4328L36 19.2967L22.583 8.1875Z" fill="#157BFA"/>
</svg>
