<svg width="40" height="40" viewBox="0 0 40 40" fill="none" xmlns="http://www.w3.org/2000/svg">
<path d="M20 16.8397C16.7397 16.8397 14.1882 14.2477 14.1882 10.9357C14.1882 7.62373 16.7397 5.03174 20 5.03174C23.2602 5.03174 25.8117 7.62373 25.8117 10.9357C25.8117 14.2477 23.2602 16.8397 20 16.8397ZM20 7.04773C17.8737 7.04773 16.1727 8.77573 16.1727 10.9357C16.1727 13.0957 17.8737 14.8237 20 14.8237C22.1262 14.8237 23.8272 13.0957 23.8272 10.9357C23.8272 8.77573 22.1262 7.04773 20 7.04773Z" fill="#157BFA"/>
<path d="M31.0563 40.0001H8.94336V24.5922C8.94336 22.5762 10.5026 20.9922 12.4871 20.9922H16.5979C18.2989 20.9922 19.2911 22.2882 19.9999 23.5842C20.7086 22.2882 21.7008 20.9922 23.4018 20.9922H27.5126C29.4971 20.9922 31.0563 22.5762 31.0563 24.5922V40.0001ZM10.9279 37.9841H29.0718V24.7362C29.0718 23.8722 28.3631 23.1522 27.5126 23.1522H23.4018C21.8426 23.1522 21.1338 26.4642 20.9921 26.8962L20.8503 27.7602H19.2911L19.0076 26.8962C18.8659 26.4642 18.1571 23.1522 16.5979 23.1522H12.4871C11.6366 23.1522 10.9279 23.8722 10.9279 24.7362V37.9841Z" fill="#157BFA"/>
<path d="M9.21375 10.08C6.5205 10.08 4.2525 7.77598 4.2525 5.03999C4.2525 2.30399 6.5205 0 9.21375 0C11.907 0 14.175 2.30399 14.175 5.03999C14.175 7.77598 11.907 10.08 9.21375 10.08ZM9.21375 2.01599C7.51275 2.01599 6.237 3.31199 6.237 5.03999C6.237 6.76798 7.51275 8.06398 9.21375 8.06398C10.9147 8.06398 12.1905 6.76798 12.1905 5.03999C12.1905 3.31199 10.9147 2.01599 9.21375 2.01599Z" fill="#157BFA"/>
<path d="M7.08749 32.2242H0V17.8242C0 16.0962 1.4175 14.6562 3.1185 14.6562H13.041V16.6722H3.1185C2.5515 16.6722 1.9845 17.2482 1.9845 17.8242V30.3522H7.08749V32.2242Z" fill="#157BFA"/>
<path d="M30.7862 10.08C28.0929 10.08 25.825 7.77598 25.825 5.03999C25.825 2.30399 28.0929 0 30.7862 0C33.4794 0 35.7474 2.30399 35.7474 5.03999C35.7474 7.77598 33.6212 10.08 30.7862 10.08ZM30.7862 2.01599C29.2269 2.01599 27.8094 3.31199 27.8094 5.03999C27.8094 6.76798 29.0852 8.06398 30.7862 8.06398C32.4872 8.06398 33.7629 6.76798 33.7629 5.03999C33.7629 3.31199 32.4872 2.01599 30.7862 2.01599Z" fill="#157BFA"/>
<path d="M40 32.9442H32.9125V30.9282H38.0155V17.8242C38.0155 17.2482 37.4485 16.6722 36.8815 16.6722H26.8173V14.6562H36.8815C38.5825 14.6562 40 16.0962 40 17.8242V32.9442Z" fill="#157BFA"/>
</svg>
