<svg width="40" height="40" viewBox="0 0 40 40" fill="none" xmlns="http://www.w3.org/2000/svg">
<path d="M25.4467 22.1429C25.4467 21.4286 25.2681 20.7143 25.0895 20.0893L25.9824 19.5536L25.1788 18.125L24.286 18.6607C23.3931 17.5893 22.2324 16.875 20.8038 16.6071V15.625H19.1967V16.6071C17.7681 16.7857 16.5181 17.5893 15.7145 18.6607L14.8217 18.125L13.9288 19.6429L14.8217 20.1786C14.5538 20.8036 14.4645 21.5179 14.4645 22.2321C14.4645 22.9464 14.6431 23.6607 14.8217 24.2857L13.9288 24.8214L14.7324 26.25L15.6253 25.7143C16.5181 26.7857 17.6788 27.5 19.1074 27.7679V28.5714H20.7145V27.5893C22.1431 27.4107 23.3931 26.6071 24.1967 25.5357L25.1788 26.0714L25.9824 24.6429L25.0895 24.1071C25.2681 23.4821 25.4467 22.8571 25.4467 22.1429ZM19.911 25.9821C17.7681 25.9821 15.9824 24.1964 15.9824 22.0536C15.9824 19.9107 17.7681 18.125 19.911 18.125C22.0538 18.125 23.8395 19.9107 23.8395 22.0536C23.8395 24.2857 22.0538 25.9821 19.911 25.9821Z" fill="currentColor"/>
<path d="M19.9106 20.2679C18.9285 20.2679 18.0356 21.0715 18.0356 22.1429C18.0356 23.2144 18.8392 24.0179 19.9106 24.0179C20.9821 24.0179 21.7856 23.2144 21.7856 22.1429C21.7856 21.0715 20.9821 20.2679 19.9106 20.2679ZM19.7321 22.1429C19.7321 22.0537 19.8214 21.8751 19.9999 21.8751C20.1785 21.8751 20.2678 21.9644 20.2678 22.1429C20.1785 22.4108 19.7321 22.4108 19.7321 22.1429Z" fill="currentColor"/>
<path d="M20 0C8.92857 0 0 8.92857 0 20C0 31.0714 8.92857 40 20 40C31.0714 40 40 31.0714 40 20C40 8.92857 31.0714 0 20 0ZM12.5893 36.875V33.6607L27.2321 33.5714V36.9643C25 37.8571 22.5893 38.3929 20 38.3929C17.4107 38.3929 14.9107 37.8571 12.5893 36.875ZM28.8393 36.0714V33.4821H31.9643V10.625H26.25V12.2321H30.3571V31.875L9.46429 31.9643V12.3214H13.6607V10.7143H7.85714V33.5714H10.9821V35.9821C5.35714 32.8571 1.60714 26.7857 1.60714 19.9107C1.60714 10 9.46429 1.96429 19.1964 1.51786V10.625L16.6071 7.94643L15.4464 9.10714L20 13.75L24.5536 9.10714L23.3929 7.94643L20.8036 10.625V1.60714C30.5357 2.05357 38.3929 10.0893 38.3929 20C38.3929 26.9643 34.5536 32.9464 28.8393 36.0714Z" fill="currentColor"/>
</svg>
