<svg width="36" height="40" viewBox="0 0 36 40" fill="none" xmlns="http://www.w3.org/2000/svg">
<path d="M31.882 22.5176H33.8746V20.5596H2.12551V22.5176H3.98529V38.0419H1.32898V39.9999H34.9373V38.0419H31.882V22.5176ZM30.0222 38.0419H24.8414V22.5176H30.0222V38.0419ZM18.1993 38.0419H17.8008V29.0909C17.8008 28.8112 18.1993 28.8112 18.1993 29.0909V38.0419ZM17.9336 26.8532C16.7381 26.8532 15.8082 27.8322 15.8082 29.0909V38.0419H13.0185V22.5176H22.9816V38.0419H20.0591V29.0909C20.0591 27.8322 19.1292 26.8532 17.9336 26.8532ZM5.84507 22.5176H11.0259V38.0419H5.84507V22.5176Z" fill="#157BFA"/>
<path d="M14.214 8.81109L12.8856 10.0698L17.9336 15.6642L22.9816 10.0698L21.6531 8.81109L18.8635 11.7481V0H17.0037V11.7481L14.214 8.81109Z" fill="#157BFA"/>
<path d="M22.583 4.75488L21.3875 6.15347L32.5461 16.6429H3.32103L14.4797 6.15347L13.2841 4.75488L0.398524 16.6429L0 17.3422L0.398524 18.6009H34.8044L35.4686 18.3212L36 17.0624L22.583 4.75488Z" fill="#157BFA"/>
</svg>
