<svg width="40" height="40" viewBox="0 0 40 40" fill="none" xmlns="http://www.w3.org/2000/svg">
<path d="M34.1071 5.89286C30.3571 2.05357 25.3571 0 20 0C14.6429 0 9.64286 2.05357 5.89286 5.89286C2.05357 9.64286 0 14.6429 0 20C0 25.3571 2.05357 30.3571 5.89286 34.1071C9.64286 37.8571 14.7321 40 20 40C25.2679 40 30.3571 37.9464 34.1071 34.1071C37.8571 30.3571 40 25.2679 40 20C40 14.7321 37.9464 9.64286 34.1071 5.89286ZM33.0357 33.0357C29.5536 36.5179 24.9107 38.3929 20 38.3929C15.0893 38.3929 10.4464 36.5179 6.96429 33.0357C3.48214 29.5536 1.60714 24.9107 1.60714 20C1.60714 15.0893 3.48214 10.4464 6.96429 6.96429C10.4464 3.48214 15.0893 1.60714 20 1.60714C24.9107 1.60714 29.5536 3.48214 33.0357 6.96429C36.5179 10.4464 38.3929 15.0893 38.3929 20C38.3929 24.9107 36.5179 29.5536 33.0357 33.0357Z" fill="currentColor"/>
<path d="M23.125 17.2323C25.5357 17.2323 27.4107 15.268 27.4107 12.9466C27.4107 10.6252 25.4464 8.66089 23.125 8.66089C20.8036 8.66089 18.8393 10.6252 18.8393 12.9466C18.8393 13.6609 19.0179 14.2859 19.2857 14.9109L16.3393 17.143C15.5357 16.3395 14.4643 15.8037 13.2143 15.8037C10.8036 15.8037 8.92859 17.768 8.92859 20.0895C8.92859 22.4109 10.8929 24.3752 13.2143 24.3752C14.375 24.3752 15.4464 23.9287 16.25 23.1252L19.1964 25.1787C18.9286 25.7145 18.8393 26.3395 18.8393 26.9645C18.8393 29.3752 20.8036 31.2502 23.125 31.2502C25.4464 31.2502 27.4107 29.2859 27.4107 26.9645C27.4107 24.643 25.4464 22.6787 23.125 22.6787C21.9643 22.6787 20.8929 23.1252 20.0893 23.9287L17.1429 21.8752C17.4107 21.3395 17.5 20.7145 17.5 20.0895C17.5 19.4645 17.4107 18.9287 17.1429 18.393L20.1786 16.0716C21.0714 16.8752 22.0536 17.2323 23.125 17.2323ZM13.3036 22.8573C11.7857 22.8573 10.625 21.6073 10.625 20.1787C10.625 18.7502 11.875 17.5002 13.3036 17.5002C14.7322 17.5002 15.9822 18.7502 15.9822 20.1787C15.9822 21.6073 14.8214 22.8573 13.3036 22.8573ZM23.125 24.3752C24.6429 24.3752 25.8036 25.6252 25.8036 27.0537C25.8036 28.4823 24.5536 29.7323 23.125 29.7323C21.6964 29.7323 20.4464 28.4823 20.4464 27.0537C20.4464 25.6252 21.6072 24.3752 23.125 24.3752ZM23.125 10.268C24.6429 10.268 25.8036 11.518 25.8036 12.9466C25.8036 14.3752 24.5536 15.6252 23.125 15.6252C21.6964 15.6252 20.4464 14.3752 20.4464 12.9466C20.4464 11.518 21.6072 10.268 23.125 10.268Z" fill="currentColor"/>
</svg>
