<svg width="65" height="20" viewBox="0 0 65 20" fill="none" xmlns="http://www.w3.org/2000/svg">
<path d="M0 2C0 0.895431 0.895431 0 2 0H63C64.1046 0 65 0.895431 65 2V18C65 19.1046 64.1046 20 63 20H2C0.89543 20 0 19.1046 0 18V2Z" fill="#2858CD"/>
<path d="M23.9636 8.72069H23.7122L21.9856 10.6811H24.7347L24.7179 11.8291C24.7179 11.8291 24.0139 13.1183 22.0862 12.8004C21.466 12.7121 21.1308 12.4825 20.7285 12.0233C20.2591 11.4935 20.0077 10.8577 20.0077 10.0806C20.0077 9.30351 20.2591 8.66771 20.7452 8.15553C21.2313 7.6257 21.8515 7.37844 22.6059 7.37844C22.7735 7.37844 22.9411 7.3961 23.1087 7.41376C23.5781 7.48441 24.0139 7.66102 24.3994 7.96126L25.6734 6.51304C25.1035 6.05385 24.3827 5.70063 23.5781 5.54168C23.2596 5.48869 22.9411 5.45337 22.6226 5.45337C21.3319 5.45337 20.2423 5.8949 19.3707 6.77796C18.5661 7.59037 18.1303 8.61472 18.08 9.851V8.42045H16.2529V11.4935C16.1188 10.6987 15.6159 10.0983 14.761 9.69205C14.5431 9.58609 14.2246 9.4448 13.772 9.26819L12.9339 8.91496C12.4645 8.70303 12.2466 8.42045 12.2466 8.12021C12.2466 7.67868 12.6154 7.37844 13.2691 7.37844C13.9061 7.37844 14.7107 7.67868 15.1968 8.19085L16.102 6.7603C16.1691 7.32545 16.6049 7.74932 17.1748 7.74932C17.7783 7.74932 18.2476 7.25481 18.2476 6.61901C18.2476 5.96554 17.7783 5.48869 17.1748 5.48869C16.5546 5.48869 16.0852 5.98321 16.0852 6.61901V6.63667C15.2974 5.87724 14.3419 5.48869 13.2356 5.48869C12.3472 5.48869 11.6097 5.75361 11.0397 6.26578C10.4698 6.77796 10.2016 7.43142 10.2016 8.20852C10.2016 9.19754 10.671 9.97463 11.5761 10.4868C11.8276 10.6281 12.1963 10.7871 12.6825 10.9813L13.4535 11.2816C13.9564 11.5112 14.1911 11.7937 14.1911 12.1293C14.1911 12.6238 13.7217 12.9417 13.068 12.9417C12.1461 12.9417 11.375 12.5355 10.738 11.7408L9.69873 13.189C10.4866 14.2486 11.7102 14.8315 13.0512 14.8315C14.0235 14.8315 14.8113 14.5665 15.398 14.0367C15.8673 13.6305 16.1523 13.1007 16.2529 12.5002V14.6725H18.08V10.4162C18.1303 11.6171 18.5493 12.6415 19.3372 13.4539C20.1753 14.3193 21.2649 14.7608 22.5723 14.7608C24.0642 14.7608 25.3549 14.1957 26.478 13.03V8.73835H23.9636V8.72069Z" fill="white"/>
<path d="M54.6889 6.47827C54.1861 5.89546 53.3982 5.59521 52.359 5.59521H49.0735V8.03246C48.9729 7.43198 48.7383 6.9198 48.336 6.47827C47.8331 5.89546 47.0452 5.59521 46.006 5.59521H42.7205V14.2139L39.7536 5.59521H38.0773L35.0601 14.1079V14.6201H36.8704L37.4571 12.801H40.3235L40.8934 14.6201H44.665V11.6353H45.8886C46.995 11.6353 47.7996 11.3528 48.336 10.7876C48.7383 10.3637 48.9897 9.85156 49.0903 9.25108V14.6201H51.0012V11.6353H52.2249C53.3312 11.6353 54.1358 11.3528 54.6722 10.7876C55.2086 10.2224 55.4768 9.516 55.4768 8.6506C55.46 7.7852 55.2086 7.06109 54.6889 6.47827ZM37.9767 11.0349L38.8987 8.17374L39.8206 11.0349H37.9767ZM45.9557 9.81624H44.665V7.4673H46.0395C46.7268 7.4673 47.1793 7.99713 47.1793 8.63294C47.1793 9.26874 46.7435 9.81624 45.9557 9.81624ZM52.2919 9.81624H51.0012V7.4673H52.3757C53.063 7.4673 53.5156 7.99713 53.5156 8.63294C53.5156 9.26874 53.0797 9.81624 52.2919 9.81624Z" fill="#62DA97"/>
<path d="M30.7528 10.4697L26.4448 5.59521V8.72124L28.339 10.8759L30.2332 13.0129H30.7528H31.2557L33.1666 10.8759V14.6201H35.044V5.59521L30.7528 10.4697Z" fill="#62DA97"/>
<path d="M28.3385 10.877L26.4443 13.014V14.6211H28.3385V10.877Z" fill="#62DA97"/>
</svg>
