<svg width="40" height="40" viewBox="0 0 40 40" fill="none" xmlns="http://www.w3.org/2000/svg">
<path d="M20 0C8.92857 0 0 8.92857 0 20C0 31.0714 8.92857 40 20 40C31.0714 40 40 31.0714 40 20C40 8.92857 31.0714 0 20 0ZM20 1.60714C26.875 1.60714 32.8571 5.35714 35.9821 10.9821H14.1964V19.1964H1.69643C2.05357 9.46429 10.0893 1.60714 20 1.60714ZM20 38.3929C10.0893 38.3929 2.05357 30.5357 1.60714 20.8036H20.0893L17.4107 23.3929L18.5714 24.5536L23.2143 20L18.5714 15.4464L17.4107 16.6071L20.0893 19.1964H15.7143V12.5893H36.7857C37.7679 14.8214 38.3929 17.3214 38.3929 20C38.3929 22.6786 37.8571 25.1786 36.7857 27.4107H15.8036V22.2321H14.1964V29.0179H36.0714C35.7143 29.7321 35.2679 30.3571 34.8214 30.9821H14.2857V32.5893H33.4821C30 36.1607 25.2679 38.3929 20 38.3929Z" fill="currentColor"/>
<path d="M29.6429 24.375C32.0537 24.375 34.0179 22.4107 34.0179 20C34.0179 17.5893 32.0537 15.625 29.6429 15.625C27.2322 15.625 25.2679 17.5893 25.2679 20C25.2679 22.4107 27.2322 24.375 29.6429 24.375ZM29.6429 17.2321C31.1608 17.2321 32.4108 18.4821 32.4108 20C32.4108 21.5179 31.1608 22.7679 29.6429 22.7679C28.1251 22.7679 26.8751 21.5179 26.8751 20C26.8751 18.4821 28.1251 17.2321 29.6429 17.2321Z" fill="currentColor"/>
</svg>
