<svg width="16" height="13" viewBox="0 0 16 13" fill="none" xmlns="http://www.w3.org/2000/svg">
<path d="M13.7601 3.32025C13.7601 3.47024 13.7601 3.54524 13.7601 3.69524C13.7601 7.67015 10.7361 12.3201 5.33626 12.3201C3.68029 12.3201 2.09633 11.7951 0.800354 10.9701C1.01635 10.9701 1.23234 11.0451 1.52034 11.0451C2.88831 11.0451 4.18428 10.5951 5.19226 9.77011C3.89629 9.77011 2.81631 8.87013 2.45632 7.67015C2.67231 7.67015 2.81631 7.74515 3.03231 7.74515C3.3203 7.74515 3.53629 7.74515 3.82429 7.67015C2.45632 7.37016 1.44834 6.17019 1.44834 4.67022C1.44834 4.67022 1.44834 4.67022 1.44834 4.59522C1.80833 4.74522 2.24032 4.89521 2.74431 4.89521C1.95233 4.37022 1.44834 3.39525 1.44834 2.34527C1.44834 1.82028 1.59234 1.29529 1.88033 0.845301C3.3203 2.64526 5.48025 3.92023 8.0002 3.99523C7.8562 3.84524 7.7842 3.62024 7.7842 3.32025C7.7842 1.67028 9.08017 0.320312 10.7361 0.320312C11.6001 0.320312 12.3201 0.695304 12.8961 1.29529C13.5441 1.14529 14.1921 0.920299 14.7681 0.545308C14.5521 1.22029 14.0481 1.82028 13.4721 2.19527C14.0481 2.12027 14.6241 1.97028 15.2 1.74528C14.7681 2.34527 14.3361 2.87026 13.7601 3.32025Z" fill="currentColor"/>
</svg>
