<svg width="44" height="44" viewBox="0 0 44 44" fill="none" xmlns="http://www.w3.org/2000/svg"><path d="M22 25.785c2.3 0 4.2-1.902 4.2-4.204 0-2.302-1.9-4.203-4.2-4.203-2.3 0-4.2 1.901-4.2 4.203 0 2.302 1.9 4.204 4.2 4.204zm0-6.806c1.4 0 2.6 1.1 2.6 2.602 0 1.401-1.2 2.502-2.6 2.502-1.4 0-2.6-1.1-2.6-2.502 0-1.401 1.2-2.602 2.6-2.602zm20.1 23.42V26.986l-4.7-4.604h-5v-7.507l-9.6-5.104V7.67c1.1.3 2.2 0 3.2-.3s1.9-.5 2.7-.2l1.1.5V1.164l-.1-.2c-1.7-1.501-3.5-.901-5-.5-.9.3-1.7.5-2.4.3l-1-.2V9.77l-9.7 5.104v7.507h-5l-4.7 4.604v15.413H0V44h44v-1.601h-1.9zM22.9 2.365c.8 0 1.5-.2 2.2-.4 1.4-.4 2.3-.6 3.2 0v3.503c-.9-.1-1.8.2-2.6.4-1 .3-1.9.5-2.8.2V2.365zm13.9 21.618l3.7 3.703V42.5h-8V23.983h4.3zM22 11.073l8.8 4.703V42.4h-3.1v-11.91H16.2v11.91h-3.1V15.776l8.9-4.704zm-.8 31.326h-3.3V32.09h3.3v10.309zm1.6-10.309h3.3v10.309h-3.3V32.09zM3.5 27.586l3.7-3.603h4.3V42.4h-8V27.586zm6.1 6.406v1.6h-4v-1.6h4zm24.8 1.6v-1.6h4v1.6h-4z" fill="#35F0DA"/></svg>
