<svg width="45" height="45" viewBox="0 0 45 45" fill="none" xmlns="http://www.w3.org/2000/svg"><path d="M39.5 0h-35C2 0 0 2.1 0 4.7v22.6c0 2.5 1.9 4.4 4.5 4.4h16.7v3.7h-2.4c-4 0-5.3 2.8-6.3 4.8l-.3.7c-.1.2-.2.5-.2.8 0 1.3 1.1 2.4 2.5 2.4h15.2c1.4 0 2.5-1 2.5-2.3 0-.3-.1-.5-.2-.7l-.3-.7c-1-2.1-2.3-4.9-6.3-4.9H23v-3.7h16.7c2.6 0 4.5-1.9 4.5-4.4V4.7C44 2.1 42 0 39.5 0zm-9.4 40.9l.4.8c0 .4-.4.7-.9.7H14.4c-.5 0-.9-.4-.8-.8l.3-.7c.9-1.9 1.9-3.9 4.9-3.9h6.4c3-.1 4 2 4.9 3.9zm12.3-13.6c0 1.6-1.2 2.8-2.9 2.8h-35c-1.7 0-2.9-1.1-2.9-2.8V4.7c0-1.7 1.3-3.1 2.9-3.1h35c1.6 0 2.9 1.4 2.9 3.1v22.6zm-6.8-15.5c-1.2 0-2.2 1-2.2 2.2 0 .4.1.8.3 1.1l-5.1 5.5c-.3-.2-.6-.2-1-.2-.2 0-.3 0-.5.1l-5.8-8.8c.3-.4.5-.9.5-1.4 0-1.2-1-2.2-2.2-2.2-1.2 0-2.2 1-2.2 2.2 0 .3.1.6.2.9l-6.5 5.6c-.3-.2-.7-.3-1-.3-1.2 0-2.2 1-2.2 2.2 0 1.2 1 2.2 2.2 2.2 1.2 0 2.2-1 2.2-2.2 0-.3-.1-.5-.1-.7l6.6-5.7c.3.1.6.2.9.2h.2l5.9 8.9c-.2.4-.4.8-.4 1.2 0 1.2 1 2.2 2.2 2.2 1.2 0 2.2-1 2.2-2.2 0-.3-.1-.5-.1-.7l5.3-5.7c.2.1.4.1.6.1 1.2 0 2.2-1 2.2-2.2 0-1.3-1-2.3-2.2-2.3zm-25.5 7.5c-.3 0-.6-.3-.6-.6s.3-.6.6-.6.6.3.6.6-.3.6-.6.6zm8.9-9c0-.3.3-.6.6-.6s.6.3.6.6-.3.6-.6.6-.6-.3-.6-.6zm8.6 12.9c-.3 0-.6-.3-.6-.6s.3-.6.6-.6.6.3.6.6-.3.6-.6.6zm8-8.6c-.3 0-.6-.3-.6-.6s.3-.6.6-.6.6.3.6.6c0 .4-.3.6-.6.6z" fill="#35F0DA"/></svg>
