<svg width="44" height="44" viewBox="0 0 44 44" fill="none" xmlns="http://www.w3.org/2000/svg"><path d="M0 12h4.6v1.6H0V12zm0 6.2h4.6v-1.6H0v1.6zm0 4.6h4.6v-1.6H0v1.6zm0 4.6h4.6v-1.6H0v1.6zM0 32h4.6v-1.6H0V32zm39.4-20v1.6H44V12h-4.6zm0 6.2H44v-1.6h-4.6v1.6zm0 4.6H44v-1.6h-4.6v1.6zm0 4.6H44v-1.6h-4.6v1.6zm0 4.6H44v-1.6h-4.6V32zM32 0h-1.6v4.6H32V0zm-4.6 0h-1.6v4.6h1.6V0zm-4.6 0h-1.6v4.6h1.6V0zm-4.6 0h-1.6v4.6h1.6V0zm-4.6 0H12v4.6h1.6V0zm16.8 44H32v-4.6h-1.6V44zm-4.6 0h1.6v-4.6h-1.6V44zm-4.6 0h1.6v-4.6h-1.6V44zm-4.6 0h1.6v-4.6h-1.6V44zM12 44h1.6v-4.6H12V44zM6.5 6.5h30.9v30.9H6.5V6.5zm1.6 29.4h27.7V8.1H8.1v27.8zm6.2-25.7h19.5v19.5l-4.1 4.1H10.2V14.3l4.1-4.1zm.7 1.6L11.8 15v17.2H29l3.2-3.2V11.8H15z" fill="#35F0DA"/></svg>
