<svg width="38" height="44" viewBox="0 0 38 44" fill="none" xmlns="http://www.w3.org/2000/svg"><path d="M33.6 35.4l-1.2 1.1 2.4 2.3H16.9C8.5 38.9 1.7 32.2 1.7 24c0-8.2 6.8-15 15.2-15 8.4 0 15.3 6.7 15.3 15 0 5.2-2.7 9.9-7.2 12.7l.9 1.4c5-3.1 8-8.3 8-14.1 0-4.7-2.1-9-5.3-12l1.7-1.6 1.3 1.3 1.2-1.1L29 6.9 27.8 8 29 9.1l-1.8 1.7C25 9.2 22.4 8 19.6 7.6V5.3h2.8V0h-11v5.3h2.8v2.3c-2.8.5-5.4 1.6-7.6 3.2L4.8 9.1l1.3-1.3L5 6.7l-3.8 3.7 1.2 1.1 1.3-1.3 1.7 1.6C2.1 15 0 19.2 0 24c0 9.1 7.6 16.6 16.9 16.6h17.9l-2.4 2.3 1.2 1.1 4.4-4.3-4.4-4.3zM13 1.6h7.8v2.1H13V1.6zm2.9 3.7H18v2.1c-.4 0-.7-.1-1.1-.1-.4 0-.7 0-1.1.1V5.3h.1zm1 7.4c-4.7 0-8.8 2.7-10.6 6.9L4.8 19c2.1-4.8 6.8-7.9 12.1-7.9 2.5 0 5 .7 7.1 2l-.9 1.4c-1.8-1.2-4-1.8-6.2-1.8zm8.5 1.9l-6.5 6.3c-.6-.3-1.2-.6-1.9-.6-2 0-3.7 1.6-3.7 3.6 0 .7.2 1.3.6 1.9L11.7 28l1.2 1.1L15 27c.6.3 1.2.6 1.9.6 2 0 3.7-1.6 3.7-3.6 0-.7-.2-1.3-.6-1.9l6.5-6.3-1.1-1.2zm-8.5 11.3c-1.1 0-2-.9-2-2s.9-2 2-2 2 .9 2 2c0 1.2-.9 2-2 2z" fill="#35F0DA"/></svg>
