<svg width="49" height="45" viewBox="0 0 49 45" fill="none" xmlns="http://www.w3.org/2000/svg"><path d="M44.7 7.5H33.3v-4c0-1.9-1.5-3.5-3.5-3.5H18c-1.9 0-3.5 1.6-3.5 3.5v4H3.3C1.5 7.5 0 9 0 10.8v30c0 1.8 1.5 3.3 3.3 3.3h41.5c1.8 0 3.3-1.5 3.3-3.3v-30C48 9 46.5 7.5 44.7 7.5zM16.1 3.6c0-1 .8-1.9 1.9-1.9h11.9c1 0 1.9.8 1.9 1.9v4H16.1v-4zM3.3 9.1h41.5c.9 0 1.7.7 1.7 1.7v17.6H28.1v-1.6c0-.5-.4-.9-.9-.9h-6.4c-.5 0-.9.4-.9.9v1.6H1.6V10.8c0-.9.7-1.7 1.7-1.7zm23.2 18.3v3.4h-5.1v-3.4h5.1zm18.2 15.1H3.3c-.9 0-1.7-.7-1.7-1.7V30h18.3v1.6c0 .5.4.9.9.9h6.4c.5 0 .9-.4.9-.9V30h18.3v10.9c0 .9-.7 1.6-1.7 1.6z" fill="#35F0DA"/></svg>
