<svg width="48" height="45" viewBox="0 0 48 45" fill="none" xmlns="http://www.w3.org/2000/svg"><path d="M48 17l-1-.3c-.1 0-.2-.1-.4-.1V4.4C46.6 2 44.7 0 42.3 0h-38C1.9 0 0 2 0 4.4v25.5c0 2.4 1.9 4.4 4.3 4.4h22.1v1.3c0 .4.1.8.3 1.1 2.6 3.5 5.9 6 9.9 7.3.2.1.4.2.6.2.2 0 .4-.1.6-.2 3.9-1.3 7.3-3.7 9.9-7.3.2-.3.3-.7.3-1.1V17zM4.3 32.6c-1.5 0-2.7-1.2-2.7-2.8V4.4c0-1.5 1.2-2.8 2.7-2.8h38c1.5 0 2.7 1.2 2.7 2.8v11.9c-1.7-.4-3.4-.6-5.1-.8-.7 0-1 .5-2 2.1-.2.4-.5.9-.8 1.2-.2-.4-.6-.8-.8-1.2-1-1.6-1.4-2.2-2.1-2.1-2 .2-4.1.5-6.1 1-.3.1-.6.2-.9.2l-1 .3v15.5H4.3v.1zm42.1 3c-2.4 3.3-5.4 5.5-9.1 6.7h-.1c-.1 0-.1 0-.1-.1-3.6-1.2-6.7-3.4-9.1-6.7V18.2c.2-.1.4-.1.6-.2 1.8-.5 3.7-.8 5.5-.9.2.3.6.9.9 1.4 1.1 1.7 1.5 2.3 2.1 2.3.7 0 1.1-.6 2.1-2.3.3-.4.6-1 .9-1.3 1.9.2 3.8.5 5.6.9.2.1.4.1.6.2v17.2l.1.1zm-14.3-5.2L31 29.3l5.7-5.8 1.1 1.1-5.7 5.8zm10.2-6.7l1.1 1.1L32.3 36l-1.1-1.1 11.1-11.2zM8.4 17.1h6.1V11H8.4v6.1zm1.6-4.5h2.9v2.9H10v-2.9z" fill="#35F0DA"/></svg>
