<svg width="40" height="40" viewBox="0 0 40 40" fill="none" xmlns="http://www.w3.org/2000/svg">
<path d="M34.1071 5.89286C30.3571 2.05357 25.3571 0 20 0C14.6429 0 9.64286 2.05357 5.89286 5.89286C2.05357 9.64286 0 14.6429 0 20C0 25.3571 2.05357 30.3571 5.89286 34.1071C9.64286 37.8571 14.7321 40 20 40C25.3571 40 30.3571 37.9464 34.1071 34.1071C37.8571 30.3571 40 25.2679 40 20C40 14.7321 37.9464 9.64286 34.1071 5.89286ZM33.0357 33.0357C25.8929 40.1786 14.1964 40.1786 7.05357 33.0357C3.57143 29.5536 1.69643 24.9107 1.69643 20C1.69643 15.0893 3.57143 10.4464 7.05357 6.96429C10.625 3.39286 15.3571 1.60714 20.0893 1.60714C24.8214 1.60714 29.4643 3.39286 33.125 6.96429C36.6071 10.4464 38.4821 15.0893 38.4821 20C38.3929 24.9107 36.5179 29.5536 33.0357 33.0357Z" fill="#1A5BD1"/>
<path d="M33.3036 24.466C32.8572 23.3945 32.1429 22.591 31.0715 22.3231C29.1072 21.6981 26.6072 22.7695 25.1786 23.5731C24.9107 22.3231 23.8393 21.4302 22.5 21.4302H18.4822L18.2143 21.2517C16.6072 20.0017 15.8036 19.6445 12.0536 19.6445H8.83932V21.2517H12.2322C15.625 21.2517 16.0715 21.5195 17.4107 22.591L18.125 23.1267H22.5893C23.2143 23.1267 23.6607 23.6624 23.6607 24.1981V24.2874H17.0536V25.8945H24.7322L24.9107 25.716C25.8929 25.0017 28.8393 23.3945 30.625 23.9302C30.8929 24.0195 31.1607 24.1981 31.4286 24.3767L19.4643 28.841C18.9286 29.0195 18.6607 29.3767 18.3929 29.5552C18.3036 29.6445 18.2143 29.7338 18.2143 29.7338L9.01789 26.4302L8.48218 27.9481L17.6786 31.2517C17.8572 31.341 18.0357 31.341 18.2143 31.341C18.8393 31.341 19.2857 30.8945 19.5536 30.6267C19.7322 30.4481 19.8215 30.3588 20 30.2695L33.5715 25.1802L33.3036 24.466Z" fill="#1A5BD1"/>
<path d="M21.4286 20.2676C24.6429 20.2676 27.2321 17.6783 27.2321 14.464C27.2321 11.2498 24.6429 8.74976 21.4286 8.74976C18.2143 8.74976 15.625 11.339 15.625 14.5533C15.625 17.7676 18.2143 20.2676 21.4286 20.2676ZM21.4286 10.3569C23.75 10.3569 25.625 12.2319 25.625 14.5533C25.625 16.8748 23.75 18.7498 21.4286 18.7498C19.1071 18.7498 17.2321 16.8748 17.2321 14.5533C17.2321 12.2319 19.1071 10.3569 21.4286 10.3569Z" fill="#1A5BD1"/>
</svg>
