<svg width="40" height="40" viewBox="0 0 40 40" fill="none" xmlns="http://www.w3.org/2000/svg">
<path d="M20.0523 15.8174C18.4428 15.8174 17.1909 17.0667 17.1909 18.6729C17.1909 20.2792 18.4428 21.5285 20.0523 21.5285C21.6618 21.5285 22.9137 20.2792 22.9137 18.6729C22.8243 17.0667 21.5724 15.8174 20.0523 15.8174ZM20.0523 19.833C19.337 19.833 18.8004 19.2976 18.8004 18.5837C18.8004 17.8698 19.337 17.3344 20.0523 17.3344C20.7677 17.3344 21.3042 17.8698 21.3042 18.5837C21.2147 19.2976 20.6782 19.833 20.0523 19.833Z" fill="#1A5BD1"/>
<path d="M14.3296 17.0664C13.4352 17.0664 12.7197 17.7803 12.7197 18.6727C12.7197 19.565 13.4352 20.2789 14.3296 20.2789C15.2239 20.2789 15.9394 19.565 15.9394 18.6727C15.9394 17.7803 15.2239 17.0664 14.3296 17.0664Z" fill="#1A5BD1"/>
<path d="M25.6858 17.0664C24.7914 17.0664 24.0759 17.7803 24.0759 18.6727C24.0759 19.565 24.7914 20.2789 25.6858 20.2789C26.5801 20.2789 27.2956 19.565 27.2956 18.6727C27.385 17.7803 26.5801 17.0664 25.6858 17.0664Z" fill="#1A5BD1"/>
<path d="M8.07007 25.0082V25.8113V29.3808H32.0342V25.8113V25.0082V11.4443H8.07007V25.0082ZM30.4247 27.7745H9.6796V25.8113H30.4247V27.7745ZM9.6796 13.0506H30.4247V24.2051H9.6796V13.0506Z" fill="#1A5BD1"/>
<path d="M34.1802 5.82264C26.4008 -1.94088 13.7034 -1.94088 5.83455 5.82264C-1.94485 13.5862 -1.94485 26.2577 5.83455 34.1104C9.59012 37.8583 14.687 40 19.9626 40C25.2383 40 30.3352 37.9476 34.0907 34.1104C37.8463 30.3625 39.9924 25.2761 39.9924 20.0112C39.9924 14.7462 38.0252 9.65979 34.1802 5.82264ZM33.1071 33.0396C25.9537 40.1785 14.2399 40.1785 7.0864 33.0396C-0.0670636 25.9007 -0.0670636 14.2108 7.0864 7.07195C10.6631 3.50251 15.4023 1.71779 20.1415 1.71779C24.8807 1.71779 29.6198 3.50251 33.1966 7.07195C36.6839 10.5521 38.5617 15.1924 38.5617 20.1004C38.4722 24.9191 36.505 29.5594 33.1071 33.0396Z" fill="#1A5BD1"/>
</svg>
