<svg width="40" height="40" viewBox="0 0 40 40" fill="none" xmlns="http://www.w3.org/2000/svg">
<path d="M34.1837 5.82264C26.4035 -1.94088 13.7048 -1.94088 5.83514 5.82264C-1.94505 13.5862 -1.94505 26.2577 5.83514 34.1104C9.5911 37.8583 14.6885 40 19.9647 40C25.2409 40 30.3383 37.9476 34.0942 34.1104C37.8502 30.3625 39.9965 25.2761 39.9965 20.0112C39.9965 14.7462 38.029 9.65979 34.1837 5.82264ZM33.1105 33.0396C25.9563 40.1785 14.2413 40.1785 7.08713 33.0396C-0.0670705 25.9007 -0.0670705 14.2108 7.08713 7.07195C10.6642 3.50251 15.4039 1.71779 20.1435 1.71779C24.8832 1.71779 29.6229 3.50251 33.2 7.07195C36.6876 10.5521 38.5656 15.1924 38.5656 20.1004C38.4762 24.9191 36.5088 29.5594 33.1105 33.0396Z" fill="#1A5BD1"/>
<path d="M10.2178 13.7645C10.2178 12.9614 10.8438 12.3367 11.6487 12.3367H28.4611V10.7305H11.6487C9.94957 10.7305 8.60815 12.069 8.60815 13.7645V26.2575C8.60815 27.8638 9.94957 29.2023 11.5593 29.2023H31.4122V15.2815H11.6487C10.8438 15.2815 10.2178 14.5676 10.2178 13.7645ZM29.8919 16.8877V27.6853H11.5593C10.8438 27.6853 10.2178 27.0606 10.2178 26.3468V16.5308C10.665 16.7985 11.1121 16.8877 11.6487 16.8877H29.8919Z" fill="#1A5BD1"/>
<path d="M25.8671 24.6517C27.2087 24.6517 28.2819 23.5809 28.2819 22.2424C28.2819 20.9038 27.2087 19.833 25.8671 19.833C24.5256 19.833 23.4524 20.9038 23.4524 22.2424C23.4524 23.5809 24.5256 24.6517 25.8671 24.6517ZM25.8671 21.4393C26.3143 21.4393 26.6721 21.7962 26.6721 22.2424C26.6721 22.6886 26.3143 23.0455 25.8671 23.0455C25.42 23.0455 25.0622 22.6886 25.0622 22.2424C25.0622 21.7962 25.42 21.4393 25.8671 21.4393Z" fill="#1A5BD1"/>
</svg>
