<svg width="40" height="40" viewBox="0 0 40 40" fill="none" xmlns="http://www.w3.org/2000/svg">
<path d="M34.1071 5.89286C30.3571 2.05357 25.3571 0 20 0C14.6429 0 9.64286 2.05357 5.89286 5.89286C2.05357 9.64286 0 14.6429 0 20C0 25.3571 2.05357 30.3571 5.89286 34.1071C9.64286 37.8571 14.7321 40 20 40C25.2679 40 30.3571 37.9464 34.1071 34.1071C37.8571 30.3571 40 25.2679 40 20C40 14.7321 37.9464 9.64286 34.1071 5.89286ZM33.0357 33.0357C29.5536 36.5179 24.9107 38.3929 20 38.3929C15.0893 38.3929 10.4464 36.5179 6.96429 33.0357C3.48214 29.5536 1.60714 24.9107 1.60714 20C1.60714 15.0893 3.48214 10.4464 6.96429 6.96429C10.4464 3.48214 15.0893 1.60714 20 1.60714C24.9107 1.60714 29.5536 3.48214 33.0357 6.96429C36.5179 10.4464 38.3929 15.0893 38.3929 20C38.3929 24.9107 36.5179 29.5536 33.0357 33.0357Z" fill="#1A5BD1"/>
<path d="M23.1249 17.2323C25.5356 17.2323 27.4106 15.268 27.4106 12.9466C27.4106 10.6252 25.4463 8.66089 23.1249 8.66089C20.8035 8.66089 18.8392 10.6252 18.8392 12.9466C18.8392 13.6609 19.0178 14.2859 19.2856 14.9109L16.3392 17.143C15.5356 16.3395 14.4642 15.8037 13.2142 15.8037C10.8035 15.8037 8.92847 17.768 8.92847 20.0895C8.92847 22.4109 10.8928 24.3752 13.2142 24.3752C14.3749 24.3752 15.4463 23.9287 16.2499 23.1252L19.1963 25.1787C18.9285 25.7145 18.8392 26.3395 18.8392 26.9645C18.8392 29.3752 20.8035 31.2502 23.1249 31.2502C25.4463 31.2502 27.4106 29.2859 27.4106 26.9645C27.4106 24.643 25.4463 22.6787 23.1249 22.6787C21.9642 22.6787 20.8928 23.1252 20.0892 23.9287L17.1428 21.8752C17.4106 21.3395 17.4999 20.7145 17.4999 20.0895C17.4999 19.4645 17.4106 18.9287 17.1428 18.393L20.1785 16.0716C21.0713 16.8752 22.0535 17.2323 23.1249 17.2323ZM13.3035 22.8573C11.7856 22.8573 10.6249 21.6073 10.6249 20.1787C10.6249 18.7502 11.8749 17.5002 13.3035 17.5002C14.732 17.5002 15.982 18.7502 15.982 20.1787C15.982 21.6073 14.8213 22.8573 13.3035 22.8573ZM23.1249 24.3752C24.6428 24.3752 25.8035 25.6252 25.8035 27.0537C25.8035 28.4823 24.5535 29.7323 23.1249 29.7323C21.6963 29.7323 20.4463 28.4823 20.4463 27.0537C20.4463 25.6252 21.607 24.3752 23.1249 24.3752ZM23.1249 10.268C24.6428 10.268 25.8035 11.518 25.8035 12.9466C25.8035 14.3752 24.5535 15.6252 23.1249 15.6252C21.6963 15.6252 20.4463 14.3752 20.4463 12.9466C20.4463 11.518 21.607 10.268 23.1249 10.268Z" fill="#1A5BD1"/>
</svg>
