<svg width="40" height="40" viewBox="0 0 40 40" fill="none" xmlns="http://www.w3.org/2000/svg">
<path d="M34.1071 5.89286C30.3571 2.05357 25.3571 0 20 0C14.6429 0 9.64286 2.05357 5.89286 5.89286C2.05357 9.64286 0 14.6429 0 20C0 25.3571 2.05357 30.3571 5.89286 34.1071C9.64286 37.8571 14.7321 40 20 40C25.2679 40 30.3571 37.9464 34.1071 34.1071C37.8571 30.2679 40 25.2679 40 20C40 14.7321 37.9464 9.64286 34.1071 5.89286ZM13.8393 25.7143V37.3214C12.1429 36.6964 10.5357 35.8929 9.10714 34.8214V25.7143H13.8393ZM30.8929 25.7143V34.8214C29.4643 35.8929 27.8571 36.7857 26.1607 37.3214V25.7143H30.8929ZM24.5536 37.7679C23.6607 37.9464 22.7679 38.125 21.875 38.2143V31.25C21.875 30.2679 21.0714 29.375 20 29.375C19.0179 29.375 18.125 30.1786 18.125 31.25V38.2143C17.1429 38.125 16.1607 37.9464 15.1786 37.6786H15.4464V25.7143H24.4643V37.7679H24.5536ZM19.7321 38.3929V31.3393C19.7321 31.0714 20.1786 31.0714 20.1786 31.3393V38.3929C20.0893 38.3929 20 38.3929 19.9107 38.3929C19.9107 38.3929 19.8214 38.3929 19.7321 38.3929ZM33.0357 33.0357C32.8571 33.2143 32.6786 33.3036 32.5893 33.4821V25.7143H34.375V24.1071H5.71429V25.7143H7.5V33.4821C7.32143 33.3036 7.14286 33.125 6.96429 33.0357C3.48214 29.5536 1.60714 24.9107 1.60714 20C1.60714 15.0893 3.48214 10.4464 6.96429 6.96429C10.2679 3.66071 14.5536 1.78571 19.1964 1.60714V16.6071L16.6071 13.9286L15.4464 15.0893L20 19.7321L24.5536 15.0893L23.3929 13.9286L20.8036 16.6071V1.60714C25.4464 1.78571 29.7321 3.66071 33.0357 6.96429C36.5179 10.4464 38.3929 15.0893 38.3929 20C38.3929 24.9107 36.5179 29.5536 33.0357 33.0357Z" fill="#1A5BD1"/>
<path d="M24.1965 10.5356L23.1251 11.7856L33.3036 20.7142H6.6965L16.8751 11.7856L15.8036 10.5356L4.1965 20.8035L3.83936 21.1606L4.1965 22.3214H35.1786L35.8036 22.1428L36.2501 21.1606L24.1965 10.5356Z" fill="#1A5BD1"/>
</svg>
