<svg width="24" height="24" viewBox="0 0 24 24" fill="none" xmlns="http://www.w3.org/2000/svg">
<path d="M11.9999 4.92969C10.2926 4.92969 8.87793 6.33849 8.87793 8.14981V12.7284L10.195 11.3699V8.14981C10.195 7.14352 10.9755 6.28818 11.9999 6.28818C12.9755 6.28818 13.8048 7.09321 13.8048 8.14981C13.8048 9.20642 13.0243 10.0114 11.9999 10.0114H11.5121L10.2438 11.3196H12.0487C13.756 11.3196 15.1706 9.91082 15.1706 8.0995C15.1706 6.28818 13.7072 4.92969 11.9999 4.92969Z" fill="#1750B6"/>
<path d="M22.5854 0H1.41463C0.634146 0 0 0.654088 0 1.45912V16.1509C0 16.956 0.634146 17.6101 1.41463 17.6101H13.1707V16.7044H1.41463C1.12195 16.7044 0.878049 16.4528 0.878049 16.1509V1.45912C0.878049 1.15723 1.12195 0.90566 1.41463 0.90566H22.5854C22.878 0.90566 23.122 1.15723 23.122 1.45912V16.1509C23.122 16.4528 22.878 16.7044 22.5854 16.7044H18.9756L13.8049 13.8365L16.8293 23.6981L16.9756 24H17.6098L18.8293 20.0252L22.5366 19.5723L22.878 19.4717L23.0244 18.8176L20.5854 17.6101H22.5854C23.3659 17.6101 24 16.956 24 16.1509V1.45912C24 0.654088 23.3659 0 22.5854 0ZM21.0732 18.9182L18.1463 19.2704L17.2683 22.1887L15.3171 15.7484L18.7317 17.6604H18.7805L21.0732 18.9182Z" fill="#1750B6"/>
<path d="M2.53581 3.52005C2.85909 3.52005 3.12117 3.24973 3.12117 2.91627C3.12117 2.58282 2.85909 2.3125 2.53581 2.3125C2.21252 2.3125 1.95044 2.58282 1.95044 2.91627C1.95044 3.24973 2.21252 3.52005 2.53581 3.52005Z" fill="#1750B6"/>
<path d="M4.48698 3.52005C4.81027 3.52005 5.07234 3.24973 5.07234 2.91627C5.07234 2.58282 4.81027 2.3125 4.48698 2.3125C4.16369 2.3125 3.90161 2.58282 3.90161 2.91627C3.90161 3.24973 4.16369 3.52005 4.48698 3.52005Z" fill="#1750B6"/>
<path d="M6.43839 3.52005C6.76168 3.52005 7.02376 3.24973 7.02376 2.91627C7.02376 2.58282 6.76168 2.3125 6.43839 2.3125C6.1151 2.3125 5.85303 2.58282 5.85303 2.91627C5.85303 3.24973 6.1151 3.52005 6.43839 3.52005Z" fill="#1750B6"/>
</svg>
