<svg width="24" height="24" viewBox="0 0 24 24" fill="none" xmlns="http://www.w3.org/2000/svg">
<path d="M17.4287 22.272C17.4287 22.752 17.0461 23.136 16.5677 23.136H7.38405C6.90573 23.136 6.52308 22.752 6.52308 22.272V14.832H5.66211V22.272C5.66211 23.232 6.42742 24 7.38405 24H16.5677C17.5244 24 18.2897 23.232 18.2897 22.272V14.832H17.4287V22.272Z" fill="#1750B6"/>
<path d="M16.5677 0H7.38405C6.42742 0 5.66211 0.767993 5.66211 1.72798V9.07192H6.52308V1.72798C6.52308 1.24799 6.90573 0.863992 7.38405 0.863992H8.819L9.01033 1.00799C9.29732 1.24799 9.48865 1.58399 9.48865 1.96798V2.39998H14.4153V1.96798C14.4153 1.58399 14.6066 1.24799 14.8936 1.00799L15.085 0.863992H16.5199C16.9982 0.863992 17.3809 1.24799 17.3809 1.72798V9.07192H18.2419V1.72798C18.2897 0.767993 17.5244 0 16.5677 0ZM13.65 1.53599H10.3496C10.3018 1.29599 10.2061 1.05599 10.0626 0.863992H13.937C13.7935 1.05599 13.6978 1.29599 13.65 1.53599Z" fill="#1750B6"/>
<path d="M3.30016 9.55078C2.72618 10.1748 2.39136 11.0388 2.39136 11.9508C2.39136 12.8628 2.72618 13.6787 3.30016 14.3507L3.9698 13.7747C3.53932 13.2467 3.25233 12.6228 3.25233 11.9028C3.25233 11.2308 3.49149 10.5588 3.9698 10.0308L3.30016 9.55078Z" fill="#1750B6"/>
<path d="M1.72194 7.39062C0.621812 8.63861 0 10.2706 0 11.9506C0 13.6306 0.621812 15.2146 1.72194 16.5105L2.39159 15.9346C1.43495 14.8306 0.908803 13.4386 0.908803 11.9506C0.908803 10.4626 1.43495 9.07061 2.39159 7.96662L1.72194 7.39062Z" fill="#1750B6"/>
<path d="M20.0288 10.0816C20.4593 10.6096 20.7463 11.2335 20.7463 11.9535C20.7463 12.6255 20.5071 13.2975 20.0288 13.8255L20.6985 14.4015C21.2724 13.7295 21.6073 12.8655 21.6073 12.0015C21.6073 11.0895 21.2724 10.2736 20.6985 9.60156L20.0288 10.0816Z" fill="#1750B6"/>
<path d="M22.278 7.39062L21.6084 7.96662C22.565 9.07061 23.0912 10.4626 23.0912 11.9506C23.0912 13.4386 22.565 14.8306 21.6084 15.9346L22.278 16.5105C23.3782 15.2626 24 13.6306 24 11.9506C23.9522 10.2706 23.3782 8.63861 22.278 7.39062Z" fill="#1750B6"/>
<path d="M15.0375 11.2829C15.0375 9.60293 13.6982 8.21094 11.9763 8.21094C10.2543 8.21094 8.91504 9.55493 8.91504 11.2829V15.6509L10.2065 14.3549V11.2829C10.2065 10.3229 10.9718 9.50693 11.9763 9.50693C12.9329 9.50693 13.746 10.2749 13.746 11.2829C13.746 12.2429 12.9807 13.0589 11.9763 13.0589H11.498L10.2065 14.3549H11.9763C13.6504 14.3549 15.0375 13.0109 15.0375 11.2829Z" fill="#1750B6"/>
</svg>
