<svg width="40" height="40" viewBox="0 0 40 40" fill="none" xmlns="http://www.w3.org/2000/svg">
<path d="M25.4466 22.1429C25.4466 21.4286 25.268 20.7143 25.0894 20.0893L25.9823 19.5536L25.1787 18.125L24.2859 18.6607C23.393 17.5893 22.2323 16.875 20.8037 16.6071V15.625H19.1966V16.6071C17.768 16.7857 16.518 17.5893 15.7144 18.6607L14.8216 18.125L13.9287 19.6429L14.8216 20.1786C14.5537 20.8036 14.4644 21.5179 14.4644 22.2321C14.4644 22.9464 14.643 23.6607 14.8216 24.2857L13.9287 24.8214L14.7323 26.25L15.6251 25.7143C16.518 26.7857 17.6787 27.5 19.1073 27.7679V28.5714H20.7144V27.5893C22.143 27.4107 23.393 26.6071 24.1966 25.5357L25.1787 26.0714L25.9823 24.6429L25.0894 24.1071C25.268 23.4821 25.4466 22.8571 25.4466 22.1429ZM19.9109 25.9821C17.768 25.9821 15.9823 24.1964 15.9823 22.0536C15.9823 19.9107 17.768 18.125 19.9109 18.125C22.0537 18.125 23.8394 19.9107 23.8394 22.0536C23.8394 24.2857 22.0537 25.9821 19.9109 25.9821Z" fill="#1A5BD1"/>
<path d="M19.9106 20.2695C18.9285 20.2695 18.0356 21.0731 18.0356 22.1445C18.0356 23.216 18.8392 24.0195 19.9106 24.0195C20.9821 24.0195 21.7856 23.216 21.7856 22.1445C21.7856 21.0731 20.9821 20.2695 19.9106 20.2695ZM19.7321 22.1445C19.7321 22.0552 19.8214 21.8767 19.9999 21.8767C20.1785 21.8767 20.2678 21.966 20.2678 22.1445C20.1785 22.4124 19.7321 22.4124 19.7321 22.1445Z" fill="#1A5BD1"/>
<path d="M20 0C8.92857 0 0 8.92857 0 20C0 31.0714 8.92857 40 20 40C31.0714 40 40 31.0714 40 20C40 8.92857 31.0714 0 20 0ZM12.5893 36.875V33.6607L27.2321 33.5714V36.9643C25 37.8571 22.5893 38.3929 20 38.3929C17.4107 38.3929 14.9107 37.8571 12.5893 36.875ZM28.8393 36.0714V33.4821H31.9643V10.625H26.25V12.2321H30.3571V31.875L9.46429 31.9643V12.3214H13.6607V10.7143H7.85714V33.5714H10.9821V35.9821C5.35714 32.8571 1.60714 26.7857 1.60714 19.9107C1.60714 10 9.46429 1.96429 19.1964 1.51786V10.625L16.6071 7.94643L15.4464 9.10714L20 13.75L24.5536 9.10714L23.3929 7.94643L20.8036 10.625V1.60714C30.5357 2.05357 38.3929 10.0893 38.3929 20C38.3929 26.9643 34.5536 32.9464 28.8393 36.0714Z" fill="#1A5BD1"/>
</svg>
