<svg width="96" height="96" viewBox="0 0 96 96" fill="none" xmlns="http://www.w3.org/2000/svg">
<path d="M48.9881 10.4731C69.7114 10.4731 86.5109 27.2727 86.5109 47.9959C86.5109 68.7192 69.7114 85.5187 48.9881 85.5187C28.2649 85.5187 11.4653 68.7192 11.4653 47.9959C11.4653 40.5685 13.6234 33.6451 17.3466 27.8186" stroke="url(#paint0_linear)" stroke-width="12" stroke-linecap="round"/>
<path opacity="0.4" d="M6 48C6 24.804 24.804 6 48 6C71.196 6 90 24.804 90 48C90 71.196 71.196 90 48 90C39.6863 90 31.9369 87.5845 25.4151 83.417" stroke="#8BD8BD" stroke-width="12" stroke-linecap="round"/>
<circle cx="48.9888" cy="47.9974" r="26.5247" fill="#8BD8BD"/>
<path d="M34.4968 52.3301C34.5615 52.3301 34.6262 52.2654 34.6262 52.2007C34.6262 52.136 34.5615 52.0713 34.4968 52.0713C34.4321 52.0713 34.3674 52.136 34.3674 52.2007C34.3674 52.2654 34.4321 52.3301 34.4968 52.3301Z" fill="white"/>
<path d="M33.2681 47.417C33.3974 47.417 33.5268 47.2876 33.5268 47.1582C33.5268 47.0288 33.3974 46.8994 33.2681 46.8994C33.1387 46.8994 33.0093 47.0288 33.0093 47.1582C33.0093 47.2876 33.1387 47.417 33.2681 47.417Z" fill="white"/>
<path d="M33.915 42.3693C34.1738 42.3693 34.3032 42.1753 34.3032 41.9812C34.3032 41.7871 34.1091 41.5283 33.915 41.5283C33.7209 41.5283 33.4622 41.7224 33.4622 41.9812C33.4622 42.24 33.6562 42.3693 33.915 42.3693Z" fill="white"/>
<path d="M36.3733 37.9055C36.6967 37.9055 36.9555 37.6467 36.9555 37.3232C36.9555 36.9997 36.6967 36.8057 36.3733 36.8057C36.0498 36.8057 35.791 37.0644 35.791 37.3232C35.791 37.582 36.0498 37.9055 36.3733 37.9055Z" fill="white"/>
<path d="M40.3193 34.6039C40.7075 34.6039 41.0309 34.2805 41.0309 33.8923C41.0309 33.5041 40.7075 33.1807 40.3193 33.1807C39.9311 33.1807 39.6077 33.5041 39.6077 33.8923C39.6077 34.2805 39.9311 34.6039 40.3193 34.6039Z" fill="white"/>
<path d="M45.1714 32.9213C45.6242 32.9213 46.0124 32.5331 46.0124 32.0803C46.0124 31.6274 45.6242 31.2393 45.1714 31.2393C44.7185 31.2393 44.3303 31.6274 44.3303 32.0803C44.3303 32.5331 44.7185 32.9213 45.1714 32.9213Z" fill="white"/>
<path d="M50.4121 33.1176C50.948 33.1176 51.3825 32.6831 51.3825 32.1472C51.3825 31.6112 50.948 31.1768 50.4121 31.1768C49.8761 31.1768 49.4417 31.6112 49.4417 32.1472C49.4417 32.6831 49.8761 33.1176 50.4121 33.1176Z" fill="white"/>
<path d="M63.7393 43.4668C63.8107 43.4668 63.8686 43.4089 63.8686 43.3374C63.8686 43.2659 63.8107 43.208 63.7393 43.208C63.6678 43.208 63.6099 43.2659 63.6099 43.3374C63.6099 43.4089 63.6678 43.4668 63.7393 43.4668Z" fill="white"/>
<path d="M64.968 48.1267C64.8386 48.1267 64.7092 48.2561 64.7092 48.3855C64.7092 48.5149 64.8386 48.6443 64.968 48.6443C65.0974 48.6443 65.2268 48.5149 65.2268 48.3855C65.2268 48.2561 65.1621 48.1267 64.968 48.1267Z" fill="white"/>
<path d="M64.3855 53.1726C64.1267 53.1726 63.9973 53.3667 63.9973 53.5608C63.9973 53.7549 64.1914 53.9489 64.3855 53.9489C64.5796 53.9489 64.7736 53.7549 64.7736 53.5608C64.7736 53.3667 64.5796 53.1726 64.3855 53.1726Z" fill="white"/>
<path d="M61.9277 57.6377C61.6042 57.6377 61.3455 57.8965 61.3455 58.2199C61.3455 58.5434 61.6042 58.8022 61.9277 58.8022C62.2512 58.8022 62.51 58.5434 62.51 58.2199C62.51 57.8965 62.1865 57.6377 61.9277 57.6377Z" fill="white"/>
<path d="M57.9809 62.3618C58.374 62.3618 58.6926 62.0431 58.6926 61.6501C58.6926 61.2571 58.374 60.9385 57.9809 60.9385C57.5879 60.9385 57.2693 61.2571 57.2693 61.6501C57.2693 62.0431 57.5879 62.3618 57.9809 62.3618Z" fill="white"/>
<path d="M53.0644 64.3C53.5289 64.3 53.9054 63.9234 53.9054 63.4589C53.9054 62.9945 53.5289 62.6179 53.0644 62.6179C52.5999 62.6179 52.2234 62.9945 52.2234 63.4589C52.2234 63.9234 52.5999 64.3 53.0644 64.3Z" fill="white"/>
<path d="M47.8237 64.3637C48.3596 64.3637 48.7941 63.9292 48.7941 63.3933C48.7941 62.8573 48.3596 62.4229 47.8237 62.4229C47.2877 62.4229 46.8533 62.8573 46.8533 63.3933C46.8533 63.9292 47.2877 64.3637 47.8237 64.3637Z" fill="white"/>
<path d="M63.0272 33.6994C60.7629 31.4351 57.1401 31.4351 54.8757 33.6994C53.9053 34.6699 53.3231 35.9638 53.1937 37.3223C48.9239 35.4462 43.9424 36.4166 40.5783 39.7807C37.9258 42.4332 36.6966 46.2502 37.4082 50.0024L38.5727 49.8084C38.5081 49.4202 38.4434 48.9673 38.4434 48.5792H42.972C43.1014 52.5902 44.1365 56.019 45.8185 57.9599C45.3657 57.8305 44.9128 57.6364 44.4599 57.4423L44.3952 57.5717C44.2659 56.3425 43.6836 55.1133 42.7779 54.1429C41.6781 53.0431 40.2548 52.4608 38.7021 52.4608C37.1495 52.4608 35.7262 53.0431 34.6264 54.1429C33.3972 55.178 32.8149 56.6013 32.8149 58.1539C32.8149 59.6419 33.3972 61.1299 34.497 62.2297C35.5968 63.3295 37.0201 63.9118 38.5727 63.9118C40.1254 63.9118 41.5487 63.3295 42.6485 62.2297C43.6836 61.1946 44.2012 59.9007 44.3306 58.6068C45.7538 59.1891 47.2418 59.5125 48.7298 59.5125H48.7945C48.8592 59.5125 48.8592 59.5125 48.9239 59.5125C51.8998 59.5125 54.8111 58.348 57.0107 56.1484C59.8572 53.3019 60.957 49.2908 60.116 45.4091L58.9515 45.6679C59.0809 46.2502 59.1456 46.8324 59.2103 47.4147H54.6817C54.5523 43.4036 53.5172 39.9748 51.8351 38.034C52.3527 38.1634 52.8055 38.3574 53.3231 38.6162C53.5172 39.8454 54.0347 40.9452 54.9404 41.8509C56.0402 42.9508 57.5282 43.533 59.0162 43.533C60.5042 43.533 61.9921 42.9508 63.0919 41.8509C64.1917 40.7511 64.774 39.3279 64.774 37.7752C64.7093 36.2225 64.1271 34.7346 63.0272 33.6994ZM41.8075 61.3887C40.9664 62.2297 39.8019 62.7473 38.5727 62.7473C37.3436 62.7473 36.1791 62.2944 35.338 61.3887C34.497 60.5476 33.9794 59.3831 33.9794 58.1539C33.9794 56.9248 34.4323 55.7603 35.338 54.9192C36.1791 54.0782 37.3436 53.5606 38.5727 53.5606C39.8019 53.5606 40.9664 54.0135 41.8075 54.9192C43.6189 56.666 43.6189 59.5772 41.8075 61.3887ZM41.4193 40.6218C42.6485 39.3926 44.1365 38.4868 45.7538 38.034C44.1365 39.9101 43.0367 43.3389 42.9073 47.4147H38.3787C38.5727 44.8269 39.6079 42.4332 41.4193 40.6218ZM44.0718 48.5145H53.4525C53.3231 53.8194 51.2529 58.2186 48.8592 58.2833C48.7945 58.2833 48.7298 58.2833 48.6651 58.2833C46.2714 58.2186 44.2012 53.8194 44.0718 48.5145ZM56.1049 55.3074C54.8757 56.5366 53.3878 57.3776 51.7704 57.8952C53.3878 56.019 54.4876 52.5902 54.617 48.5792H59.1456C59.0162 51.0376 57.9811 53.4313 56.1049 55.3074ZM44.0718 47.35C44.2012 41.9803 46.2714 37.5164 48.7298 37.5164C51.1882 37.5164 53.2584 41.9803 53.3878 47.35H44.0718ZM62.1862 41.0099C60.3748 42.8214 57.4635 42.8214 55.7168 41.0099C54.8757 40.1689 54.3582 39.0044 54.3582 37.7752C54.3582 36.546 54.8111 35.3815 55.7168 34.5405C56.6225 33.6348 57.787 33.1819 58.9515 33.1819C60.116 33.1819 61.2805 33.6348 62.1862 34.5405C63.0272 35.3815 63.5448 36.546 63.5448 37.7752C63.5448 38.9397 63.0919 40.1042 62.1862 41.0099Z" fill="white"/>
<path d="M59.5333 35.8342C59.9215 35.8342 60.1803 35.9636 60.3744 36.3518L60.8919 36.093C60.6331 35.5754 60.1803 35.3167 59.5333 35.3167C58.5629 35.3167 57.916 35.8989 57.7219 36.9987H57.3337L57.075 37.5163H57.7219V38.0338H57.3984L57.1396 38.5514H57.7866C57.9807 39.5865 58.6276 40.2334 59.598 40.2334C60.245 40.2334 60.6978 39.9747 60.9566 39.4571L60.4391 39.1983C60.245 39.5218 59.9862 39.7159 59.598 39.7159C58.9511 39.7159 58.5629 39.3924 58.3688 38.6161H59.7274L59.9862 38.0985H58.3041V37.5163H59.7274L59.9862 36.9987H58.3688C58.4335 36.1577 58.8864 35.8342 59.5333 35.8342Z" fill="white"/>
<path d="M38.8962 57.766C38.4433 57.5072 37.9904 57.3131 37.9904 56.8603C37.9904 56.5368 38.2492 56.278 38.5727 56.278C38.8315 56.278 39.0902 56.3427 39.349 56.7956L39.8666 56.4721C39.6725 56.0839 39.4137 55.8252 38.9609 55.7605V55.1135H38.3786V55.6958C37.8611 55.8252 37.4082 56.278 37.4082 56.925C37.4082 57.6366 37.9257 57.9601 38.5727 58.2836C39.0255 58.4776 39.4784 58.7364 39.4784 59.1893C39.4784 59.3834 39.4137 59.6421 39.2843 59.7715C39.1549 59.9656 38.8962 60.0303 38.6374 60.0303C37.9904 60.0303 37.7964 59.5774 37.6023 58.9952L37.0847 59.3187C37.2141 59.9656 37.7317 60.4832 38.3786 60.6126V61.1948H38.8962V60.6126C39.2196 60.5479 39.4784 60.4185 39.6725 60.1597C39.9313 59.9009 40.0607 59.5774 40.0607 59.1893C40.0607 58.4129 39.4784 58.0248 38.8962 57.766Z" fill="white"/>
<defs>
<linearGradient id="paint0_linear" x1="48.9881" y1="10.4731" x2="48.9881" y2="85.5187" gradientUnits="userSpaceOnUse">
<stop stop-color="#8BD8BD"/>
<stop offset="1" stop-color="#8BD8BD"/>
</linearGradient>
</defs>
</svg>
